<svg version="1.1" xmlns="http://www.w3.org/2000/svg" xmlns:xlink="http://www.w3.org/1999/xlink" x="0px" y="0px"
	 viewBox="0 0 32 41.4" style="enable-background:new 0 0 32 41.4;" xml:space="preserve">
<style type="text/css">
	.st0{fill:#94CEB9;}
</style>
<path class="st0" d="M26.3,4.1c-3.7,2.6-6.9,6.7-7.8,8.5c19.2-6.2,17.2,21.1-0.7,17.6c-0.5,5.4-1.4,7.3-3.6,11.2
	c0.5-3.7,2.2-7.2-0.9-11.4c-1.7-2.4-8.5-1.5-10.8-3.9c-6.3-6.7,0.5-17.7,10.3-12.8C11.7,10.1,11,3.4,13,0c1.5-0.1,2.1,0.7,3.1,1.1
	c0.4,0.5-0.4,0.9-0.2,1.7c0.6-0.8,1-1.7,1.6-2.5c1.3,0.3,2.2,1,2.9,1.9c-0.6,1.3-1.3,2.4-1.8,3.7C20.3,5,22,2.4,24.5,1.7
	C25.7,1.9,25.7,3.2,26.3,4.1"/>
</svg>
