<?xml version="1.0" standalone="no"?>
<!DOCTYPE svg PUBLIC "-//W3C//DTD SVG 1.1//EN" "http://www.w3.org/Graphics/SVG/1.1/DTD/svg11.dtd" >
<svg xmlns="http://www.w3.org/2000/svg" xmlns:xlink="http://www.w3.org/1999/xlink" version="1.1">
<metadata>
Created by FontForge 20170731 at Fri May 21 10:32:28 2004
 By Aleksey,,,
</metadata>
<defs>
<font id="PillGothic600mg-Bold" horiz-adv-x="508" >
  <font-face 
    font-family="Pill Gothic 600mg Rg"
    font-weight="700"
    font-stretch="normal"
    units-per-em="1000"
    panose-1="2 0 5 3 3 0 0 2 0 4"
    ascent="800"
    descent="-200"
    x-height="490"
    cap-height="680"
    bbox="-60 -279 1006 948"
    underline-thickness="50"
    underline-position="-150"
    unicode-range="U+0020-FB04"
  />
<missing-glyph horiz-adv-x="218" 
 />
    <glyph glyph-name="germandbls" unicode="ss" horiz-adv-x="651" 
d="M37 490h54v97q0 32 12 60t32.5 48.5t49 32t61.5 11.5q13 0 30 -2t34.5 -6t34.5 -9t29 -10l-32 -98q-23 11 -39.5 14.5t-33.5 3.5q-37 0 -50 -24t-13 -60v-58h373v-75l-88 -113h9q25 0 44.5 -10t33.5 -27t21.5 -39t7.5 -47v-58q0 -32 -13 -56t-34.5 -40t-50.5 -24t-61 -8
q-21 0 -42 3.5t-40.5 11t-35.5 19.5t-26 30l55 64q10 -16 33.5 -27t42.5 -11q55 0 55 56v17q0 32 -14 48.5t-46 16.5h-84v76l86 106h-221v-403h-120v405h-54v85z" />
    <glyph glyph-name="arrowleft" unicode="&#x3c;&#x2d;" horiz-adv-x="431" 
d="M273 399l-81 -95h202v-104h-202l74 -90l-64 -48l-165 190l171 199z" />
    <glyph glyph-name="arrowright" unicode="&#x2d;&#x3e;" horiz-adv-x="431" 
d="M213 461l181 -209l-159 -203l-70 51l74 100h-202v104h202l-91 105z" />
    <glyph glyph-name="smiley" unicode="&#x28;&#x3a;" horiz-adv-x="770" 
d="M25 351q0 77 27.5 142.5t76 113.5t115 75t143.5 27t143.5 -27t115 -75t76 -113.5t27.5 -142.5t-28 -142.5t-76.5 -113.5t-114.5 -75t-143 -27t-143.5 27t-115 75t-76 113.5t-27.5 142.5zM100 351q0 -61 22 -113.5t61 -91t91.5 -60.5t113.5 -22q60 0 112.5 22t91 60.5
t60.5 91t22 113.5t-22 112.5t-60.5 89.5t-91 59.5t-113.5 21.5t-113.5 -21.5t-91 -59.5t-60.5 -89.5t-22 -112.5zM602 311q-11 -32 -29.5 -59t-43 -47t-54 -31.5t-62.5 -11.5h-55q-33 0 -62 11.5t-53.5 31.5t-43 46.5t-29.5 57.5l71 27q13 -39 44 -68.5t73 -29.5h55
q21 0 40 8.5t35 22.5t28.5 32.5t19.5 38.5zM236 507h102v-108h-102v108zM438 507h102v-108h-102v108z" />
    <glyph glyph-name="f_j" unicode="fj" horiz-adv-x="615" 
d="M311 725q26 0 57 -4t63.5 -10.5t63 -15t55.5 -16.5l-35 -103q-46 15 -96 27t-98 12q-34 0 -56.5 -10t-22.5 -43v-72h93v-86h-95v-404h-123v404h-80v86h80v64q0 40 15.5 71.5t41.5 53t61.5 33.5t75.5 13zM414 490h122v-457q0 -57 -15.5 -98t-45.5 -71t-73 -51t-98 -39
l-38 83q38 20 65.5 37t45.5 36.5t26.5 46t8.5 65.5z" />
    <glyph glyph-name="ff" unicode="ff" horiz-adv-x="661" 
d="M282 736q49 0 96 -13.5t90 -40.5q26 28 59.5 40.5t73.5 12.5q23 0 51 -6t51 -14l-27 -87q-16 5 -40 7.5t-40 2.5q-29 0 -37 -20t-8 -47v-81h111v-86h-111v-404h-119v404h-89v86h89v90v14q-29 17 -66 24.5t-70 7.5q-15 0 -30 -3t-27.5 -9.5t-20 -16.5t-7.5 -25v-82h92v-86
h-92v-404h-123v404h-90v86h90v75q0 40 15.5 71.5t41.5 53t61.5 33.5t75.5 13z" />
    <glyph glyph-name="fi" unicode="fi" horiz-adv-x="604" 
d="M290 745q68 0 130 -19.5t119 -50.5l-51 -94q-46 21 -96.5 39.5t-99.5 18.5q-26 0 -44 -16t-18 -41v-92h94v-86h-95v-404h-123v404h-90v86h90v84q0 40 13.5 71.5t38 53.5t58.5 34t74 12zM410 490h124v-490h-124v490z" />
    <glyph glyph-name="fl" unicode="fl" horiz-adv-x="626" 
d="M300 746q21 0 46.5 -3t52 -8.5t52 -13t44.5 -16.5h46v-705h-123v620q-27 9 -59 13t-59 4q-26 0 -46.5 -14t-20.5 -39v-94h102v-87h-103v-403h-125v403h-91v87h93v96q0 38 15.5 67.5t42 50t61 31.5t72.5 11z" />
    <glyph glyph-name="wink" unicode="&#x28;&#x3b;" horiz-adv-x="770" 
d="M25 350q0 77 27.5 143t76 114t115 75t143.5 27t143.5 -27t115 -75t76 -114t27.5 -143t-28 -142.5t-76.5 -113.5t-114.5 -75t-143 -27t-143.5 27t-115 75t-76 113.5t-27.5 142.5zM100 350q0 -61 22 -113.5t61 -91t91.5 -60.5t113.5 -22q60 0 112.5 22t91 60.5t60.5 91
t22 113.5t-22 113t-60.5 90t-91 59.5t-113.5 21.5t-113.5 -21.5t-91 -59.5t-60.5 -90t-22 -113zM601 297q-11 -32 -29.5 -59.5t-43 -47.5t-54 -31.5t-62.5 -11.5h-55q-33 0 -62 11.5t-53.5 31.5t-43 47t-29.5 58l71 27q6 -19 17.5 -37t26.5 -32t33.5 -22t39.5 -8h55
q21 0 40 8.5t35 22.5t28.5 32.5t19.5 38.5zM225 506h114v-109h-114v109zM418 422v57h175v-57h-175z" />
    <glyph glyph-name="T_h" unicode="Th" horiz-adv-x="1041" 
d="M9 570v110h552v-111h-227v-569h-124v569zM838 500q44 0 74.5 -12t49 -35t26.5 -57.5t8 -78.5v-317h-124v317q0 35 -22 54t-57 19q-20 0 -39.5 -7.5t-34.5 -21t-24.5 -31t-9.5 -37.5v-293h-124v680h124v-270q9 19 26 35.5t38 28.5t44 19t45 7z" />
    <glyph glyph-name=".notdef" horiz-adv-x="218" 
 />
    <glyph glyph-name=".null" horiz-adv-x="0" 
 />
    <glyph glyph-name="nonmarkingreturn" horiz-adv-x="218" 
 />
    <glyph glyph-name="space" unicode=" " horiz-adv-x="218" 
 />
    <glyph glyph-name="exclam" unicode="!" horiz-adv-x="245" 
d="M183 239h-106l-15 441h137zM72 135h121v-135h-121v135z" />
    <glyph glyph-name="quotedbl" unicode="&#x22;" horiz-adv-x="306" 
d="M44 690h93l-8 -221h-77zM171 690h91l-7 -221h-76z" />
    <glyph glyph-name="numbersign" unicode="#" horiz-adv-x="605" 
d="M395 470l24 125h71l-21 -125h99v-72h-112l-40 -210h108v-72h-122l-19 -116h-75l20 116h-107l-20 -116h-74l20 116h-110v72h124l40 210h-124v72h137l23 125h74l-23 -125h107zM342 188l40 210h-107l-40 -210h107z" />
    <glyph glyph-name="dollar" unicode="$" horiz-adv-x="545" 
d="M508 301v-104q0 -39 -13.5 -73t-37 -60.5t-56.5 -42t-72 -17.5v-122h-98v118q-25 0 -54 10t-56 27.5t-49.5 40.5t-33.5 50l97 69q23 -36 62.5 -61.5t84.5 -25.5q44 0 72.5 16.5t28.5 60.5v50l-327 136v121q0 39 13.5 71t38 56t58.5 39t74 20v120h99v-123q26 0 50.5 -9
t46.5 -24t41 -35t33 -42l-83 -78q-26 32 -64.5 57t-78.5 25q-44 0 -73.5 -19.5t-29.5 -61.5v-48z" />
    <glyph glyph-name="percent" unicode="%" horiz-adv-x="716" 
d="M336 514q0 -29 -11.5 -51t-31 -37t-45 -23t-53.5 -8q-31 0 -57 7t-45.5 21.5t-30.5 37t-11 53.5v59q0 29 11.5 51t31 36.5t46 22t55.5 7.5q27 0 52.5 -8t45 -23.5t31.5 -37t12 -48.5v-59zM665 108q0 -59 -38.5 -87.5t-96.5 -28.5q-26 0 -50.5 7t-43.5 21t-30.5 34
t-11.5 46v81q0 57 38.5 85t97.5 28q26 0 50.5 -6t43 -19.5t30 -34t11.5 -49.5v-77zM155 519q0 -19 10.5 -24.5t29.5 -5.5q14 0 27 8.5t13 22.5v50q0 15 -12.5 20.5t-27.5 5.5t-27.5 -7.5t-12.5 -21.5v-48zM491 116q0 -16 11.5 -24t27.5 -8q14 0 27 9t13 24v49q0 17 -11.5 25
t-28.5 8q-16 0 -28 -10t-12 -24zM66 0l482 680h100l-475 -680h-107z" />
    <glyph glyph-name="ampersand" unicode="&#x26;" horiz-adv-x="678" 
d="M637 288l-95 -101l114 -114l-87 -83l-104 108q-38 -54 -89 -81t-117 -27q-51 0 -92 11t-70 33.5t-44.5 56.5t-15.5 81q0 34 14 62.5t37 54t51.5 48t56.5 44.5l-73 80v97q0 31 13 55.5t35 41.5t51 26t62 9q79 0 128 -38.5t49 -115.5q0 -54 -25 -94t-68 -71l94 -101l90 97z
M250 103q23 0 39.5 7t31.5 18.5t30 27t33 32.5l-108 118q-17 -15 -36 -29t-35.5 -29.5t-27 -33t-10.5 -38.5q0 -40 25.5 -56.5t57.5 -16.5zM232 502l56 -61q21 16 41 39.5t20 52.5t-16 43t-45 14q-23 0 -39.5 -11t-16.5 -32v-45z" />
    <glyph glyph-name="quotesingle" unicode="'" horiz-adv-x="240" 
d="M58 700h124l-17 -243h-90z" />
    <glyph glyph-name="parenleft" unicode="(" horiz-adv-x="349" 
d="M70 416q0 61 13.5 114t37.5 97.5t57 79t72 57.5l39 -61q-23 -15 -44.5 -41t-38 -62.5t-26.5 -82.5t-10 -101v-289q0 -58 10 -105t26.5 -82t38 -60t44.5 -40l-39 -61q-39 23 -72 57.5t-57 79t-37.5 97.5t-13.5 114v289z" />
    <glyph glyph-name="parenright" unicode=")" horiz-adv-x="373" 
d="M278 128q0 -61 -13 -114t-37 -97.5t-57 -79t-72 -57.5l-39 51q23 17 44.5 45t38 65.5t26.5 84.5t10 102v289q0 110 -31 181.5t-78 105.5l29 61q39 -23 72 -57.5t57 -79t37 -97.5t13 -114v-289z" />
    <glyph glyph-name="asterisk" unicode="*" horiz-adv-x="387" 
d="M329 634l21 -68l-97 -31l61 -82l-59 -43l-61 83l-62 -83l-58 42l61 83l-98 31l21 68l99 -32v102h73v-103z" />
    <glyph glyph-name="plus" unicode="+" horiz-adv-x="556" 
d="M340 444h193v-110h-193v-204h-124v204h-193v110h193v176h124v-176z" />
    <glyph glyph-name="comma" unicode="," horiz-adv-x="224" 
d="M164 99v-27q0 -47 -10 -82.5t-24.5 -61t-31 -43t-28.5 -27.5l-52 40q7 10 14.5 22.5t13.5 28.5t10 37t4 49v64h104z" />
    <glyph glyph-name="hyphen" unicode="-" horiz-adv-x="337" 
d="M37 352h263v-110h-263v110z" />
    <glyph glyph-name="period" unicode="." horiz-adv-x="234" 
d="M51 135h132v-135h-132v135z" />
    <glyph glyph-name="slash" unicode="/" horiz-adv-x="398" 
d="M16 -85l264 765h107l-266 -765h-105z" />
    <glyph glyph-name="zero" unicode="0" horiz-adv-x="595" 
d="M297 690q51 0 94.5 -15t76 -43.5t51 -69t18.5 -91.5v-266q0 -51 -19 -90.5t-51.5 -67.5t-76 -42.5t-93.5 -14.5t-93.5 15t-76 42.5t-51 67.5t-18.5 90v266q0 51 18 91.5t50.5 69t76 43.5t94.5 15zM413 471q0 53 -31.5 81t-84.5 28q-54 0 -84.5 -28.5t-30.5 -80.5v-266
q0 -51 32 -78t83 -27t83.5 26t32.5 79v266z" />
    <glyph glyph-name="one" unicode="1" horiz-adv-x="432" 
d="M208 570h-148v110h272v-680h-124v570z" />
    <glyph glyph-name="two" unicode="2" horiz-adv-x="534" 
d="M351 279q-25 -19 -54.5 -38t-54.5 -39t-41.5 -42.5t-16.5 -49.5h317v-110h-441v63q0 53 12 93t35.5 72.5t57.5 60.5t79 58q21 14 43 27.5t40 30t29.5 37t11.5 47.5q0 35 -22 58t-70 23q-22 0 -45.5 -7t-45.5 -19t-40.5 -27.5t-32.5 -32.5l-68 81q43 54 102.5 84.5
t131.5 30.5q46 0 85.5 -10t68 -31.5t44.5 -55t16 -79.5q0 -41 -8.5 -71t-26 -55t-44 -48.5t-62.5 -50.5z" />
    <glyph glyph-name="three" unicode="3" horiz-adv-x="555" 
d="M497 473q0 -24 -7.5 -43t-20 -33t-29.5 -24.5t-36 -17.5q19 -8 37 -19t32 -25t22.5 -33t8.5 -44v-68q0 -46 -18 -79.5t-49 -55t-72 -31.5t-86 -10q-41 0 -78 8t-68 25t-54 44t-35 65l103 44q7 -16 20.5 -30t30 -24.5t35.5 -16t37 -5.5q19 0 38.5 3t35.5 10.5t26 20.5
t10 32v68q0 18 -10.5 30t-27 20t-35.5 12t-37 6h-77v106h71q19 0 38.5 3t35 10.5t25.5 20t10 31.5v41q0 18 -8.5 31t-22.5 20.5t-32 11t-36 3.5q-37 0 -66.5 -17t-44.5 -49l-94 49q12 33 34.5 57t52 39.5t63.5 23t70 7.5q45 0 83.5 -10.5t66 -32t43 -55t15.5 -78.5v-41z" />
    <glyph glyph-name="four" unicode="4" horiz-adv-x="569" 
d="M443 293h107v-110h-107v-183h-124v183h-290v85l222 412h192v-387zM319 572h-14l-139 -279h153v279z" />
    <glyph glyph-name="five" unicode="5" horiz-adv-x="547" 
d="M282 427q44 0 83.5 -11.5t69.5 -35t47.5 -59t17.5 -83.5v-62q0 -45 -19 -79.5t-51 -58t-73.5 -36t-85.5 -12.5q-93 0 -150.5 45t-73.5 126l121 32q3 -16 12.5 -32.5t24 -30t33.5 -22t41 -8.5q39 0 68.5 17.5t29.5 58.5v62q0 21 -9 35.5t-24 24.5t-34 14.5t-39 4.5h-199
l36 363h355v-110h-242l-13 -143h74z" />
    <glyph glyph-name="six" unicode="6" horiz-adv-x="561" 
d="M321 451q40 0 74.5 -11t60 -33.5t40 -56t14.5 -78.5v-98q0 -44 -19 -78.5t-51 -58t-72.5 -35.5t-84.5 -12t-85 12t-72 35.5t-49.5 58t-18.5 78.5v333q0 41 19.5 74.5t51.5 57.5t72 37.5t82 13.5q32 0 58.5 -4t50 -12t45 -20.5t43.5 -30.5l-62 -92q-35 28 -67 39.5
t-68 11.5q-18 0 -36 -5.5t-32.5 -15t-23.5 -23.5t-9 -31v-121q32 31 62 48t77 17zM386 255q0 18 -9 32.5t-23 24.5t-32.5 15t-36.5 5q-19 0 -37.5 -5t-33 -15t-23.5 -24.5t-9 -32.5v-81q0 -19 8.5 -33t23 -23.5t32.5 -14t37 -4.5t37.5 4.5t33 14t23.5 23.5t9 33v81z" />
    <glyph glyph-name="seven" unicode="7" horiz-adv-x="477" 
d="M5 680h453l-232 -680h-133l198 570h-286v110z" />
    <glyph glyph-name="eight" unicode="8" horiz-adv-x="568" 
d="M497 483q0 -16 -8.5 -34.5t-22 -35t-29 -29t-30.5 -18.5q17 -6 35 -18.5t33 -28.5t25 -35.5t10 -40.5v-77q0 -47 -18 -80.5t-49 -54.5t-72 -31t-88 -10t-88 10t-71.5 31t-48 54.5t-17.5 80.5v77q0 18 9 37t24 36t33 30.5t36 19.5q-20 8 -36.5 22t-28.5 32t-18.5 38.5
t-6.5 41.5v35q0 43 17 75.5t46 54.5t68 33.5t82 11.5t82 -11t68 -33t46.5 -55t17.5 -76v-52v0zM385 243q0 15 -9 27.5t-23 20.5t-31 12.5t-32 4.5h-12q-17 -1 -34 -5t-31 -12t-22.5 -19.5t-8.5 -28.5v-73q0 -19 8.5 -32.5t22.5 -22t32.5 -12t37.5 -3.5q18 0 36 3.5t32.5 11
t24 20.5t9.5 31v77zM194 483q0 -16 7.5 -28t19.5 -20t27 -12t31 -5h10q18 1 33 4t26.5 10.5t18 19.5t6.5 31v52q0 17 -8 29t-20.5 20t-28.5 12t-33 4t-33 -4t-28.5 -12.5t-20 -20.5t-7.5 -28v-52v0z" />
    <glyph glyph-name="nine" unicode="9" horiz-adv-x="561" 
d="M276 690q44 0 84.5 -12.5t72.5 -35.5t51 -57t19 -78v-333q0 -44 -19 -78.5t-51 -58t-72.5 -35.5t-84.5 -12q-54 0 -105.5 18.5t-89.5 56.5l60 90q13 -9 29.5 -19t34 -18t36 -13t34.5 -5q18 0 36.5 4.5t33.5 13.5t24 23t9 33v110q-21 -27 -54.5 -40t-65.5 -13
q-44 0 -82 12.5t-65.5 36t-43.5 58t-16 78.5v91q0 43 18.5 77t50 57.5t72 36t84.5 12.5zM378 507q0 19 -9 32.5t-23.5 22.5t-32.5 13.5t-37 4.5t-37 -4.5t-32.5 -13.5t-23 -23t-8.5 -32v-91q0 -19 9 -33t24 -23.5t33.5 -14t37.5 -4.5t36.5 4.5t31.5 14t22.5 23.5t8.5 33v91z
" />
    <glyph glyph-name="colon" unicode=":" horiz-adv-x="272" 
d="M83 144h124v-144h-124v144zM83 490h124v-142h-124v142z" />
    <glyph glyph-name="semicolon" unicode=";" horiz-adv-x="301" 
d="M223 343h-115v147h115v-147zM220 99v-27q0 -47 -10 -82.5t-24.5 -61t-31 -43t-28.5 -27.5l-52 40q7 10 14.5 22.5t13.5 28.5t10 37t4 49v64h104z" />
    <glyph glyph-name="less" unicode="&#x3c;" horiz-adv-x="593" 
d="M509 -15l-472 258l463 284l47 -76l-333 -202l342 -189z" />
    <glyph glyph-name="equal" unicode="=" horiz-adv-x="522" 
d="M37 490h448v-92h-448v92zM37 284h448v-93h-448v93z" />
    <glyph glyph-name="greater" unicode="&#x3e;" horiz-adv-x="593" 
d="M556 262l-463 -284l-47 76l333 202l-342 188l47 76z" />
    <glyph glyph-name="question" unicode="?" horiz-adv-x="431" 
d="M200 690q44 0 79.5 -8.5t61 -27.5t39.5 -48.5t14 -71.5v-37q0 -18 -7 -33.5t-17.5 -29.5t-24 -26.5t-26.5 -23.5q-17 -15 -29.5 -27.5t-20 -26t-11 -29.5t-3.5 -37v-35h-117v53q0 43 16 76t48 66q10 10 22 19t22 19t17 22t7 27v19q0 26 -18.5 38t-46.5 12q-16 0 -34 -5
t-34.5 -13t-32 -18t-27.5 -20l-58 83q37 33 83.5 58t97.5 25zM122 135h140v-135h-140v135z" />
    <glyph glyph-name="at" unicode="@" horiz-adv-x="780" 
d="M398 705q75 0 137.5 -21t108.5 -58.5t71.5 -89t25.5 -113.5q0 -56 -9.5 -102t-30.5 -79t-54 -51.5t-80 -18.5q-14 0 -32 1.5t-35 7.5t-30 17t-18 30q-20 -26 -57 -47t-79 -21q-63 0 -92.5 26.5t-29.5 64.5q0 12 2 31t6.5 43.5t12 53.5t18.5 59q11 29 32 52t47 39t55 24
t56 8q57 0 93.5 -25t36.5 -67q0 -23 -4.5 -45t-9.5 -45q-4 -19 -7 -40t-3 -47q0 -19 10.5 -32t27.5 -13q26 0 43 13t27.5 36.5t15 56t4.5 71.5q0 46 -19 84t-53.5 65.5t-82 43t-104.5 15.5q-55 0 -100.5 -17.5t-80 -48t-56 -72t-28.5 -89.5q-3 -21 -5 -43t-3.5 -40.5
t-2.5 -32.5t-1 -20q0 -42 16.5 -78.5t50 -63t85.5 -42t123 -15.5q36 0 75 10t81 33l37 -67q-47 -26 -96 -38.5t-97 -12.5q-90 0 -157.5 21t-112.5 57.5t-67 86t-22 107.5q0 6 0.5 21t1.5 34.5t3.5 42.5t6.5 45q11 61 40.5 115t74 94t104 63t130.5 23zM343 240q34 0 60.5 24
t31.5 60q6 27 12.5 58.5t6.5 57.5q0 41 -47 41q-17 0 -33 -9t-28.5 -23t-21.5 -31.5t-12 -34.5q-3 -14 -5.5 -29.5t-4 -29t-2.5 -23t-1 -11.5q0 -50 44 -50z" />
    <glyph glyph-name="A" unicode="A" horiz-adv-x="632" 
d="M395 685l218 -685h-130l-47 161h-237l-48 -161h-132l225 685h151zM405 261l-87 295l-88 -295h175z" />
    <glyph glyph-name="B" unicode="B" horiz-adv-x="564" 
d="M497 480q0 -18 -5 -36.5t-15 -36t-24 -31.5t-31 -22q48 -20 73 -56t25 -91v-34q0 -85 -48.5 -129t-132.5 -44h-275v680h253q83 0 131.5 -49.5t48.5 -132.5v-18v0zM396 213q0 21 -9 37t-24 26t-35 15t-41 5h-99v-186h116q20 0 36.5 2.5t29 9t19.5 19t7 32.5v40zM188 396
h94q42 0 67 20.5t25 63.5v18q0 42 -25 57t-67 15h-94v-174z" />
    <glyph glyph-name="C" unicode="C" horiz-adv-x="559" 
d="M302 580q-27 0 -51.5 -7.5t-43 -21.5t-29 -34.5t-10.5 -47.5v-258q0 -58 38.5 -84.5t96.5 -26.5q51 0 94.5 14t77.5 44l54 -91q-51 -45 -105.5 -61t-120.5 -16q-55 0 -102.5 14t-82 41.5t-54.5 69t-20 96.5v258q0 52 20.5 93t55.5 69.5t82 43.5t100 15q41 0 72.5 -5.5
t57 -17.5t48 -30t46.5 -42l-68 -84q-32 30 -68.5 49.5t-87.5 19.5z" />
    <glyph glyph-name="D" unicode="D" horiz-adv-x="592" 
d="M290 680q57 0 104.5 -13t81.5 -40t53 -68.5t19 -98.5v-240q0 -57 -21 -98.5t-57.5 -68.5t-85.5 -40t-105 -13h-214v680h225zM425 460q0 29 -10 50t-28 34.5t-43 19.5t-54 6h-103v-461h92q29 0 55.5 6t46.5 19.5t32 34.5t12 51v240z" />
    <glyph glyph-name="E" unicode="E" horiz-adv-x="505" 
d="M189 298v-188h279v-110h-403v680h382v-110h-258v-167h217v-105h-217z" />
    <glyph glyph-name="F" unicode="F" horiz-adv-x="469" 
d="M446 570h-258v-171h217v-105h-217v-294h-123v680h381v-110z" />
    <glyph glyph-name="G" unicode="G" horiz-adv-x="614" 
d="M308 376h255v-303q-33 -19 -62.5 -34.5t-58.5 -26.5t-60.5 -16.5t-69.5 -5.5q-57 0 -106 13.5t-85 40.5t-56.5 68.5t-20.5 98.5v258q0 54 21.5 95.5t58 69t85 42t102.5 14.5q67 0 125 -20t106 -65l-56 -90q-37 29 -83 47t-92 18q-28 0 -54 -7t-45.5 -21t-31.5 -35
t-12 -48v-258q0 -30 11.5 -51t31 -34.5t45.5 -19.5t56 -6q37 0 64.5 5t61.5 24v147h-130v100z" />
    <glyph glyph-name="H" unicode="H" horiz-adv-x="687" 
d="M498 680h124v-680h-124v275h-279v-275h-124v680h124v-295h279v295z" />
    <glyph glyph-name="I" unicode="I" horiz-adv-x="325" 
d="M100 680h124v-680h-124v680z" />
    <glyph glyph-name="J" unicode="J" horiz-adv-x="489" 
d="M300 680h124v-518q0 -42 -15.5 -74t-42 -53.5t-62.5 -32t-78 -10.5q-83 0 -138 40.5t-72 116.5l119 34q3 -11 9 -25.5t16.5 -27t25.5 -21.5t34 -9q32 0 56 14.5t24 47.5v518z" />
    <glyph glyph-name="K" unicode="K" horiz-adv-x="633" 
d="M606 680l-289 -311l310 -369h-169l-226 278l-43 -45v-233h-124v680h124v-277l254 277h163z" />
    <glyph glyph-name="L" unicode="L" horiz-adv-x="502" 
d="M189 680v-570h303v-110h-427v680h124z" />
    <glyph glyph-name="M" unicode="M" horiz-adv-x="793" 
d="M220 680l175 -352l180 352h153v-680h-110v541l-195 -415h-58l-190 415v-541h-110v680h155z" />
    <glyph glyph-name="N" unicode="N" horiz-adv-x="688" 
d="M513 680h110v-680h-172l-276 537v-537h-110v680h162l286 -551v551z" />
    <glyph glyph-name="O" unicode="O" horiz-adv-x="640" 
d="M328 690q52 0 100 -15t85 -43.5t59.5 -69t22.5 -92.5v-259q0 -54 -21.5 -95.5t-58 -69.5t-85 -42t-102.5 -14h-15q-55 0 -104 14t-85.5 41.5t-58 69t-21.5 96.5v259q0 53 22 93.5t59 69t85.5 43t101.5 14.5h16v0zM471 469q0 27 -12.5 47.5t-32.5 34.5t-45.5 21.5
t-52.5 7.5h-16q-27 0 -53 -7t-46.5 -21t-32.5 -34.5t-12 -47.5v-259q0 -29 12 -50t32 -34.5t46 -20t55 -6.5h15q28 0 54 6.5t45.5 20.5t31.5 35t12 49v258z" />
    <glyph glyph-name="P" unicode="P" horiz-adv-x="534" 
d="M291 680q45 0 83 -11.5t65.5 -34.5t43 -57t15.5 -79v-77q0 -42 -16.5 -74t-44.5 -53.5t-65 -32.5t-79 -11h-105v-250h-124v680h227zM374 498q0 35 -24 53.5t-59 18.5h-103v-210h103q32 0 57.5 14t25.5 47v77z" />
    <glyph glyph-name="Q" unicode="Q" horiz-adv-x="640" 
d="M438 6q-26 -8 -53.5 -12t-56.5 -4h-15q-55 0 -104 14t-85.5 41.5t-58 69t-21.5 96.5v259q0 53 22 93.5t59 69t85.5 43t101.5 14.5h16q52 0 100 -15t85 -43.5t59.5 -69t22.5 -92.5v-259q0 -51 -19 -90.5t-52 -67.5l5 -5q23 -29 51 -40t63 -11v-76q-35 0 -62.5 2t-50.5 9
t-42.5 21.5t-38.5 39.5zM471 469q0 27 -12.5 47.5t-32.5 34.5t-45.5 21.5t-52.5 7.5h-16q-27 0 -53 -7t-46.5 -21t-32.5 -34.5t-12 -47.5v-259q0 -29 12 -50t32 -34.5t46 -20t55 -6.5h15h18t17 2l-60 78l73 62l74 -94q21 26 21 63v258z" />
    <glyph glyph-name="R" unicode="R" horiz-adv-x="583" 
d="M531 447q0 -63 -34 -102t-94 -56l160 -289h-138l-151 276h-86v-276h-124v680h260q94 0 150.5 -43.5t56.5 -137.5v-52v0zM188 386h136q32 0 57.5 15t25.5 47v50q0 36 -24 54t-60 18h-135v-184z" />
    <glyph glyph-name="S" unicode="S" horiz-adv-x="581" 
d="M332 401q52 -13 93 -30t69.5 -41t43.5 -58t15 -82q0 -51 -20 -88.5t-54 -62t-79.5 -36t-95.5 -11.5q-40 0 -79 8.5t-73.5 24.5t-64 39.5t-49.5 53.5l81 77q12 -18 32.5 -34.5t44.5 -29.5t50 -21t49 -8q24 0 48 4.5t43 14.5t31 27t12 42q0 26 -16.5 43t-41.5 28.5t-54 19
t-54 14.5q-47 15 -84.5 32t-63.5 40.5t-39.5 55.5t-13.5 76q0 50 19.5 86.5t53 59.5t78 34t95.5 11q72 0 127 -24t97 -58l-69 -92q-12 11 -30 22t-39 20.5t-43.5 15.5t-42.5 6q-23 0 -45 -4t-39 -13.5t-27.5 -25t-10.5 -38.5t13.5 -38.5t34.5 -27t47 -19t51 -13.5z" />
    <glyph glyph-name="T" unicode="T" horiz-adv-x="546" 
d="M9 570v110h528v-111h-203v-569h-124v569z" />
    <glyph glyph-name="U" unicode="U" horiz-adv-x="670" 
d="M481 680h124v-462q0 -57 -21 -99.5t-57.5 -71t-85.5 -43t-105 -14.5q-57 0 -106.5 14.5t-86 43t-57.5 71t-21 99.5v462h124v-462q0 -30 11.5 -52.5t31 -37t46.5 -21.5t57 -7t56.5 7t46.5 22t31.5 37t11.5 52v462z" />
    <glyph glyph-name="V" unicode="V" horiz-adv-x="634" 
d="M144 680l171 -534l175 534h128l-228 -680h-151l-223 680h128z" />
    <glyph glyph-name="W" unicode="W" horiz-adv-x="878" 
d="M505 680l129 -507l92 507h129l-147 -680h-139l-128 483l-124 -483h-140l-161 680h128l110 -504l125 504h126z" />
    <glyph glyph-name="X" unicode="X" horiz-adv-x="669" 
d="M191 680l149 -241l156 241h146l-229 -342l228 -338h-147l-155 237l-160 -237h-147l234 338l-221 342h146z" />
    <glyph glyph-name="Y" unicode="Y" horiz-adv-x="643" 
d="M254 269l-238 411h142l158 -303l161 303h143l-242 -412v-268h-124v269z" />
    <glyph glyph-name="Z" unicode="Z" horiz-adv-x="572" 
d="M535 680v-57l-322 -513h317v-110h-493v60l321 510h-317v110h494z" />
    <glyph glyph-name="bracketleft" unicode="[" horiz-adv-x="278" 
d="M241 680v-86h-70v-667h66v-84h-172v837h176z" />
    <glyph glyph-name="backslash" unicode="\" horiz-adv-x="439" 
d="M23 680h111l282 -680h-110z" />
    <glyph glyph-name="bracketright" unicode="]" horiz-adv-x="276" 
d="M211 680v-837h-173v87h66v657h-66v93h173z" />
    <glyph glyph-name="asciicircum" unicode="^" horiz-adv-x="443" 
d="M118 360l-81 38l187 292l182 -290l-78 -40l-104 168z" />
    <glyph glyph-name="underscore" unicode="_" horiz-adv-x="565" 
d="M37 -36h491v-93h-491v93z" />
    <glyph glyph-name="grave" unicode="`" horiz-adv-x="279" 
d="M130 738l99 -156l-61 -43l-118 144z" />
    <glyph glyph-name="a" unicode="a" horiz-adv-x="496" 
d="M252 500q91 0 142 -44t51 -135v-321h-98l-21 64q-23 -43 -58.5 -57t-82.5 -14q-75 0 -111.5 44.5t-36.5 119.5v102l284 49v13q0 42 -21.5 58t-63.5 16q-15 0 -34.5 -4t-40 -10.5t-38.5 -14.5t-30 -15l-38 81q19 13 43 25.5t50.5 22t53 15t50.5 5.5zM317 226l-156 -27v-36
q0 -30 14.5 -47t44.5 -17q15 0 32 3.5t31.5 11t24 19t9.5 27.5v66z" />
    <glyph glyph-name="b" unicode="b" horiz-adv-x="535" 
d="M324 499q86 0 130 -48.5t44 -134.5v-141q0 -88 -46 -136.5t-133 -48.5q-45 0 -83.5 17.5t-61.5 55.5l-17 -63h-99v720h124v-302q7 18 22.5 33t35.5 25.5t42 16.5t42 6zM374 316q0 41 -25.5 55.5t-66.5 14.5q-18 0 -36 -5t-32.5 -15t-23 -23.5t-8.5 -31.5v-138
q0 -21 8 -35.5t22.5 -22.5t33.5 -11.5t40 -3.5q35 0 61.5 19.5t26.5 55.5v141z" />
    <glyph glyph-name="c" unicode="c" horiz-adv-x="455" 
d="M245 390q-37 0 -60.5 -19t-23.5 -55v-142q0 -40 26 -57t66 -17q71 0 130 47l47 -92q-39 -38 -85 -51.5t-99 -13.5q-46 0 -84.5 11.5t-66.5 34t-43 57.5t-15 81v142q0 44 16 78t43.5 57.5t65.5 36t83 12.5q34 0 59.5 -5t47.5 -14t41 -23t39 -32l-62 -87q-27 23 -58.5 37
t-66.5 14z" />
    <glyph glyph-name="d" unicode="d" horiz-adv-x="525" 
d="M349 720h123v-720h-95l-27 54q-23 -31 -61.5 -46.5t-74.5 -15.5q-88 0 -132 47.5t-44 135.5v143q0 86 44 134t132 48q40 0 74.5 -14.5t60.5 -45.5v280zM348 314q0 41 -27.5 59.5t-68.5 18.5q-36 0 -63 -19.5t-27 -54.5v-143q0 -43 26 -58t69 -15q36 0 63.5 17.5
t27.5 55.5v139z" />
    <glyph glyph-name="e" unicode="e" horiz-adv-x="506" 
d="M277 100q19 0 39.5 4t40 11t36.5 17t29 21l54 -88q-45 -42 -96 -58.5t-111 -16.5q-49 0 -91.5 11.5t-74 35.5t-49 60.5t-17.5 85.5v134q0 45 17 79t46 57t69 35t85 12q41 0 78 -12.5t65 -35.5t44.5 -56.5t16.5 -74.5v-83l-297 -43v-12q0 -20 10.5 -35.5t27 -26t37.5 -16
t41 -5.5zM251 392q-18 0 -34 -5t-28.5 -14.5t-20 -23.5t-7.5 -32v-40l169 24v27q0 36 -21.5 50t-57.5 14z" />
    <glyph glyph-name="f" unicode="f" horiz-adv-x="343" 
d="M98 603q0 34 14 58.5t38 41t55.5 24.5t65.5 8q23 0 51 -6t51 -14l-26 -93q-14 4 -33 7t-31 3q-33 0 -47.5 -10t-14.5 -42v-90h121v-83h-121v-407h-123v407h-93v83h93v113z" />
    <glyph glyph-name="g" unicode="g" horiz-adv-x="531" 
d="M488 0v-85q0 -39 -15 -66.5t-40.5 -45t-59.5 -25.5t-73 -8h-90q-37 0 -70.5 9t-58.5 27t-39.5 45.5t-14.5 63.5q0 37 17.5 58t46.5 42q-14 11 -23 20.5t-13.5 20t-6 24t-1.5 31.5q0 10 6 21.5t15 22t19.5 19.5t20.5 14q-57 48 -57 126v14q0 45 15.5 77t43.5 53t66 31
t83 10q30 0 53.5 -6.5t51.5 -20.5l121 49l33 -82l-79 -26q11 -21 19 -42t8 -43v-24q0 -44 -16 -75t-44 -51t-65.5 -29.5t-81.5 -9.5q-8 0 -20 1t-24.5 2.5t-24 4.5t-17.5 6q-8 -5 -13.5 -11t-5.5 -20t3.5 -26.5t23.5 -17.5zM167 297q0 -17 8 -29.5t21 -21t29.5 -12.5
t33.5 -4t33.5 4t29.5 12t20.5 20.5t7.5 30.5v31q0 17 -8 29.5t-21 20.5t-29 12.5t-33 4.5t-33.5 -4.5t-29.5 -12.5t-21 -20.5t-8 -29.5v-31zM300 -133q27 0 43.5 12.5t20.5 39.5v23l-189 43q-17 -8 -24 -23.5t-7 -35.5q0 -21 7.5 -33t20.5 -18t31.5 -7t40.5 -1h56v0z" />
    <glyph glyph-name="h" unicode="h" horiz-adv-x="543" 
d="M334 500q44 0 74.5 -12t49 -35t26.5 -57.5t8 -78.5v-317h-124v317q0 35 -22 54t-57 19q-20 0 -39.5 -7.5t-34.5 -21t-24.5 -31t-9.5 -37.5v-293h-124v720h124v-310q9 19 26 35.5t38 28.5t44 19t45 7z" />
    <glyph glyph-name="i" unicode="i" horiz-adv-x="260" 
d="M71 490h124v-490h-124v490zM71 680h124v-126h-124v126z" />
    <glyph glyph-name="j" unicode="j" horiz-adv-x="274" 
d="M86 490h124v-446q0 -60 -20 -101.5t-52.5 -71t-74 -49.5t-85.5 -37l-38 83q20 12 45 26t47.5 34t38 50t15.5 75v437zM86 680h124v-127h-124v127z" />
    <glyph glyph-name="k" unicode="k" horiz-adv-x="493" 
d="M331 270l162 -270h-149l-122 216h-41v-216h-124v710h124v-391h44l107 171h141z" />
    <glyph glyph-name="l" unicode="l" horiz-adv-x="252" 
d="M65 710h124v-710h-124v710z" />
    <glyph glyph-name="m" unicode="m" horiz-adv-x="804" 
d="M590 501q85 0 124 -36.5t39 -121.5v-343h-124v307q0 44 -14 64t-58 20q-20 0 -37 -9.5t-29 -25t-18.5 -34.5t-6.5 -39v-283h-124v306q0 42 -14 65t-56 23q-19 0 -35.5 -9.5t-28.5 -24.5t-19 -34t-7 -38v-288h-124v490h102l13 -74q9 18 24.5 33t35 26.5t40.5 18t42 6.5
q54 0 90.5 -17.5t47.5 -71.5q8 16 23 32t34 29t40 21t40 8z" />
    <glyph glyph-name="n" unicode="n" horiz-adv-x="544" 
d="M325 500q89 0 128 -47t39 -136v-317h-124v296q0 41 -19 68t-60 27q-20 0 -39.5 -8t-34.5 -21.5t-24 -31t-9 -37.5v-293h-124v490h107l17 -71q28 38 61.5 59.5t81.5 21.5z" />
    <glyph glyph-name="o" unicode="o" 
d="M257 500q103 0 159 -48t56 -136v-141q0 -44 -17.5 -78.5t-47 -58t-68.5 -36t-83 -12.5q-45 0 -84.5 12t-69.5 35.5t-47.5 58t-17.5 79.5v141q0 44 16 78t45.5 57.5t70 36t88.5 12.5zM348 316q0 36 -27.5 55t-63.5 19q-19 0 -36 -4.5t-30.5 -14t-21.5 -23.5t-8 -32v-141
q0 -38 28.5 -56.5t66.5 -18.5q37 0 64.5 18.5t27.5 56.5v141z" />
    <glyph glyph-name="p" unicode="p" horiz-adv-x="531" 
d="M308 500q85 0 136 -49t51 -134v-137q0 -43 -13.5 -78t-38 -60t-59 -38.5t-76.5 -13.5q-44 0 -73.5 11t-53.5 46v-268h-124v711h89l26 -53q30 33 60 48t76 15zM371 312q0 23 -7.5 38t-20.5 24t-30.5 13t-36.5 4q-18 0 -35.5 -5t-30.5 -14.5t-21 -23t-8 -31.5v-136
q0 -40 28 -61t67 -21q17 0 34 4.5t30.5 14.5t22 25t8.5 37v132z" />
    <glyph glyph-name="q" unicode="q" horiz-adv-x="511" 
d="M214 500q45 0 79 -15t66 -48l26 53h89v-711h-124v274q-20 -37 -58 -50t-79 -13q-87 0 -131.5 48.5t-44.5 135.5v143q0 86 45 134.5t132 48.5zM161 174q0 -36 28 -55.5t64 -19.5q19 0 36 4.5t30 13.5t21 23t8 34v143q0 18 -8 32t-21.5 23.5t-30.5 14.5t-35 5
q-39 0 -65.5 -20.5t-26.5 -58.5v-139z" />
    <glyph glyph-name="r" unicode="r" horiz-adv-x="346" 
d="M290 500q35 0 54 -8l-25 -109q-8 3 -22.5 5t-28.5 2q-15 0 -30 -4.5t-26.5 -14.5t-19 -24t-7.5 -34v-313h-124v490h86l26 -73q7 17 19 32t28 26.5t34 18t36 6.5z" />
    <glyph glyph-name="s" unicode="s" horiz-adv-x="460" 
d="M286 295q66 -16 105 -48t39 -91q0 -44 -15.5 -75t-43 -50.5t-64.5 -28.5t-80 -9q-57 0 -108 23t-89 64l63 85q12 -12 29 -24.5t36.5 -22.5t39 -16.5t37.5 -6.5q15 0 28.5 1t24 5.5t16.5 13.5t6 24q0 19 -12 29t-29.5 15.5t-38.5 9t-39 7.5q-33 8 -59.5 19.5t-45 28.5
t-28 41.5t-9.5 58.5q0 40 15 68.5t41.5 47t62 27t75.5 8.5q48 0 94.5 -21.5t82.5 -55.5l-61 -83q-22 23 -58 38.5t-68 15.5q-28 0 -43.5 -9.5t-15.5 -35.5q0 -16 11.5 -25t28.5 -13.5t36.5 -7.5t35.5 -7z" />
    <glyph glyph-name="t" unicode="t" horiz-adv-x="402" 
d="M256 98q11 0 30 3t37 8l44 11l26 -87q-9 -4 -27.5 -11t-40 -13.5t-42 -11t-33.5 -4.5q-69 0 -108.5 28t-39.5 97v287h-90v85h91v144h123v-144h119v-85h-119v-271q0 -14 8 -25t22 -11z" />
    <glyph glyph-name="u" unicode="u" horiz-adv-x="537" 
d="M362 490h124v-316q0 -45 -17 -79t-46 -57.5t-68.5 -35.5t-83.5 -12q-45 0 -84 12t-68 35.5t-45.5 57.5t-16.5 79v316h124v-316q0 -38 26 -56t64 -18q36 0 63.5 18.5t27.5 55.5v316z" />
    <glyph glyph-name="v" unicode="v" horiz-adv-x="534" 
d="M269 119l118 371h131l-192 -490h-117l-193 490h132z" />
    <glyph glyph-name="w" unicode="w" horiz-adv-x="695" 
d="M495 111l56 379h128l-119 -490h-133l-77 331l-74 -331h-138l-122 490h129l62 -383l76 383h129z" />
    <glyph glyph-name="x" unicode="x" horiz-adv-x="498" 
d="M156 490l94 -150l93 150h132l-156 -236l162 -254h-130l-101 166l-102 -166h-131l163 254l-153 236h129z" />
    <glyph glyph-name="y" unicode="y" horiz-adv-x="485" 
d="M184 -10l-169 500h130l100 -359l96 359h129l-185 -555q-14 -42 -38.5 -70.5t-55 -45.5t-66 -24t-71.5 -8l-16 93q14 0 34 4.5t39.5 12.5t35.5 20t23 29z" />
    <glyph glyph-name="z" unicode="z" horiz-adv-x="399" 
d="M352 490v-61l-185 -327h198v-102h-332v73l186 320h-182v97h315z" />
    <glyph glyph-name="braceleft" unicode="{" horiz-adv-x="301" 
d="M256 706q-27 -18 -44.5 -41.5t-28 -48t-14.5 -50t-4 -48.5l20 -179l-26 -42l29 -36l-23 -209q2 -56 23.5 -106t75.5 -86l-37 -67q-49 34 -80.5 67t-50.5 65t-26.5 65t-7.5 69l29 198l-33 36l35 47l-31 176q0 40 10 73.5t30 63.5t50.5 58t70.5 56z" />
    <glyph glyph-name="bar" unicode="|" horiz-adv-x="219" 
d="M65 680h89v-827h-89v827z" />
    <glyph glyph-name="braceright" unicode="}" horiz-adv-x="320" 
d="M104 762q88 -53 130.5 -116t42.5 -130l-34 -176l40 -47l-40 -36l34 -198q0 -72 -45 -139.5t-133 -121.5l-41 63q33 19 55 42.5t35.5 48.5t19.5 51t6 49l-26 211l32 34l-29 40l23 181q0 23 -7 49t-20 51.5t-32.5 48t-46.5 38.5z" />
    <glyph glyph-name="asciitilde" unicode="~" horiz-adv-x="401" 
d="M148 620q-18 0 -30.5 -13t-19.5 -21l-47 46q20 35 46 53.5t58 18.5q16 0 33 -6t33.5 -12.5t32 -12.5t27.5 -6q24 0 35 11.5t17 21.5l51 -39q-4 -7 -11 -20t-18 -26.5t-26.5 -23.5t-35.5 -10q-18 0 -35.5 6t-35 13.5t-36 13.5t-38.5 6z" />
    <glyph glyph-name="uni00A0" unicode="&#xa0;" horiz-adv-x="250" 
 />
    <glyph glyph-name="exclamdown" unicode="&#xa1;" horiz-adv-x="259" 
d="M72 -204l17 461h106l18 -461h-141zM200 370h-119v120h119v-120z" />
    <glyph glyph-name="cent" unicode="&#xa2;" horiz-adv-x="481" 
d="M261 394q-19 0 -37 -7t-32 -18.5t-22 -26.5t-8 -32v-133q0 -18 7.5 -33t21 -26.5t31.5 -18t39 -6.5q30 0 62 9t55 35l59 -90q-22 -21 -41 -33.5t-37 -19.5t-36 -9.5t-39 -2.5h-6.5t-10.5 1l-22 -117l-96 16l21 111q-33 5 -58 24.5t-41.5 46t-25 56.5t-8.5 57v133
q0 32 14 65t38 59t55.5 42.5t65.5 16.5h33l20 131l100 -17l-21 -115q26 -7 53 -24t49 -46l-68 -81q-26 28 -56.5 40.5t-58.5 12.5z" />
    <glyph glyph-name="sterling" unicode="&#xa3;" horiz-adv-x="532" 
d="M296 228q0 -24 -1 -40t-5 -28t-12 -23.5t-22 -26.5h239v-110h-457v84q42 4 68.5 15t40.5 27.5t19 37.5t5 45l-7 80h-127v90h117l-6 89q0 56 22.5 97.5t63 69t96.5 41.5t123 15v-110q-40 0 -73 -6t-57 -19.5t-37 -34.5t-13 -51l8 -91h138v-90h-128q2 -17 3 -33t2 -28z" />
    <glyph glyph-name="yen" unicode="&#xa5;" horiz-adv-x="676" 
d="M82 342h167l-233 338h142l178 -266l181 266h143l-236 -338h179v-68h-205v-63h204v-64h-204v-147h-124v147h-191v64h191v63h-192v68z" />
    <glyph glyph-name="brokenbar" unicode="&#xa6;" horiz-adv-x="174" 
d="M37 233h100v-335h-100v335zM37 700h100v-334h-100v334z" />
    <glyph glyph-name="section" unicode="&#xa7;" horiz-adv-x="565" 
d="M363 398q37 -16 67.5 -35t53 -44t35 -58t12.5 -76q0 -38 -16.5 -73.5t-47.5 -55.5q10 -17 14.5 -36t4.5 -37q0 -49 -16.5 -86t-45 -62t-67.5 -37.5t-84 -12.5q-64 0 -120 24.5t-90 69.5l68 75q9 -13 24.5 -25.5t34.5 -22t39 -15.5t36 -6q17 0 34.5 2.5t31.5 11.5
t22.5 26.5t8.5 46.5q0 24 -19.5 45.5t-48 40t-60.5 33.5t-56 25q-37 16 -63 33t-42 39t-23.5 50t-7.5 65q0 16 4.5 34.5t13 35.5t20.5 31.5t27 22.5q-10 19 -13.5 42t-3.5 46q0 43 16.5 75.5t45 54.5t66.5 33.5t81 11.5q64 0 116 -19.5t87 -55.5l-54 -80q-28 25 -68.5 40
t-77.5 15q-38 0 -62.5 -19.5t-24.5 -57.5q0 -24 14.5 -41t36.5 -30.5t48 -23.5t49 -20zM414 185q0 21 -10 36.5t-27 28t-38.5 23t-44.5 19.5q-32 13 -55 25.5t-51 31.5q-13 -4 -18 -17.5t-5 -25.5q0 -21 9.5 -36.5t24.5 -27t34.5 -20t38.5 -16.5q32 -15 59.5 -28t56.5 -33
q7 3 16.5 17t9.5 23z" />
    <glyph glyph-name="dieresis" unicode="&#xa8;" horiz-adv-x="407" 
d="M157 593h-107v107h107v-107zM357 593h-106v107h106v-107z" />
    <glyph glyph-name="copyright" unicode="&#xa9;" horiz-adv-x="783" 
d="M37 351q0 75 27 140t74.5 113t112.5 75t141 27q75 0 139.5 -27.5t112.5 -75t75 -112.5t27 -140t-27 -140t-75 -112.5t-112.5 -74.5t-139.5 -27q-76 0 -141 27t-112.5 74.5t-74.5 112t-27 140.5zM112 350q0 -60 21.5 -111t59 -88.5t89 -59t111.5 -21.5q59 0 110.5 21.5
t89 59t59 88.5t21.5 111t-21.5 111t-59 89t-88.5 59.5t-111 21.5t-111.5 -21.5t-89 -59.5t-59 -89t-21.5 -111zM397 431q-30 0 -53 -17.5t-23 -46.5v-47q0 -32 25.5 -48.5t57.5 -16.5q27 0 54 11t47 30l50 -69q-13 -15 -32 -27.5t-40.5 -21t-43 -13t-41.5 -4.5
q-37 0 -70.5 11t-58.5 31.5t-40 50t-15 66.5v47q0 35 15 64t40.5 50t58.5 32.5t69 11.5q27 0 47 -3.5t37 -12t33 -22t34 -33.5l-55 -67q-17 20 -43.5 32t-52.5 12z" />
    <glyph glyph-name="ordfeminine" unicode="&#xaa;" horiz-adv-x="348" 
d="M168 688q63 0 102 -28.5t39 -91.5v-200h-59l-26 41q-13 -20 -38 -31.5t-46 -11.5q-49 0 -76 25.5t-27 74.5v64l182 26v10q0 27 -15 37.5t-42 10.5q-8 0 -19.5 -2t-23.5 -5t-22.5 -7t-16.5 -7l-28 64q25 13 55.5 22t60.5 9zM216 501l-89 -12v-18q0 -14 14.5 -21.5
t28.5 -7.5t30 8t16 23v28z" />
    <glyph glyph-name="guillemotleft" unicode="&#xab;" horiz-adv-x="467" 
d="M388 0l-159 175l159 181l42 -42l-91 -138l90 -130zM196 0l-159 175l159 181l42 -42l-91 -138l90 -130z" />
    <glyph glyph-name="logicalnot" unicode="&#xac;" horiz-adv-x="451" 
d="M37 336h377v-180h-91v87h-286v93z" />
    <glyph glyph-name="registered" unicode="&#xae;" horiz-adv-x="783" 
d="M37 351q0 78 26 143t73 112t112.5 73.5t143.5 26.5q77 0 142 -26.5t112 -73.5t73.5 -112.5t26.5 -142.5q0 -78 -26.5 -143t-73.5 -112t-112 -73t-142 -26q-78 0 -143.5 26t-112.5 72.5t-73 112t-26 143.5zM112 350q0 -62 20.5 -113.5t58 -88.5t89 -57.5t113.5 -20.5
q61 0 112.5 20.5t88.5 58t58 89t21 112.5t-21 112.5t-58 89t-88.5 58.5t-112.5 21q-62 0 -113.5 -21t-89 -58.5t-58 -89t-20.5 -112.5zM539 403q0 -36 -19 -59t-51 -35l92 -144h-96l-87 132h-42v-132h-86v369h172q51 0 84 -30.5t33 -81.5v-19v0zM336 361h74q17 0 30.5 8
t13.5 26v24q0 17 -13.5 29t-30.5 12h-74v-99z" />
    <glyph glyph-name="macron" unicode="&#xaf;" horiz-adv-x="435" 
d="M385 639h-335v61h335v-61z" />
    <glyph glyph-name="degree" unicode="&#xb0;" horiz-adv-x="377" 
d="M188 690q30 -1 57.5 -9.5t48.5 -24.5t33.5 -39.5t12.5 -53.5v-27q0 -31 -12.5 -54t-33.5 -39t-48.5 -24t-57.5 -8q-31 0 -58.5 8t-48 24t-32.5 39t-12 54v27q0 30 12 53.5t32.5 39.5t48 24.5t58.5 9.5zM245 575q0 20 -18.5 29.5t-38.5 9.5t-37.5 -10t-17.5 -29v-49
q0 -20 17.5 -28.5t37.5 -8.5q19 0 38 8.5t19 28.5v49z" />
    <glyph glyph-name="plusminus" unicode="&#xb1;" horiz-adv-x="551" 
d="M328 404h168v-101h-168v-159h-114v159h-159v101h159v151h114v-151zM37 92h477v-92h-477v92z" />
    <glyph glyph-name="twosuperior" unicode="&#xb2;" horiz-adv-x="431" 
d="M216 689q62 0 99 -22.5t37 -79.5q0 -39 -19.5 -57.5t-51.5 -32.5q-15 -7 -31 -12.5t-29.5 -11.5t-22.5 -13.5t-12 -19.5h165v-81h-278v51q0 50 28 79t84 52q10 4 22.5 8.5t23 9.5t18 12t7.5 15q0 17 -14.5 19.5t-31.5 2.5q-32 0 -52 -11t-38 -25l-44 65q17 17 52 34.5
t88 17.5z" />
    <glyph glyph-name="threesuperior" unicode="&#xb3;" horiz-adv-x="361" 
d="M338 582q0 -13 -6 -25.5t-15.5 -22t-21 -17t-23.5 -10.5q24 -8 46.5 -28t22.5 -45v-15q0 -31 -12 -51t-33 -31.5t-48.5 -15.5t-58.5 -4q-48 0 -90 17t-65 59l60 46q14 -22 39 -33.5t52 -11.5q10 0 21 1.5t20 5t15 9t6 13.5v11q0 10 -5.5 17t-14 11.5t-19 7t-20.5 2.5h-67
v71h64q8 0 18 1.5t18.5 5t14.5 9.5t6 15v9q0 17 -17 23.5t-34 6.5q-29 0 -54 -9t-40 -24l-48 53q11 14 27 25t35 18t39 10.5t39 3.5q32 0 59 -3.5t47 -14.5t31.5 -30t11.5 -51v-9z" />
    <glyph glyph-name="acute" unicode="&#xb4;" horiz-adv-x="281" 
d="M153 736l78 -56l-118 -143l-63 36z" />
    <glyph glyph-name="paragraph" unicode="&#xb6;" horiz-adv-x="548" 
d="M483 680v-680h-79v613h-80v-613h-86v367h-47q-67 0 -110.5 37t-43.5 104v21q0 33 11.5 60.5t32 47.5t49 31t61.5 12h292z" />
    <glyph glyph-name="periodcentered" unicode="&#xb7;" horiz-adv-x="206" 
d="M51 334h132v-135h-132v135z" />
    <glyph glyph-name="cedilla" unicode="&#xb8;" horiz-adv-x="271" 
d="M154 0l-12 -59q9 -3 22.5 -9.5t26 -18t21.5 -28.5t9 -42q0 -42 -37 -72t-97 -50l-37 63q4 2 15 7t22.5 12.5t20.5 17t9 21.5q0 23 -14.5 37t-51.5 22l19 99h84z" />
    <glyph glyph-name="onesuperior" unicode="&#xb9;" horiz-adv-x="273" 
d="M121 575h-98v105h199v-336h-101v231z" />
    <glyph glyph-name="ordmasculine" unicode="&#xba;" horiz-adv-x="377" 
d="M188 688q29 0 56.5 -8.5t48.5 -24.5t34 -39.5t13 -52.5v-61q0 -30 -13 -53.5t-34 -39t-48.5 -24t-56.5 -8.5q-30 0 -57 8.5t-48 24.5t-33.5 39t-12.5 53v61q0 29 12.5 52.5t33.5 39.5t48 24.5t57 8.5zM242 570q0 17 -17.5 25.5t-34.5 8.5q-19 0 -36 -9.5t-17 -26.5v-55
q0 -29 12 -42t41 -13q17 0 34.5 7.5t17.5 24.5v80z" />
    <glyph glyph-name="guillemotright" unicode="&#xbb;" horiz-adv-x="462" 
d="M119 176l-91 138l42 42l159 -181l-159 -175l-41 46zM311 176l-91 138l42 42l159 -181l-159 -175l-41 46z" />
    <glyph glyph-name="onequarter" unicode="&#xbc;" horiz-adv-x="695" 
d="M121 575h-98v105h199v-336h-101v231zM34 0l482 680h100l-475 -680h-107zM610 153h68v-75h-68v-78h-93v78h-194v51l158 229h129v-205zM517 283h-9l-77 -130h86v130z" />
    <glyph glyph-name="onehalf" unicode="&#xbd;" horiz-adv-x="648" 
d="M121 575h-98v105h199v-336h-101v231zM13 0l482 680h100l-475 -680h-107zM504 332q62 0 99 -22.5t37 -79.5q0 -39 -19.5 -57.5t-51.5 -32.5q-15 -7 -31 -12.5t-29.5 -11.5t-22.5 -13.5t-12 -19.5h165v-81h-278v51q0 50 28 79t84 52q10 4 22.5 8.5t23 9.5t18 12t7.5 15
q0 17 -14.5 19.5t-31.5 2.5q-32 0 -52 -11t-38 -25l-44 65q17 17 52 34.5t88 17.5z" />
    <glyph glyph-name="threequarters" unicode="&#xbe;" horiz-adv-x="769" 
d="M319 582q0 -13 -6 -25.5t-15.5 -22t-21 -17t-23.5 -10.5q24 -8 46.5 -28t22.5 -45v-15q0 -31 -12 -51t-33 -31.5t-48.5 -15.5t-58.5 -4q-48 0 -90 17t-65 59l60 46q14 -22 39 -33.5t52 -11.5q10 0 21 1.5t20 5t15 9t6 13.5v11q0 10 -5.5 17t-14 11.5t-19 7t-20.5 2.5h-67
v71h64q8 0 18 1.5t18.5 5t14.5 9.5t6 15v9q0 17 -17 23.5t-34 6.5q-29 0 -54 -9t-40 -24l-48 53q11 14 27 25t35 18t39 10.5t39 3.5q32 0 59 -3.5t47 -14.5t31.5 -30t11.5 -51v-9zM117 0l482 680h100l-475 -680h-107zM693 152h68v-75h-68v-78h-93v78h-194v51l158 229h129
v-205zM600 282h-9l-77 -130h86v130z" />
    <glyph glyph-name="questiondown" unicode="&#xbf;" horiz-adv-x="420" 
d="M228 -214q-45 0 -80.5 8.5t-61 27.5t-39 49.5t-13.5 74.5v38q0 35 17 58t45 47q34 30 55.5 60.5t21.5 76.5v36h117v-56q0 -53 -20.5 -91t-57.5 -73q-19 -18 -36.5 -34t-17.5 -41v-21q0 -23 20.5 -39t44.5 -16q28 0 59 13.5t69 39.5l48 -88q-38 -33 -79.5 -51.5
t-91.5 -18.5zM300 356h-140v134h140v-134z" />
    <glyph glyph-name="Agrave" unicode="&#xc0;" horiz-adv-x="632" 
d="M395 685l218 -685h-130l-47 161h-237l-48 -161h-132l225 685h151zM405 261l-87 295l-88 -295h175zM278 946l99 -156l-61 -43l-118 144z" />
    <glyph glyph-name="Aacute" unicode="&#xc1;" horiz-adv-x="632" 
d="M395 685l218 -685h-130l-47 161h-237l-48 -161h-132l225 685h151zM405 261l-87 295l-88 -295h175zM356 946l78 -56l-118 -143l-63 36z" />
    <glyph glyph-name="Acircumflex" unicode="&#xc2;" horiz-adv-x="632" 
d="M395 685l218 -685h-130l-47 161h-237l-48 -161h-132l225 685h151zM405 261l-87 295l-88 -295h175zM316 894l130 -97l-45 -55l-85 53l-85 -53l-45 58z" />
    <glyph glyph-name="Atilde" unicode="&#xc3;" horiz-adv-x="632" 
d="M395 685l218 -685h-130l-47 161h-237l-48 -161h-132l225 685h151zM405 261l-87 295l-88 -295h175zM246 790q-18 0 -30.5 -13t-19.5 -21l-47 46q20 35 46 53.5t58 18.5q16 0 33 -6t33.5 -12.5t32 -12.5t27.5 -6q24 0 35 11.5t17 21.5l51 -39q-4 -7 -11 -20t-18 -26.5
t-26.5 -23.5t-35.5 -10q-18 0 -35.5 6t-35 13.5t-36 13.5t-38.5 6z" />
    <glyph glyph-name="Adieresis" unicode="&#xc4;" horiz-adv-x="632" 
d="M395 685l218 -685h-130l-47 161h-237l-48 -161h-132l225 685h151zM405 261l-87 295l-88 -295h175zM269 762h-107v107h107v-107zM469 762h-106v107h106v-107z" />
    <glyph glyph-name="Aring" unicode="&#xc5;" horiz-adv-x="632" 
d="M395 685l218 -685h-130l-47 161h-237l-48 -161h-132l225 685h151zM405 261l-87 295l-88 -295h175zM315 748q-16 0 -30 6t-24.5 16.5t-16.5 25t-6 30.5q0 33 22.5 55t54.5 22t55.5 -22t23.5 -55q0 -32 -23.5 -55t-55.5 -23zM279 826q0 -16 10.5 -26.5t25.5 -10.5
q16 0 27 10.5t11 26.5t-11 27.5t-27 11.5q-15 0 -25.5 -11.5t-10.5 -27.5z" />
    <glyph glyph-name="AE" unicode="&#xc6;" horiz-adv-x="928" 
d="M615 303v-193h283v-110h-407v159h-236l-96 -159h-143l409 680h452v-110h-263v-167h222v-100h-221zM491 259v320l-184 -320h184z" />
    <glyph glyph-name="Ccedilla" unicode="&#xc7;" horiz-adv-x="535" 
d="M302 580q-27 0 -51.5 -7.5t-43 -21.5t-29 -34.5t-10.5 -47.5v-258q0 -58 38.5 -84.5t96.5 -26.5q51 0 94.5 14t77.5 44l54 -91q-51 -45 -105.5 -61t-120.5 -16q-55 0 -102.5 14t-82 41.5t-54.5 69t-20 96.5v258q0 52 20.5 93t55.5 69.5t82 43.5t100 15q41 0 72.5 -5.5
t57 -17.5t48 -30t46.5 -42l-68 -84q-32 30 -68.5 49.5t-87.5 19.5zM340 0l-12 -59q9 -3 22.5 -9.5t26 -18t21.5 -28.5t9 -42q0 -42 -37 -72t-97 -50l-37 63q4 2 15 7t22.5 12.5t20.5 17t9 21.5q0 23 -14.5 37t-51.5 22l19 99h84z" />
    <glyph glyph-name="Egrave" unicode="&#xc8;" horiz-adv-x="505" 
d="M189 298v-188h279v-110h-403v680h382v-110h-258v-167h217v-105h-217zM228 938l99 -156l-61 -43l-118 144z" />
    <glyph glyph-name="Eacute" unicode="&#xc9;" horiz-adv-x="505" 
d="M189 298v-188h279v-110h-403v680h382v-110h-258v-167h217v-105h-217zM306 946l78 -56l-118 -143l-63 36z" />
    <glyph glyph-name="Ecircumflex" unicode="&#xca;" horiz-adv-x="505" 
d="M189 298v-188h279v-110h-403v680h382v-110h-258v-167h217v-105h-217zM266 894l130 -97l-45 -55l-85 53l-85 -53l-45 58z" />
    <glyph glyph-name="Edieresis" unicode="&#xcb;" horiz-adv-x="505" 
d="M189 298v-188h279v-110h-403v680h382v-110h-258v-167h217v-105h-217zM220 762h-107v107h107v-107zM420 762h-106v107h106v-107z" />
    <glyph glyph-name="Igrave" unicode="&#xcc;" horiz-adv-x="325" 
d="M100 680h124v-680h-124v680zM126 948l99 -156l-61 -43l-118 144z" />
    <glyph glyph-name="Iacute" unicode="&#xcd;" horiz-adv-x="325" 
d="M103 680h124v-680h-124v680zM205 946l78 -56l-118 -143l-63 36z" />
    <glyph glyph-name="Icircumflex" unicode="&#xce;" horiz-adv-x="325" 
d="M108 680h124v-680h-124v680zM172 895l130 -97l-45 -55l-85 53l-85 -53l-45 58z" />
    <glyph glyph-name="Idieresis" unicode="&#xcf;" horiz-adv-x="325" 
d="M104 680h124v-680h-124v680zM121 760h-107v107h107v-107zM321 760h-106v107h106v-107z" />
    <glyph glyph-name="Eth" unicode="&#xd0;" horiz-adv-x="653" 
d="M18 397h114v303h215q50 0 98.5 -14t86.5 -41t61 -66t23 -89v-270q0 -56 -21.5 -97.5t-58 -68.5t-85.5 -40.5t-105 -13.5h-214v306h-114v91zM492 490q0 24 -13.5 43t-34.5 31.5t-47 19t-50 6.5h-91v-193h141v-91h-142v-197h91q29 0 55.5 6t46.5 19.5t32 34.5t12 51v270z
" />
    <glyph glyph-name="Ntilde" unicode="&#xd1;" horiz-adv-x="688" 
d="M513 680h110v-680h-172l-276 537v-537h-110v680h162l286 -551v551zM274 780q-18 0 -30.5 -13t-19.5 -21l-47 46q20 35 46 53.5t58 18.5q16 0 33 -6t33.5 -12.5t32 -12.5t27.5 -6q24 0 35 11.5t17 21.5l51 -39q-4 -7 -11 -20t-18 -26.5t-26.5 -23.5t-35.5 -10
q-18 0 -35.5 6t-35 13.5t-36 13.5t-38.5 6z" />
    <glyph glyph-name="Ograve" unicode="&#xd2;" horiz-adv-x="640" 
d="M328 690q52 0 100 -15t85 -43.5t59.5 -69t22.5 -92.5v-259q0 -54 -21.5 -95.5t-58 -69.5t-85 -42t-102.5 -14h-15q-55 0 -104 14t-85.5 41.5t-58 69t-21.5 96.5v259q0 53 22 93.5t59 69t85.5 43t101.5 14.5h16v0zM471 469q0 27 -12.5 47.5t-32.5 34.5t-45.5 21.5
t-52.5 7.5h-16q-27 0 -53 -7t-46.5 -21t-32.5 -34.5t-12 -47.5v-259q0 -29 12 -50t32 -34.5t46 -20t55 -6.5h15q28 0 54 6.5t45.5 20.5t31.5 35t12 49v258zM282 948l99 -156l-61 -43l-118 144z" />
    <glyph glyph-name="Oacute" unicode="&#xd3;" horiz-adv-x="640" 
d="M328 690q52 0 100 -15t85 -43.5t59.5 -69t22.5 -92.5v-259q0 -54 -21.5 -95.5t-58 -69.5t-85 -42t-102.5 -14h-15q-55 0 -104 14t-85.5 41.5t-58 69t-21.5 96.5v259q0 53 22 93.5t59 69t85.5 43t101.5 14.5h16v0zM471 469q0 27 -12.5 47.5t-32.5 34.5t-45.5 21.5
t-52.5 7.5h-16q-27 0 -53 -7t-46.5 -21t-32.5 -34.5t-12 -47.5v-259q0 -29 12 -50t32 -34.5t46 -20t55 -6.5h15q28 0 54 6.5t45.5 20.5t31.5 35t12 49v258zM360 946l78 -56l-118 -143l-63 36z" />
    <glyph glyph-name="Ocircumflex" unicode="&#xd4;" horiz-adv-x="640" 
d="M328 690q52 0 100 -15t85 -43.5t59.5 -69t22.5 -92.5v-259q0 -54 -21.5 -95.5t-58 -69.5t-85 -42t-102.5 -14h-15q-55 0 -104 14t-85.5 41.5t-58 69t-21.5 96.5v259q0 53 22 93.5t59 69t85.5 43t101.5 14.5h16v0zM471 469q0 27 -12.5 47.5t-32.5 34.5t-45.5 21.5
t-52.5 7.5h-16q-27 0 -53 -7t-46.5 -21t-32.5 -34.5t-12 -47.5v-259q0 -29 12 -50t32 -34.5t46 -20t55 -6.5h15q28 0 54 6.5t45.5 20.5t31.5 35t12 49v258zM320 904l130 -97l-45 -55l-85 53l-85 -53l-45 58z" />
    <glyph glyph-name="Otilde" unicode="&#xd5;" horiz-adv-x="640" 
d="M328 690q52 0 100 -15t85 -43.5t59.5 -69t22.5 -92.5v-259q0 -54 -21.5 -95.5t-58 -69.5t-85 -42t-102.5 -14h-15q-55 0 -104 14t-85.5 41.5t-58 69t-21.5 96.5v259q0 53 22 93.5t59 69t85.5 43t101.5 14.5h16v0zM471 469q0 27 -12.5 47.5t-32.5 34.5t-45.5 21.5
t-52.5 7.5h-16q-27 0 -53 -7t-46.5 -21t-32.5 -34.5t-12 -47.5v-259q0 -29 12 -50t32 -34.5t46 -20t55 -6.5h15q28 0 54 6.5t45.5 20.5t31.5 35t12 49v258zM250 790q-18 0 -30.5 -13t-19.5 -21l-47 46q20 35 46 53.5t58 18.5q16 0 33 -6t33.5 -12.5t32 -12.5t27.5 -6
q24 0 35 11.5t17 21.5l51 -39q-4 -7 -11 -20t-18 -26.5t-26.5 -23.5t-35.5 -10q-18 0 -35.5 6t-35 13.5t-36 13.5t-38.5 6z" />
    <glyph glyph-name="Odieresis" unicode="&#xd6;" horiz-adv-x="640" 
d="M328 690q52 0 100 -15t85 -43.5t59.5 -69t22.5 -92.5v-259q0 -54 -21.5 -95.5t-58 -69.5t-85 -42t-102.5 -14h-15q-55 0 -104 14t-85.5 41.5t-58 69t-21.5 96.5v259q0 53 22 93.5t59 69t85.5 43t101.5 14.5h16v0zM471 469q0 27 -12.5 47.5t-32.5 34.5t-45.5 21.5
t-52.5 7.5h-16q-27 0 -53 -7t-46.5 -21t-32.5 -34.5t-12 -47.5v-259q0 -29 12 -50t32 -34.5t46 -20t55 -6.5h15q28 0 54 6.5t45.5 20.5t31.5 35t12 49v258zM273 762h-107v107h107v-107zM473 762h-106v107h106v-107z" />
    <glyph glyph-name="multiply" unicode="&#xd7;" horiz-adv-x="586" 
d="M542 490l-194 -242l201 -248h-112l-144 180l-144 -180h-112l202 248l-195 242h105l144 -175l144 175h105z" />
    <glyph glyph-name="Oslash" unicode="&#xd8;" horiz-adv-x="604" 
d="M328 690q59 0 113 -20l46 93h86l-63 -129q38 -29 61.5 -70t23.5 -94v-259q0 -54 -21.5 -95.5t-58 -69.5t-85 -42t-102.5 -14h-15q-30 0 -57.5 4t-53.5 12l-37 -77h-91l55 112q-39 28 -62 70t-23 100v259q0 53 22 93.5t59 69t85.5 43t101.5 14.5h16v0zM168 211
q0 -35 17 -58l206 416q-31 11 -63 11h-16q-27 0 -53 -7t-46.5 -21t-32.5 -34.5t-12 -47.5v-259v0zM471 469q0 29 -16 53l-203 -414q14 -5 29.5 -6.5t31.5 -1.5h15q28 0 54 6.5t45.5 20.5t31.5 35t12 49v258z" />
    <glyph glyph-name="Ugrave" unicode="&#xd9;" horiz-adv-x="670" 
d="M481 680h124v-462q0 -57 -21 -99.5t-57.5 -71t-85.5 -43t-105 -14.5q-57 0 -106.5 14.5t-86 43t-57.5 71t-21 99.5v462h124v-462q0 -30 11.5 -52.5t31 -37t46.5 -21.5t57 -7t56.5 7t46.5 22t31.5 37t11.5 52v462zM297 918l99 -156l-61 -43l-118 144z" />
    <glyph glyph-name="Uacute" unicode="&#xda;" horiz-adv-x="670" 
d="M481 680h124v-462q0 -57 -21 -99.5t-57.5 -71t-85.5 -43t-105 -14.5q-57 0 -106.5 14.5t-86 43t-57.5 71t-21 99.5v462h124v-462q0 -30 11.5 -52.5t31 -37t46.5 -21.5t57 -7t56.5 7t46.5 22t31.5 37t11.5 52v462zM375 916l78 -56l-118 -143l-63 36z" />
    <glyph glyph-name="Ucircumflex" unicode="&#xdb;" horiz-adv-x="670" 
d="M481 680h124v-462q0 -57 -21 -99.5t-57.5 -71t-85.5 -43t-105 -14.5q-57 0 -106.5 14.5t-86 43t-57.5 71t-21 99.5v462h124v-462q0 -30 11.5 -52.5t31 -37t46.5 -21.5t57 -7t56.5 7t46.5 22t31.5 37t11.5 52v462zM335 897l130 -97l-45 -55l-85 53l-85 -53l-45 58z" />
    <glyph glyph-name="Udieresis" unicode="&#xdc;" horiz-adv-x="670" 
d="M481 680h124v-462q0 -57 -21 -99.5t-57.5 -71t-85.5 -43t-105 -14.5q-57 0 -106.5 14.5t-86 43t-57.5 71t-21 99.5v462h124v-462q0 -30 11.5 -52.5t31 -37t46.5 -21.5t57 -7t56.5 7t46.5 22t31.5 37t11.5 52v462zM288 763h-107v107h107v-107zM488 763h-106v107h106v-107z
" />
    <glyph glyph-name="Yacute" unicode="&#xdd;" horiz-adv-x="643" 
d="M254 269l-238 411h142l158 -303l161 303h143l-242 -412v-268h-124v269zM358 917l78 -56l-118 -143l-63 36z" />
    <glyph glyph-name="Thorn" unicode="&#xde;" horiz-adv-x="507" 
d="M270 551q91 0 145.5 -50.5t54.5 -141.5v-18q0 -93 -54 -137.5t-146 -44.5h-109v-159h-124v680h124v-129h109zM346 359q0 35 -24.5 59.5t-59.5 24.5h-101v-175h102q32 0 57.5 19t25.5 54v18z" />
    <glyph glyph-name="agrave" unicode="&#xe0;" horiz-adv-x="496" 
d="M252 500q91 0 142 -44t51 -135v-321h-98l-21 64q-23 -43 -58.5 -57t-82.5 -14q-75 0 -111.5 44.5t-36.5 119.5v102l284 49v13q0 42 -21.5 58t-63.5 16q-15 0 -34.5 -4t-40 -10.5t-38.5 -14.5t-30 -15l-38 81q19 13 43 25.5t50.5 22t53 15t50.5 5.5zM317 226l-156 -27v-36
q0 -30 14.5 -47t44.5 -17q15 0 32 3.5t31.5 11t24 19t9.5 27.5v66zM203 749l99 -156l-61 -43l-118 144z" />
    <glyph glyph-name="aacute" unicode="&#xe1;" horiz-adv-x="496" 
d="M252 500q91 0 142 -44t51 -135v-321h-98l-21 64q-23 -43 -58.5 -57t-82.5 -14q-75 0 -111.5 44.5t-36.5 119.5v102l284 49v13q0 42 -21.5 58t-63.5 16q-15 0 -34.5 -4t-40 -10.5t-38.5 -14.5t-30 -15l-38 81q19 13 43 25.5t50.5 22t53 15t50.5 5.5zM317 226l-156 -27v-36
q0 -30 14.5 -47t44.5 -17q15 0 32 3.5t31.5 11t24 19t9.5 27.5v66zM281 746l78 -56l-118 -143l-63 36z" />
    <glyph glyph-name="acircumflex" unicode="&#xe2;" horiz-adv-x="496" 
d="M252 500q91 0 142 -44t51 -135v-321h-98l-21 64q-23 -43 -58.5 -57t-82.5 -14q-75 0 -111.5 44.5t-36.5 119.5v102l284 49v13q0 42 -21.5 58t-63.5 16q-15 0 -34.5 -4t-40 -10.5t-38.5 -14.5t-30 -15l-38 81q19 13 43 25.5t50.5 22t53 15t50.5 5.5zM317 226l-156 -27v-36
q0 -30 14.5 -47t44.5 -17q15 0 32 3.5t31.5 11t24 19t9.5 27.5v66zM241 716l130 -97l-45 -55l-85 53l-85 -53l-45 58z" />
    <glyph glyph-name="atilde" unicode="&#xe3;" horiz-adv-x="496" 
d="M252 500q91 0 142 -44t51 -135v-321h-98l-21 64q-23 -43 -58.5 -57t-82.5 -14q-75 0 -111.5 44.5t-36.5 119.5v102l284 49v13q0 42 -21.5 58t-63.5 16q-15 0 -34.5 -4t-40 -10.5t-38.5 -14.5t-30 -15l-38 81q19 13 43 25.5t50.5 22t53 15t50.5 5.5zM317 226l-156 -27v-36
q0 -30 14.5 -47t44.5 -17q15 0 32 3.5t31.5 11t24 19t9.5 27.5v66zM171 620q-18 0 -30.5 -13t-19.5 -21l-47 46q20 35 46 53.5t58 18.5q16 0 33 -6t33.5 -12.5t32 -12.5t27.5 -6q24 0 35 11.5t17 21.5l51 -39q-4 -7 -11 -20t-18 -26.5t-26.5 -23.5t-35.5 -10q-18 0 -35.5 6
t-35 13.5t-36 13.5t-38.5 6z" />
    <glyph glyph-name="adieresis" unicode="&#xe4;" horiz-adv-x="496" 
d="M252 500q91 0 142 -44t51 -135v-321h-98l-21 64q-23 -43 -58.5 -57t-82.5 -14q-75 0 -111.5 44.5t-36.5 119.5v102l284 49v13q0 42 -21.5 58t-63.5 16q-15 0 -34.5 -4t-40 -10.5t-38.5 -14.5t-30 -15l-38 81q19 13 43 25.5t50.5 22t53 15t50.5 5.5zM317 226l-156 -27v-36
q0 -30 14.5 -47t44.5 -17q15 0 32 3.5t31.5 11t24 19t9.5 27.5v66zM194 584h-107v107h107v-107zM394 584h-106v107h106v-107z" />
    <glyph glyph-name="aring" unicode="&#xe5;" horiz-adv-x="496" 
d="M252 500q91 0 142 -44t51 -135v-321h-98l-21 64q-23 -43 -58.5 -57t-82.5 -14q-75 0 -111.5 44.5t-36.5 119.5v102l284 49v13q0 42 -21.5 58t-63.5 16q-15 0 -34.5 -4t-40 -10.5t-38.5 -14.5t-30 -15l-38 81q19 13 43 25.5t50.5 22t53 15t50.5 5.5zM317 226l-156 -27v-36
q0 -30 14.5 -47t44.5 -17q15 0 32 3.5t31.5 11t24 19t9.5 27.5v66zM240 557q-16 0 -30 6t-24.5 16.5t-16.5 25t-6 30.5q0 33 22.5 55t54.5 22t55.5 -22t23.5 -55q0 -32 -23.5 -55t-55.5 -23zM204 635q0 -16 10.5 -26.5t25.5 -10.5q16 0 27 10.5t11 26.5t-11 27.5t-27 11.5
q-15 0 -25.5 -11.5t-10.5 -27.5z" />
    <glyph glyph-name="ae" unicode="&#xe6;" horiz-adv-x="792" 
d="M556 96q19 0 40 5.5t40.5 14t36.5 19t28 20.5l54 -80q-91 -83 -207 -83q-70 0 -120.5 22t-76.5 70q-23 -47 -64 -69t-92 -22q-75 0 -116.5 44.5t-41.5 119.5v82l284 49v33q0 42 -21.5 58t-63.5 16q-15 0 -34.5 -4t-40 -10.5t-38.5 -14.5t-30 -15l-38 81q19 13 41.5 25.5
t47 22t49.5 15t49 5.5q54 0 88.5 -17t52.5 -41q26 28 64 43t86 15q41 0 78 -13t65 -37t44.5 -58t16.5 -75v-69l-297 -43v-22q0 -20 10.5 -36t27 -27.5t37.5 -17.5t41 -6zM530 392q-18 0 -34 -5t-28.5 -14.5t-20 -23.5t-7.5 -32v-30l169 24v13q0 36 -21.5 52t-57.5 16z
M322 206l-161 -27v-16q0 -30 14.5 -47t44.5 -17q15 0 33 3.5t33 11t25.5 19t10.5 27.5v46z" />
    <glyph glyph-name="ccedilla" unicode="&#xe7;" horiz-adv-x="464" 
d="M245 390q-37 0 -60.5 -19t-23.5 -55v-142q0 -40 26 -57t66 -17q71 0 130 47l47 -92q-39 -38 -85 -51.5t-99 -13.5q-46 0 -84.5 11.5t-66.5 34t-43 57.5t-15 81v142q0 44 16 78t43.5 57.5t65.5 36t83 12.5q34 0 59.5 -5t47.5 -14t41 -23t39 -32l-62 -87q-27 23 -58.5 37
t-66.5 14zM286 14l-12 -59q9 -3 22.5 -9.5t26 -18t21.5 -28.5t9 -42q0 -42 -37 -72t-97 -50l-37 63q4 2 15 7t22.5 12.5t20.5 17t9 21.5q0 23 -14.5 37t-51.5 22l19 99h84z" />
    <glyph glyph-name="egrave" unicode="&#xe8;" horiz-adv-x="506" 
d="M277 100q19 0 39.5 4t40 11t36.5 17t29 21l54 -88q-45 -42 -96 -58.5t-111 -16.5q-49 0 -91.5 11.5t-74 35.5t-49 60.5t-17.5 85.5v134q0 45 17 79t46 57t69 35t85 12q41 0 78 -12.5t65 -35.5t44.5 -56.5t16.5 -74.5v-83l-297 -43v-12q0 -20 10.5 -35.5t27 -26t37.5 -16
t41 -5.5zM251 392q-18 0 -34 -5t-28.5 -14.5t-20 -23.5t-7.5 -32v-40l169 24v27q0 36 -21.5 50t-57.5 14zM218 738l99 -156l-61 -43l-118 144z" />
    <glyph glyph-name="eacute" unicode="&#xe9;" horiz-adv-x="506" 
d="M277 100q19 0 39.5 4t40 11t36.5 17t29 21l54 -88q-45 -42 -96 -58.5t-111 -16.5q-49 0 -91.5 11.5t-74 35.5t-49 60.5t-17.5 85.5v134q0 45 17 79t46 57t69 35t85 12q41 0 78 -12.5t65 -35.5t44.5 -56.5t16.5 -74.5v-83l-297 -43v-12q0 -20 10.5 -35.5t27 -26t37.5 -16
t41 -5.5zM251 392q-18 0 -34 -5t-28.5 -14.5t-20 -23.5t-7.5 -32v-40l169 24v27q0 36 -21.5 50t-57.5 14zM296 746l78 -56l-118 -143l-63 36z" />
    <glyph glyph-name="ecircumflex" unicode="&#xea;" horiz-adv-x="506" 
d="M277 100q19 0 39.5 4t40 11t36.5 17t29 21l54 -88q-45 -42 -96 -58.5t-111 -16.5q-49 0 -91.5 11.5t-74 35.5t-49 60.5t-17.5 85.5v134q0 45 17 79t46 57t69 35t85 12q41 0 78 -12.5t65 -35.5t44.5 -56.5t16.5 -74.5v-83l-297 -43v-12q0 -20 10.5 -35.5t27 -26t37.5 -16
t41 -5.5zM251 392q-18 0 -34 -5t-28.5 -14.5t-20 -23.5t-7.5 -32v-40l169 24v27q0 36 -21.5 50t-57.5 14zM256 715l130 -97l-45 -55l-85 53l-85 -53l-45 58z" />
    <glyph glyph-name="edieresis" unicode="&#xeb;" horiz-adv-x="506" 
d="M277 100q19 0 39.5 4t40 11t36.5 17t29 21l54 -88q-45 -42 -96 -58.5t-111 -16.5q-49 0 -91.5 11.5t-74 35.5t-49 60.5t-17.5 85.5v134q0 45 17 79t46 57t69 35t85 12q41 0 78 -12.5t65 -35.5t44.5 -56.5t16.5 -74.5v-83l-297 -43v-12q0 -20 10.5 -35.5t27 -26t37.5 -16
t41 -5.5zM251 392q-18 0 -34 -5t-28.5 -14.5t-20 -23.5t-7.5 -32v-40l169 24v27q0 36 -21.5 50t-57.5 14zM210 576h-107v107h107v-107zM410 576h-106v107h106v-107z" />
    <glyph glyph-name="igrave" unicode="&#xec;" horiz-adv-x="260" 
d="M75 490h124v-490h-124v490zM100 748l99 -156l-61 -43l-118 144z" />
    <glyph glyph-name="iacute" unicode="&#xed;" horiz-adv-x="260" 
d="M75 490h124v-490h-124v490zM177 746l78 -56l-118 -143l-63 36z" />
    <glyph glyph-name="icircumflex" unicode="&#xee;" horiz-adv-x="260" 
d="M76 490h124v-490h-124v490zM138 724l130 -97l-45 -55l-85 53l-85 -53l-45 58z" />
    <glyph glyph-name="idieresis" unicode="&#xef;" horiz-adv-x="260" 
d="M69 490h124v-490h-124v490zM86 584h-107v107h107v-107zM286 584h-106v107h106v-107z" />
    <glyph glyph-name="eth" unicode="&#xf0;" 
d="M415 730l37 -71l-102 -45q54 -58 87.5 -126t33.5 -146v-167q0 -43 -17 -77.5t-46.5 -58.5t-69.5 -36.5t-86 -12.5q-44 0 -83 12.5t-68.5 36.5t-46.5 58.5t-17 77.5v100q0 39 11 72.5t32 58t52 38.5t70 14q14 0 31.5 -2.5t35 -7t33.5 -11.5t27 -16q-13 41 -40.5 75.5
t-58.5 63.5l-135 -60l-36 69l97 44q-22 11 -37 17.5t-38 14.5l32 107q48 -14 89.5 -33t82.5 -48zM347 268q0 40 -28.5 60t-68.5 20q-35 0 -62 -19.5t-27 -53.5v-100q0 -18 8 -31.5t20.5 -23.5t29 -15t34.5 -5q17 0 34 5t30.5 14.5t21.5 23t8 31.5v94z" />
    <glyph glyph-name="ntilde" unicode="&#xf1;" horiz-adv-x="544" 
d="M325 500q89 0 128 -47t39 -136v-317h-124v296q0 41 -19 68t-60 27q-20 0 -39.5 -8t-34.5 -21.5t-24 -31t-9 -37.5v-293h-124v490h107l17 -71q28 38 61.5 59.5t81.5 21.5zM206 620q-18 0 -30.5 -13t-19.5 -21l-47 46q20 35 46 53.5t58 18.5q16 0 33 -6t33.5 -12.5
t32 -12.5t27.5 -6q24 0 35 11.5t17 21.5l51 -39q-4 -7 -11 -20t-18 -26.5t-26.5 -23.5t-35.5 -10q-18 0 -35.5 6t-35 13.5t-36 13.5t-38.5 6z" />
    <glyph glyph-name="ograve" unicode="&#xf2;" 
d="M257 500q103 0 159 -48t56 -136v-141q0 -44 -17.5 -78.5t-47 -58t-68.5 -36t-83 -12.5q-45 0 -84.5 12t-69.5 35.5t-47.5 58t-17.5 79.5v141q0 44 16 78t45.5 57.5t70 36t88.5 12.5zM348 316q0 36 -27.5 55t-63.5 19q-19 0 -36 -4.5t-30.5 -14t-21.5 -23.5t-8 -32v-141
q0 -38 28.5 -56.5t66.5 -18.5q37 0 64.5 18.5t27.5 56.5v141zM216 738l99 -156l-61 -43l-118 144z" />
    <glyph glyph-name="oacute" unicode="&#xf3;" 
d="M257 500q103 0 159 -48t56 -136v-141q0 -44 -17.5 -78.5t-47 -58t-68.5 -36t-83 -12.5q-45 0 -84.5 12t-69.5 35.5t-47.5 58t-17.5 79.5v141q0 44 16 78t45.5 57.5t70 36t88.5 12.5zM348 316q0 36 -27.5 55t-63.5 19q-19 0 -36 -4.5t-30.5 -14t-21.5 -23.5t-8 -32v-141
q0 -38 28.5 -56.5t66.5 -18.5q37 0 64.5 18.5t27.5 56.5v141zM294 746l78 -56l-118 -143l-63 36z" />
    <glyph glyph-name="ocircumflex" unicode="&#xf4;" 
d="M257 500q103 0 159 -48t56 -136v-141q0 -44 -17.5 -78.5t-47 -58t-68.5 -36t-83 -12.5q-45 0 -84.5 12t-69.5 35.5t-47.5 58t-17.5 79.5v141q0 44 16 78t45.5 57.5t70 36t88.5 12.5zM348 316q0 36 -27.5 55t-63.5 19q-19 0 -36 -4.5t-30.5 -14t-21.5 -23.5t-8 -32v-141
q0 -38 28.5 -56.5t66.5 -18.5q37 0 64.5 18.5t27.5 56.5v141zM254 715l130 -97l-45 -55l-85 53l-85 -53l-45 58z" />
    <glyph glyph-name="otilde" unicode="&#xf5;" 
d="M257 500q103 0 159 -48t56 -136v-141q0 -44 -17.5 -78.5t-47 -58t-68.5 -36t-83 -12.5q-45 0 -84.5 12t-69.5 35.5t-47.5 58t-17.5 79.5v141q0 44 16 78t45.5 57.5t70 36t88.5 12.5zM348 316q0 36 -27.5 55t-63.5 19q-19 0 -36 -4.5t-30.5 -14t-21.5 -23.5t-8 -32v-141
q0 -38 28.5 -56.5t66.5 -18.5q37 0 64.5 18.5t27.5 56.5v141zM184 601q-18 0 -30.5 -13t-19.5 -21l-47 46q20 35 46 53.5t58 18.5q16 0 33 -6t33.5 -12.5t32 -12.5t27.5 -6q24 0 35 11.5t17 21.5l51 -39q-4 -7 -11 -20t-18 -26.5t-26.5 -23.5t-35.5 -10q-18 0 -35.5 6
t-35 13.5t-36 13.5t-38.5 6z" />
    <glyph glyph-name="odieresis" unicode="&#xf6;" 
d="M257 500q103 0 159 -48t56 -136v-141q0 -44 -17.5 -78.5t-47 -58t-68.5 -36t-83 -12.5q-45 0 -84.5 12t-69.5 35.5t-47.5 58t-17.5 79.5v141q0 44 16 78t45.5 57.5t70 36t88.5 12.5zM348 316q0 36 -27.5 55t-63.5 19q-19 0 -36 -4.5t-30.5 -14t-21.5 -23.5t-8 -32v-141
q0 -38 28.5 -56.5t66.5 -18.5q37 0 64.5 18.5t27.5 56.5v141zM207 574h-107v107h107v-107zM407 574h-106v107h106v-107z" />
    <glyph glyph-name="divide" unicode="&#xf7;" horiz-adv-x="668" 
d="M37 319h594v-92h-594v92zM271 176h136v-130h-136v130zM407 366h-136v130h136v-130z" />
    <glyph glyph-name="oslash" unicode="&#xf8;" horiz-adv-x="492" 
d="M57 -69l55 100q-35 23 -55 59.5t-20 84.5v141q0 44 16 78t45.5 57.5t70 36t88.5 12.5q58 0 103 -17l31 56h69l-47 -86q29 -24 44 -58t15 -79v-141q0 -44 -17.5 -78.5t-47 -58t-68.5 -36t-83 -12.5q-46 0 -87 12l-38 -71h-74zM161 175q0 -22 9 -37l134 242q-23 10 -47 10
q-19 0 -36 -4.5t-30.5 -14t-21.5 -23.5t-8 -32v-141v0zM348 316q0 4 -0.5 7t-1.5 7l-122 -227q15 -3 32 -3q37 0 64.5 18.5t27.5 56.5v141z" />
    <glyph glyph-name="ugrave" unicode="&#xf9;" horiz-adv-x="537" 
d="M362 490h124v-316q0 -45 -17 -79t-46 -57.5t-68.5 -35.5t-83.5 -12q-45 0 -84 12t-68 35.5t-45.5 57.5t-16.5 79v316h124v-316q0 -38 26 -56t64 -18q36 0 63.5 18.5t27.5 55.5v316zM234 738l99 -156l-61 -43l-118 144z" />
    <glyph glyph-name="uacute" unicode="&#xfa;" horiz-adv-x="537" 
d="M362 490h124v-316q0 -45 -17 -79t-46 -57.5t-68.5 -35.5t-83.5 -12q-45 0 -84 12t-68 35.5t-45.5 57.5t-16.5 79v316h124v-316q0 -38 26 -56t64 -18q36 0 63.5 18.5t27.5 55.5v316zM312 736l78 -56l-118 -143l-63 36z" />
    <glyph glyph-name="ucircumflex" unicode="&#xfb;" horiz-adv-x="537" 
d="M362 490h124v-316q0 -45 -17 -79t-46 -57.5t-68.5 -35.5t-83.5 -12q-45 0 -84 12t-68 35.5t-45.5 57.5t-16.5 79v316h124v-316q0 -38 26 -56t64 -18q36 0 63.5 18.5t27.5 55.5v316zM272 724l130 -97l-45 -55l-85 53l-85 -53l-45 58z" />
    <glyph glyph-name="udieresis" unicode="&#xfc;" horiz-adv-x="537" 
d="M362 490h124v-316q0 -45 -17 -79t-46 -57.5t-68.5 -35.5t-83.5 -12q-45 0 -84 12t-68 35.5t-45.5 57.5t-16.5 79v316h124v-316q0 -38 26 -56t64 -18q36 0 63.5 18.5t27.5 55.5v316zM225 593h-107v107h107v-107zM425 593h-106v107h106v-107z" />
    <glyph glyph-name="yacute" unicode="&#xfd;" horiz-adv-x="485" 
d="M184 -10l-169 500h130l100 -359l96 359h129l-185 -555q-14 -42 -38.5 -70.5t-55 -45.5t-66 -24t-71.5 -8l-16 93q14 0 34 4.5t39.5 12.5t35.5 20t23 29zM282 736l78 -56l-118 -143l-63 36z" />
    <glyph glyph-name="thorn" unicode="&#xfe;" horiz-adv-x="536" 
d="M314 500q86 0 135.5 -45t49.5 -131v-152q0 -88 -50.5 -136t-136.5 -48q-39 0 -75 15.5t-55 48.5v-293h-124v990h124v-306q10 14 25.5 24.5t33 17.5t36.5 11t37 4zM375 324q0 17 -8 29.5t-21 20.5t-29.5 12t-33.5 4q-37 0 -65.5 -15.5t-28.5 -50.5v-160q0 -18 8 -31
t21 -20.5t30 -11t35 -3.5t34.5 3.5t29 11.5t20.5 20.5t8 30.5v160z" />
    <glyph glyph-name="ydieresis" unicode="&#xff;" horiz-adv-x="485" 
d="M184 -10l-169 500h130l100 -359l96 359h129l-185 -555q-14 -42 -38.5 -70.5t-55 -45.5t-66 -24t-71.5 -8l-16 93q14 0 34 4.5t39.5 12.5t35.5 20t23 29zM196 593h-107v107h107v-107zM396 593h-106v107h106v-107z" />
    <glyph glyph-name="dotlessi" unicode="&#x131;" horiz-adv-x="261" 
d="M65 490h124v-490h-124v490z" />
    <glyph glyph-name="Lslash" unicode="&#x141;" horiz-adv-x="585" 
d="M273 680v-260l127 57l27 -62l-154 -69v-236h303v-110h-427v290l-113 -50l-27 62l140 62v316h124z" />
    <glyph glyph-name="lslash" unicode="&#x142;" horiz-adv-x="404" 
d="M43 277l-27 62l122 54v337h124v-282l106 47l27 -62l-133 -59v-374h-124v319z" />
    <glyph glyph-name="OE" unicode="&#x152;" horiz-adv-x="893" 
d="M578 296v-186h278v-110h-545q-55 0 -104 17.5t-85 47.5t-57 70.5t-21 86.5v238q0 43 21.5 82.5t58 70t85 49t101.5 18.5h525v-110h-258v-169h217v-105h-216zM168 222q0 -22 11 -42.5t30.5 -36t45.5 -24.5t56 -9h141v460h-142q-28 0 -54 -9.5t-45.5 -25.5t-31 -35.5
t-11.5 -39.5v-238v0z" />
    <glyph glyph-name="oe" unicode="&#x153;" horiz-adv-x="821" 
d="M588 99q16 0 34 4t36 11t34.5 17t28.5 21l63 -75q-43 -38 -96 -59.5t-108 -21.5q-58 0 -107.5 16.5t-81.5 63.5q-12 -24 -30.5 -40t-41 -25.5t-46.5 -13.5t-47 -4q-87 0 -138 48.5t-51 135.5v144q0 86 49.5 131.5t136.5 45.5q21 0 45.5 -2.5t48 -10.5t44 -22t32.5 -37
q30 42 69 58.5t93 16.5q45 0 84 -11t67.5 -33.5t45 -56.5t16.5 -79v-77l-297 -41v-29q0 -19 11 -33.5t28 -23.5t38 -13.5t40 -4.5zM253 102q34 0 62 18t32 53v152q-4 33 -32.5 50.5t-62.5 17.5q-36 0 -63.5 -18.5t-27.5 -53.5v-144q0 -36 28 -55.5t64 -19.5zM564 393
q-35 -2 -62 -19.5t-31 -50.5v-33l172 23l-1 15q0 17 -7 29.5t-18 20.5t-25 11.5t-28 3.5z" />
    <glyph glyph-name="Scaron" unicode="&#x160;" horiz-adv-x="589" 
d="M552 322v-132q0 -51 -20 -88.5t-54 -62t-79 -36t-95 -11.5q-40 0 -79 8.5t-73.5 24.5t-64 39.5t-49.5 53.5l81 77q12 -18 32.5 -34.5t44.5 -29.5t50 -21t49 -8q24 0 48 4.5t43 14.5t30.5 27t11.5 42v59l-345 105v145q0 50 19 86.5t52 59.5t77 34t95 11q72 0 123.5 -23.5
t93.5 -57.5l-62 -93q-12 11 -30 22t-39 20.5t-43.5 15.5t-42.5 6q-23 0 -44.5 -4t-38 -13.5t-26.5 -25t-10 -38.5v-74zM291 700l-121 109l48 51l74 -69l73 68l46 -49z" />
    <glyph glyph-name="scaron" unicode="&#x161;" horiz-adv-x="464" 
d="M430 241v-85q0 -44 -15.5 -75t-43 -50.5t-64.5 -28.5t-80 -9q-57 0 -108 23t-89 64l63 85q12 -12 29 -24.5t36.5 -22.5t39 -16.5t37.5 -6.5q15 0 28.5 2.5t24.5 8.5t17.5 16.5t6.5 26.5v26l-254 74v99q0 40 15 68.5t41.5 47t62 27t75.5 8.5q48 0 94.5 -21.5t82.5 -55.5
l-61 -83q-11 11 -26 20.5t-32 17t-34.5 12t-33.5 4.5q-28 0 -47 -9.5t-19 -35.5v-37zM230 500l-121 109l48 51l74 -69l73 68l46 -49z" />
    <glyph glyph-name="Ydieresis" unicode="&#x178;" horiz-adv-x="643" 
d="M254 269l-238 411h142l158 -303l161 303h143l-242 -412v-268h-124v269zM271 743h-107v107h107v-107zM471 743h-106v107h106v-107z" />
    <glyph glyph-name="Zcaron" unicode="&#x17d;" horiz-adv-x="572" 
d="M535 680v-57l-322 -513h317v-110h-493v60l321 510h-317v110h494zM286 700l-121 109l48 51l74 -69l73 68l46 -49z" />
    <glyph glyph-name="zcaron" unicode="&#x17e;" horiz-adv-x="399" 
d="M352 490v-61l-185 -327h198v-102h-332v73l186 320h-182v97h315zM199 490l-121 109l48 51l74 -69l73 68l46 -49z" />
    <glyph glyph-name="florin" unicode="&#x192;" horiz-adv-x="562" 
d="M405 758q45 0 85 -12.5t63 -38.5l-56 -82q-29 23 -51 30t-41 7q-30 0 -54.5 -20.5t-27.5 -48.5l-11 -100h99l-5 -85h-105q-6 -36 -11.5 -78.5t-10.5 -86.5t-9.5 -86.5t-9.5 -77.5q-6 -44 -29 -73t-57.5 -45.5t-77 -23.5t-87.5 -8v103q25 0 48 3t41 12t30.5 24.5
t15.5 40.5l34 296h-92l5 85h98l9 110q3 36 22 64.5t47.5 48.5t64.5 30.5t73 11.5z" />
    <glyph glyph-name="circumflex" unicode="&#x2c6;" horiz-adv-x="360" 
d="M180 724l130 -97l-45 -55l-85 53l-85 -53l-45 58z" />
    <glyph glyph-name="caron" unicode="&#x2c7;" horiz-adv-x="341" 
d="M171 490l-121 109l48 51l74 -69l73 68l46 -49z" />
    <glyph glyph-name="breve" unicode="&#x2d8;" horiz-adv-x="364" 
d="M182 584q-39 0 -75.5 23.5t-56.5 64.5l65 20q12 -26 27.5 -38.5t39.5 -12.5q23 0 38.5 14t26.5 37l67 -20q-20 -42 -57 -65t-75 -23z" />
    <glyph glyph-name="dotaccent" unicode="&#x2d9;" horiz-adv-x="183" 
d="M50 708h83v-85h-83v85z" />
    <glyph glyph-name="ring" unicode="&#x2da;" horiz-adv-x="209" 
d="M104 557q-16 0 -30 6t-24.5 16.5t-16.5 25t-6 30.5q0 33 22.5 55t54.5 22t55.5 -22t23.5 -55q0 -32 -23.5 -55t-55.5 -23zM68 635q0 -16 10.5 -26.5t25.5 -10.5q16 0 27 10.5t11 26.5t-11 27.5t-27 11.5q-15 0 -25.5 -11.5t-10.5 -27.5z" />
    <glyph glyph-name="ogonek" unicode="&#x2db;" horiz-adv-x="326" 
d="M232 0l20 -99q-34 -8 -57 -28t-28 -42v-9h109v-68h-226v16.5t1 16.5q4 33 18.5 61t31.5 48t33 32.5t24 15.5l-10 56h84z" />
    <glyph glyph-name="tilde" unicode="&#x2dc;" horiz-adv-x="433" 
d="M147 620q-18 0 -30.5 -13t-19.5 -21l-47 46q20 35 46 53.5t58 18.5q16 0 33 -6t33.5 -12.5t32 -12.5t27.5 -6q24 0 35 11.5t17 21.5l51 -39q-4 -7 -11 -20t-18 -26.5t-26.5 -23.5t-35.5 -10q-18 0 -35.5 6t-35 13.5t-36 13.5t-38.5 6z" />
    <glyph glyph-name="hungarumlaut" unicode="&#x2dd;" horiz-adv-x="568" 
d="M305 690l-206 -166l-49 59l204 173zM518 680l-206 -166l-49 59l204 173z" />
    <glyph glyph-name="endash" unicode="&#x2013;" horiz-adv-x="590" 
d="M0 344h586v-92h-586v92z" />
    <glyph glyph-name="emdash" unicode="&#x2014;" horiz-adv-x="798" 
d="M1 344h795v-92h-795v92z" />
    <glyph glyph-name="quoteleft" unicode="&#x2018;" horiz-adv-x="162" 
d="M30 450v27q0 44 6.5 78.5t17 61.5t23.5 45.5t25 28.5l60 -37q-11 -21 -19.5 -57.5t-8.5 -82.5v-64h-104z" />
    <glyph glyph-name="quoteright" unicode="&#x2019;" horiz-adv-x="172" 
d="M143 671v-27q0 -47 -10 -82.5t-24.5 -61t-31 -43t-28.5 -27.5l-52 40q7 10 14.5 22.5t13.5 28.5t10 37t4 49v64h104z" />
    <glyph glyph-name="quotesinglbase" unicode="&#x201a;" horiz-adv-x="235" 
d="M205 99v-27q0 -47 -10 -82.5t-24.5 -61t-31 -43t-28.5 -27.5l-52 40q7 10 14.5 22.5t13.5 28.5t10 37t4 49v64h104z" />
    <glyph glyph-name="quotedblleft" unicode="&#x201c;" horiz-adv-x="335" 
d="M193 450v27q0 44 6.5 78.5t17 61.5t23.5 45.5t25 28.5l60 -37q-11 -21 -19.5 -57.5t-8.5 -82.5v-64h-104zM30 450v27q0 44 6.5 78.5t17 61.5t23.5 45.5t25 28.5l60 -37q-11 -21 -19.5 -57.5t-8.5 -82.5v-64h-104z" />
    <glyph glyph-name="quotedblright" unicode="&#x201d;" horiz-adv-x="333" 
d="M143 681v-27q0 -47 -10 -82.5t-24.5 -61t-31 -43t-28.5 -27.5l-52 40q7 10 14.5 22.5t13.5 28.5t10 37t4 49v64h104zM303 681v-27q0 -47 -10 -82.5t-24.5 -61t-31 -43t-28.5 -27.5l-52 40q7 10 14.5 22.5t13.5 28.5t10 37t4 49v64h104z" />
    <glyph glyph-name="quotedblbase" unicode="&#x201e;" horiz-adv-x="425" 
d="M205 100v-27q0 -47 -10 -82.5t-24.5 -61t-31 -43t-28.5 -27.5l-52 40q7 10 14.5 22.5t13.5 28.5t10 37t4 49v64h104zM367 101v-27q0 -47 -10 -82.5t-24.5 -61t-31 -43t-28.5 -27.5l-52 40q7 10 14.5 22.5t13.5 28.5t10 37t4 49v64h104z" />
    <glyph glyph-name="dagger" unicode="&#x2020;" horiz-adv-x="478" 
d="M310 490h129v-100h-129v-379h-124v379h-145v100h145v190h124v-190z" />
    <glyph glyph-name="daggerdbl" unicode="&#x2021;" horiz-adv-x="545" 
d="M337 490h178v-100h-178v-290h178v-100h-178v-185h-125v185h-182v100h182v290h-182v100h182v190h125v-190z" />
    <glyph glyph-name="bullet" unicode="&#x2022;" horiz-adv-x="327" 
d="M58 375h211v-210h-211v210z" />
    <glyph glyph-name="ellipsis" unicode="&#x2026;" horiz-adv-x="805" 
d="M332 135h141v-135h-141v135zM606 135h141v-135h-141v135zM58 135h141v-135h-141v135z" />
    <glyph glyph-name="perthousand" unicode="&#x2030;" horiz-adv-x="1057" 
d="M531 700h97l-432 -700h-103zM336 517q0 -28 -11.5 -50.5t-31 -37.5t-45 -23t-53.5 -8q-29 0 -55.5 7.5t-46 22.5t-31 37.5t-11.5 51.5v68q0 29 11.5 51t31 37t46 22.5t55.5 7.5q28 0 53.5 -8t45 -23t31 -37t11.5 -50v-68zM532 301q27 0 52.5 -7.5t45.5 -22t32.5 -35
t12.5 -47.5v-74q0 -62 -40.5 -90.5t-102.5 -28.5q-27 0 -53 7.5t-46 21.5t-32 35.5t-12 48.5v73q0 29 11.5 51t31 37t45.5 23t55 8zM150 524q0 -23 11 -30t34 -7q20 0 32 7.5t12 27.5v55q0 20 -12 28.5t-32 8.5t-32.5 -9.5t-12.5 -29.5v-51zM576 175q0 20 -12 28.5t-32 8.5
q-43 0 -43 -40v-50q0 -37 43 -37q16 0 30 8.5t14 25.5v56zM864 301q27 0 52.5 -7.5t45.5 -22t32 -35t12 -47.5v-76q0 -29 -11.5 -51t-31 -36.5t-45 -22t-54.5 -7.5t-55 6.5t-45.5 20t-31 35t-11.5 50.5v74q0 29 11.5 51t31 37t45.5 23t55 8zM908 173q0 20 -12 29.5t-32 9.5
q-17 0 -30.5 -7.5t-13.5 -23.5v-61q0 -18 13 -26.5t31 -8.5q16 0 30 8.5t14 25.5v54z" />
    <glyph glyph-name="guilsinglleft" unicode="&#x2039;" horiz-adv-x="275" 
d="M186 0l-159 175l159 181l52 -42l-91 -138l90 -130z" />
    <glyph glyph-name="guilsinglright" unicode="&#x203a;" horiz-adv-x="275" 
d="M128 176l-91 138l52 42l159 -181l-159 -175l-51 46z" />
    <glyph glyph-name="fraction" unicode="&#x2044;" horiz-adv-x="586" 
d="M3 0l482 680h100l-475 -680h-107z" />
    <glyph glyph-name="foursuperior" unicode="&#x2074;" horiz-adv-x="421" 
d="M327 475h68v-75h-68v-78h-93v78h-194v51l158 229h129v-205zM234 605h-9l-77 -130h86v130z" />
    <glyph glyph-name="Euro" unicode="&#x20ac;" horiz-adv-x="672" 
d="M390 580q-51 0 -77.5 -25.5t-26.5 -74.5v-39h228v-70h-228v-57h228v-71h-227v-42q0 -22 9.5 -40.5t25.5 -32t36 -21t42 -7.5q45 0 86 15t72 40l54 -88q-47 -40 -99.5 -58.5t-112.5 -18.5q-51 0 -94.5 13.5t-76 39.5t-51 64.5t-18.5 89.5v46h-137v71h137v57h-137v70h137
v70q0 44 19.5 77t51.5 56t73.5 34.5t85.5 11.5q63 0 117.5 -17.5t104.5 -57.5l-50 -89q-15 12 -37 21.5t-45.5 17t-47 11.5t-42.5 4z" />
    <glyph glyph-name="trademark" unicode="&#x2122;" horiz-adv-x="536" 
d="M319 700l50 -84l50 84h60v-210h-57v118l-44 -75h-18l-43 75v-118h-57v210h59zM28 700h190v-51h-67v-162h-57v162h-66v51z" />
    <glyph glyph-name="onethird" unicode="&#x2153;" horiz-adv-x="752" 
d="M121 575h-98v105h199v-336h-101v231zM22 0l482 680h100l-475 -680h-107zM684 258q0 -13 -6 -25.5t-15.5 -22t-21 -17t-23.5 -10.5q24 -8 46.5 -28t22.5 -45v-15q0 -31 -12 -51t-33 -31.5t-48.5 -15.5t-58.5 -4q-48 0 -90 17t-65 59l60 46q14 -22 39 -33.5t52 -11.5
q10 0 21 1.5t20 5t15 9t6 13.5v11q0 10 -5.5 17t-14 11.5t-19 7t-20.5 2.5h-67v71h64q8 0 18 1.5t18.5 5t14.5 9.5t6 15v9q0 17 -17 23.5t-34 6.5q-29 0 -54 -9t-40 -24l-48 53q11 14 27 25t35 18t39 10.5t39 3.5q32 0 59 -3.5t47 -14.5t31.5 -30t11.5 -51v-9z" />
    <glyph glyph-name="twothirds" unicode="&#x2154;" horiz-adv-x="827" 
d="M124 0l482 680h100l-475 -680h-107zM773 267q0 -13 -6 -25.5t-15.5 -22t-21 -17t-23.5 -10.5q24 -8 46.5 -28t22.5 -45v-15q0 -31 -12 -51t-33 -31.5t-48.5 -15.5t-58.5 -4q-48 0 -90 17t-65 59l60 46q14 -22 39 -33.5t52 -11.5q10 0 21 1.5t20 5t15 9t6 13.5v11
q0 10 -5.5 17t-14 11.5t-19 7t-20.5 2.5h-67v71h64q8 0 18 1.5t18.5 5t14.5 9.5t6 15v9q0 17 -17 23.5t-34 6.5q-29 0 -54 -9t-40 -24l-48 53q11 14 27 25t35 18t39 10.5t39 3.5q32 0 59 -3.5t47 -14.5t31.5 -30t11.5 -51v-9zM216 698q62 0 99 -22.5t37 -79.5
q0 -39 -19.5 -57.5t-51.5 -32.5q-15 -7 -31 -12.5t-29.5 -11.5t-22.5 -13.5t-12 -19.5h165v-81h-278v51q0 50 28 79t84 52q10 4 22.5 8.5t23 9.5t18 12t7.5 15q0 17 -14.5 19.5t-31.5 2.5q-32 0 -52 -11t-38 -25l-44 65q17 17 52 34.5t88 17.5z" />
    <glyph glyph-name="minus" unicode="&#x2212;" horiz-adv-x="526" 
d="M489 397v-110h-452v110h452z" />
    <glyph glyph-name="asteriskmath" unicode="&#x2217;" horiz-adv-x="484" 
d="M395 457l21 -68l-119 -39l73 -98l-59 -43l-73 99l-77 -100l-58 42l76 100l-118 40l21 68l119 -41v122h73v-123z" />
    <glyph glyph-name="notequal" unicode="&#x2260;" horiz-adv-x="614" 
d="M432 442h145v-93h-191l-57 -114h248v-92h-293l-63 -127l-73 32l47 95h-158v92h203l57 114h-260v93h306l64 128l71 -35z" />
    <glyph glyph-name="lessequal" unicode="&#x2264;" horiz-adv-x="624" 
d="M573 113l-536 211l536 204v-100l-296 -106l296 -113v-96zM60 85h513v-85h-513v85z" />
    <glyph glyph-name="greaterequal" unicode="&#x2265;" horiz-adv-x="602" 
d="M544 0h-507v85h507v-85zM560 327l-523 -210v94l291 113l-291 110v98z" />
    <glyph glyph-name="Scaronsmall" unicode="&#xf6fd;" horiz-adv-x="521" 
d="M482 261v-98q0 -40 -17.5 -71.5t-47.5 -53.5t-70 -33.5t-86 -11.5q-37 0 -70 8t-61 21.5t-50.5 31t-37.5 36.5l82 78q24 -25 59.5 -47t72.5 -22q19 0 37 3t32.5 9.5t23 17.5t8.5 27v38l-290 95v100q0 52 21.5 83.5t54 48.5t70.5 22.5t71 5.5q29 0 57.5 -6t54 -17.5
t47 -27t34.5 -35.5l-80 -72q-23 26 -56 37.5t-59 11.5q-9 0 -24.5 -1t-30.5 -6t-26 -15.5t-11 -28.5v-31zM261 540l-121 109l48 51l74 -69l73 68l46 -49z" />
    <glyph glyph-name="Zcaronsmall" unicode="&#xf6ff;" horiz-adv-x="539" 
d="M492 110v-110h-440l-5 73l264 358h-247v109h425v-73l-264 -357h267zM270 540l-121 109l48 51l74 -69l73 68l46 -49z" />
    <glyph glyph-name="zerooldstyle" unicode="&#xf730;" horiz-adv-x="533" 
d="M266 500q51 0 93.5 -15.5t72.5 -44t47 -69.5t17 -92v-74q0 -51 -17 -90.5t-48 -67.5t-73 -42.5t-92 -14.5t-92 15t-72.5 42.5t-47.5 67.5t-17 90v74q0 51 16.5 91.5t47 69t72.5 44t93 16.5zM372 279q0 53 -26.5 82t-79.5 29q-54 0 -79.5 -29.5t-25.5 -81.5v-74
q0 -51 27 -78.5t78 -27.5t78.5 26.5t27.5 79.5v74z" />
    <glyph glyph-name="oneoldstyle" unicode="&#xf731;" horiz-adv-x="466" 
d="M55 92h131v300h-118v91l242 15v-406h122v-92h-377v92z" />
    <glyph glyph-name="twooldstyle" unicode="&#xf732;" horiz-adv-x="518" 
d="M348 203q-27 -12 -55.5 -22.5t-52.5 -21t-39 -22.5t-15 -27h288v-110h-412v68q0 27 7.5 56t24 55.5t43 49t65.5 37.5q17 6 41.5 13t47 16.5t39 22.5t16.5 31q0 22 -13.5 32t-52.5 10q-22 0 -44 -7.5t-41 -19.5t-35 -26.5t-28 -27.5l-70 92q18 18 40 35.5t49 32t59.5 23
t71.5 8.5q90 0 139 -33t49 -110q0 -32 -7.5 -55.5t-23 -41t-38.5 -31t-53 -27.5z" />
    <glyph glyph-name="threeoldstyle" unicode="&#xf733;" horiz-adv-x="493" 
d="M415 289q0 -18 -7 -36.5t-19 -34.5t-27 -28.5t-32 -18.5q49 -8 80.5 -44.5t31.5 -91.5v-17q0 -63 -29.5 -108t-80 -74t-118.5 -43t-145 -14l-17 98q49 0 96.5 6.5t85 22.5t61 43t23.5 68v18q0 20 -10 33.5t-26 22.5t-35.5 14t-38.5 6h-57v106h51q16 0 32 4t28.5 12
t20.5 20t8 29v42q0 35 -26.5 50.5t-61.5 15.5q-31 0 -65.5 -10.5t-59.5 -24.5l-48 84q37 30 84 45.5t97 15.5q44 0 81.5 -11t64.5 -33t42.5 -55t15.5 -77v-35z" />
    <glyph glyph-name="fouroldstyle" unicode="&#xf734;" horiz-adv-x="583" 
d="M456 105h107v-105h-107v-219h-123v219h-293v63l221 427h195v-385zM333 395h-13l-134 -290h147v290z" />
    <glyph glyph-name="fiveoldstyle" unicode="&#xf735;" horiz-adv-x="531" 
d="M247 265q52 0 94.5 -13t72.5 -38.5t46 -64.5t16 -91v-22q0 -68 -35.5 -116t-91 -78.5t-124.5 -45t-137 -14.5l-20 101q43 0 93 8t92.5 26t71 47t28.5 72v22q0 47 -29.5 73t-76.5 26h-187l36 333h343v-109h-230l-13 -116h51v0z" />
    <glyph glyph-name="sixoldstyle" unicode="&#xf736;" horiz-adv-x="561" 
d="M311 459q90 0 144.5 -42t54.5 -132v-111q0 -44 -19 -78.5t-51 -58t-72.5 -35.5t-84.5 -12t-84.5 12.5t-72 36t-50 57.5t-18.5 78v341q0 41 16.5 73t46.5 54.5t71.5 34t90.5 11.5q57 0 100.5 -16t86.5 -54l-63 -82q-26 23 -58 33.5t-66 10.5q-18 0 -36 -4t-32.5 -12
t-23.5 -20t-9 -29v-116q48 60 129 60zM386 268q0 21 -8.5 35.5t-22.5 23.5t-32.5 13t-39.5 4q-19 0 -37 -5t-32.5 -14.5t-23 -24t-8.5 -32.5v-94q0 -19 9 -33t23 -23.5t32 -14t37 -4.5t37.5 4.5t33 14t23.5 23.5t9 33v94z" />
    <glyph glyph-name="sevenoldstyle" unicode="&#xf737;" horiz-adv-x="511" 
d="M15 490h474l-250 -711h-134l226 603h-316v108z" />
    <glyph glyph-name="eightoldstyle" unicode="&#xf738;" horiz-adv-x="568" 
d="M497 471q0 -17 -8.5 -36t-21.5 -35.5t-29 -29t-31 -16.5q17 -3 35 -15t33 -29t25 -37.5t10 -41.5v-65q0 -45 -19 -78t-50.5 -54.5t-72.5 -32.5t-85 -11q-45 0 -85.5 11t-71.5 32.5t-49.5 54.5t-18.5 78v65q0 18 9 38.5t23.5 38.5t32.5 30.5t37 15.5q-21 6 -37.5 19.5
t-28.5 31.5t-18 39.5t-6 43.5v27q0 42 17.5 75t46.5 55t67.5 33.5t81.5 11.5q42 0 81 -11.5t68.5 -33.5t47 -55t17.5 -75v-44v0zM385 231q0 15 -8 27.5t-20.5 20.5t-28 12.5t-30.5 4.5h-22q-18 0 -34.5 -4t-30 -12t-21.5 -20t-8 -29v-61q0 -20 8 -33.5t22 -21.5t32.5 -11.5
t38.5 -3.5q18 0 36.5 3.5t33 11t23.5 20t9 31.5v65zM194 471q0 -34 23.5 -49t57.5 -17h13q16 0 31 4t27 12.5t19.5 21t7.5 28.5v44q0 17 -7.5 29t-20.5 20t-29 12t-33 4t-33 -4t-28.5 -12t-20 -20t-7.5 -29v-44v0z" />
    <glyph glyph-name="nineoldstyle" unicode="&#xf739;" horiz-adv-x="561" 
d="M276 500q44 0 84.5 -12.5t72.5 -35.5t51 -57t19 -78v-260q0 -67 -30 -119t-79.5 -88t-112.5 -54.5t-130 -18.5l-16 96q42 0 85 10.5t78 31t57.5 51.5t22.5 73v26q-10 -13 -25.5 -23t-32.5 -17t-35 -10t-34 -3q-44 0 -81 12.5t-63.5 36t-41 58t-14.5 78.5v120
q0 43 18.5 77t50 57.5t72 36t84.5 12.5zM378 317q0 19 -9 33t-23.5 23.5t-32.5 14t-37 4.5t-37 -5t-32.5 -14.5t-23 -23.5t-8.5 -32v-120q0 -19 8.5 -33t23 -23.5t32.5 -14t37 -4.5t37 4.5t32.5 14t23.5 23.5t9 33v120z" />
    <glyph glyph-name="Asmall" unicode="&#xf761;" horiz-adv-x="591" 
d="M367 540l205 -540h-138l-42 104h-195l-42 -104h-136l206 540h142zM366 200l-70 223l-70 -223h140z" />
    <glyph glyph-name="Bsmall" unicode="&#xf762;" horiz-adv-x="518" 
d="M459 380q0 -14 -5.5 -31t-15 -31.5t-21.5 -25.5t-25 -13q18 -4 33.5 -15.5t27 -27.5t18.5 -34.5t7 -36.5v-25q0 -36 -13.5 -62.5t-37 -43.5t-55 -25.5t-67.5 -8.5h-237v540h217q79 0 126.5 -35t47.5 -107v-18zM354 171q0 24 -15.5 40t-39.5 16h-107v-121h94q29 0 48.5 11
t19.5 42v12zM192 313h87q23 0 39 14.5t16 38.5v17q0 20 -14 35.5t-34 15.5h-94v-121z" />
    <glyph glyph-name="Csmall" unicode="&#xf763;" horiz-adv-x="528" 
d="M271 441q-22 0 -41.5 -8.5t-34 -22.5t-23 -33.5t-8.5 -40.5v-130q0 -22 9.5 -41t26 -33t37.5 -21.5t43 -7.5q35 0 73.5 13.5t67.5 40.5l55 -85q-45 -41 -91 -60t-105 -19q-47 0 -90.5 15.5t-76.5 43.5t-53 67.5t-20 86.5v130q0 45 19 84.5t50.5 68t73.5 45t88 16.5
q63 0 114.5 -22t92.5 -70l-69 -78q-12 13 -28.5 24t-35 19.5t-38 13t-36.5 4.5z" />
    <glyph glyph-name="Dsmall" unicode="&#xf764;" horiz-adv-x="544" 
d="M264 540q47 0 90 -14.5t76.5 -41t53.5 -64t20 -84.5v-133q0 -48 -19.5 -86t-52.5 -64t-76.5 -39.5t-91.5 -13.5h-196v540h196zM379 336q0 21 -10 38.5t-26 30t-37 19t-42 6.5h-72v-320h72q23 0 43.5 6t36.5 17.5t25.5 29t9.5 40.5v133z" />
    <glyph glyph-name="Esmall" unicode="&#xf765;" horiz-adv-x="472" 
d="M192 227v-117h240v-110h-363v540h343v-110h-220v-103h185v-100h-185z" />
    <glyph glyph-name="Fsmall" unicode="&#xf766;" horiz-adv-x="439" 
d="M413 430h-221v-111h185v-100h-185v-219h-124v540h345v-110z" />
    <glyph glyph-name="Gsmall" unicode="&#xf767;" horiz-adv-x="548" 
d="M278 302h216v-231q-54 -40 -106 -59.5t-117 -19.5q-48 0 -90 15.5t-73.5 43.5t-49.5 67.5t-18 87.5v131q0 45 20 84t53.5 67.5t76.5 45t89 16.5q60 0 110 -18.5t92 -62.5l-71 -79q-23 27 -59.5 39t-71.5 12q-21 0 -42 -8.5t-37 -22.5t-26 -33t-10 -40v-131
q0 -45 31 -74.5t76 -29.5q27 0 51 5t49 19v92h-93v84z" />
    <glyph glyph-name="Hsmall" unicode="&#xf768;" horiz-adv-x="608" 
d="M416 540h124v-540h-124v223h-224v-223h-124v540h124v-207h224v207z" />
    <glyph glyph-name="Ismall" unicode="&#xf769;" horiz-adv-x="273" 
d="M75 540h123v-540h-123v540z" />
    <glyph glyph-name="Jsmall" unicode="&#xf76a;" horiz-adv-x="455" 
d="M263 540h124v-391q0 -37 -13.5 -66.5t-37.5 -49.5t-56 -31t-68 -11q-91 0 -142 42.5t-51 125.5l117 18q5 -32 19.5 -55t46.5 -23q23 0 42 12.5t19 37.5v391z" />
    <glyph glyph-name="Ksmall" unicode="&#xf76b;" horiz-adv-x="565" 
d="M192 317l189 223h164l-223 -245l238 -295h-170l-160 217l-38 -34v-183h-124v540h124v-223z" />
    <glyph glyph-name="Lsmall" unicode="&#xf76c;" horiz-adv-x="456" 
d="M192 540v-430h259v-110h-382v540h123z" />
    <glyph glyph-name="Msmall" unicode="&#xf76d;" horiz-adv-x="687" 
d="M204 540l139 -244l139 244h137v-540h-125v351l-135 -233h-34l-133 233v-351h-124v540h136z" />
    <glyph glyph-name="Nsmall" unicode="&#xf76e;" horiz-adv-x="627" 
d="M444 540h115v-540h-158l-219 377v-377h-114v540h152l224 -377v377z" />
    <glyph glyph-name="Osmall" unicode="&#xf76f;" horiz-adv-x="587" 
d="M301 550q45 0 88 -16.5t76.5 -45t54 -67.5t20.5 -84v-134q0 -47 -20 -86.5t-53 -67.5t-76.5 -43.5t-90.5 -15.5h-12q-47 0 -90.5 15.5t-77 43.5t-53.5 67.5t-20 86.5v134q0 45 20.5 84t54 67.5t76.5 45t89 16.5h14v0zM417 337q0 21 -10.5 39.5t-27 33t-37 23t-41.5 8.5
h-14q-21 0 -42 -8.5t-37.5 -22.5t-26.5 -33t-10 -40v-134q0 -22 10 -41t26 -33t37.5 -21.5t43.5 -7.5h12q22 0 43 7.5t37.5 21.5t26.5 33t10 41v134z" />
    <glyph glyph-name="Psmall" unicode="&#xf770;" horiz-adv-x="498" 
d="M68 540h214q36 0 68.5 -12.5t56.5 -35t38 -53.5t14 -67v-22q0 -37 -14 -66.5t-38 -50t-56.5 -31.5t-69.5 -11h-89v-191h-124v540zM334 376q0 24 -14 39.5t-38 15.5h-90v-140h90q23 0 37.5 15.5t14.5 39.5v30z" />
    <glyph glyph-name="Qsmall" unicode="&#xf771;" horiz-adv-x="616" 
d="M492 49q10 -7 18 -12t21 -5h52v-85h-50q-39 0 -72 8.5t-58 37.5l-13 18q-21 -8 -45.5 -11t-44.5 -3h-13q-48 0 -91.5 15.5t-76.5 43.5t-52.5 67t-19.5 87v135q0 45 20 83t53.5 65t77 42t89.5 15h13q44 0 86.5 -13.5t76 -38.5t54 -60.5t20.5 -79.5v-157q0 -38 -11.5 -74.5
t-47.5 -65.5zM298 96q8 1 15 0.5t15 1.5l-61 91l80 52l63 -100q3 3 6 10.5t4.5 16.5t2.5 17.5t1 14.5v151q0 21 -11.5 37.5t-29.5 28t-40 17.5t-43 6h-13q-22 0 -42.5 -7t-37 -19.5t-26.5 -30t-10 -38.5v-135q0 -22 9.5 -42.5t26 -36.5t37.5 -25t43 -9z" />
    <glyph glyph-name="Rsmall" unicode="&#xf772;" horiz-adv-x="573" 
d="M487 347q0 -51 -28 -85t-73 -53l133 -209h-140l-125 192h-62v-192h-124v540h249q36 0 67.5 -12t54 -33.5t35.5 -52t13 -66.5v-29v0zM192 285h108q23 0 43.5 13t20.5 37v37q0 24 -20 41.5t-44 17.5h-108v-146z" />
    <glyph glyph-name="Ssmall" unicode="&#xf773;" horiz-adv-x="521" 
d="M282 326q33 -8 68 -15.5t64.5 -24t48 -45t18.5 -78.5q0 -40 -17.5 -71.5t-47.5 -53.5t-70 -33.5t-86 -11.5q-37 0 -70 8t-61 21.5t-50.5 31t-37.5 36.5l82 78q24 -25 59.5 -47t72.5 -22q19 0 37 3t32.5 9.5t23 17.5t8.5 27q0 29 -22.5 41t-73.5 21q-34 6 -70 16.5
t-65 29.5t-47.5 49t-18.5 76q0 52 21.5 83.5t54 48.5t70.5 22.5t71 5.5q29 0 57.5 -6t54 -17.5t47 -27t34.5 -35.5l-80 -72q-23 26 -56 37.5t-59 11.5q-9 0 -24.5 -1t-30.5 -6t-26 -15.5t-11 -28.5q0 -27 26.5 -39.5t73.5 -23.5z" />
    <glyph glyph-name="Tsmall" unicode="&#xf774;" horiz-adv-x="493" 
d="M12 540h469v-110h-174v-430h-124v430h-171v110z" />
    <glyph glyph-name="Usmall" unicode="&#xf775;" horiz-adv-x="617" 
d="M426 541h123v-338q0 -50 -19 -89.5t-51 -67t-75.5 -42t-93.5 -14.5q-51 0 -95 14.5t-76.5 41.5t-51.5 66.5t-19 90.5v338h124v-338q0 -24 9.5 -43t25.5 -32.5t37.5 -21t45.5 -7.5q23 0 44 7.5t37 21t25.5 32.5t9.5 43v338z" />
    <glyph glyph-name="Vsmall" unicode="&#xf776;" horiz-adv-x="594" 
d="M153 540l144 -398l146 398h132l-215 -540h-130l-211 540h134z" />
    <glyph glyph-name="Wsmall" unicode="&#xf777;" horiz-adv-x="765" 
d="M443 540l93 -345l82 345h128l-141 -540h-128l-94 384l-97 -384h-128l-139 540h129l82 -344l94 344h119z" />
    <glyph glyph-name="Xsmall" unicode="&#xf778;" horiz-adv-x="672" 
d="M201 539l137 -178l141 178h151l-216 -263l218 -276h-152l-143 180l-146 -180h-151l223 275l-213 264h151z" />
    <glyph glyph-name="Ysmall" unicode="&#xf779;" horiz-adv-x="581" 
d="M167 539l118 -202l123 202h147l-208 -319v-220h-123v220l-205 319h148z" />
    <glyph glyph-name="Zsmall" unicode="&#xf77a;" horiz-adv-x="539" 
d="M492 110v-110h-440l-5 73l264 358h-247v109h425v-73l-264 -357h267z" />
    <glyph glyph-name="Agravesmall" unicode="&#xf7e0;" horiz-adv-x="591" 
d="M367 540l205 -540h-138l-42 104h-195l-42 -104h-136l206 540h142zM366 200l-70 223l-70 -223h140zM257 788l99 -156l-61 -43l-118 144z" />
    <glyph glyph-name="Aacutesmall" unicode="&#xf7e1;" horiz-adv-x="591" 
d="M367 540l205 -540h-138l-42 104h-195l-42 -104h-136l206 540h142zM366 200l-70 223l-70 -223h140zM335 786l78 -56l-118 -143l-63 36z" />
    <glyph glyph-name="Acircumflexsmall" unicode="&#xf7e2;" horiz-adv-x="591" 
d="M367 540l205 -540h-138l-42 104h-195l-42 -104h-136l206 540h142zM366 200l-70 223l-70 -223h140zM295 764l130 -97l-45 -55l-85 53l-85 -53l-45 58z" />
    <glyph glyph-name="Atildesmall" unicode="&#xf7e3;" horiz-adv-x="591" 
d="M367 540l205 -540h-138l-42 104h-195l-42 -104h-136l206 540h142zM366 200l-70 223l-70 -223h140zM226 660q-18 0 -30.5 -13t-19.5 -21l-47 46q20 35 46 53.5t58 18.5q16 0 33 -6t33.5 -12.5t32 -12.5t27.5 -6q24 0 35 11.5t17 21.5l51 -39q-4 -7 -11 -20t-18 -26.5
t-26.5 -23.5t-35.5 -10q-18 0 -35.5 6t-35 13.5t-36 13.5t-38.5 6z" />
    <glyph glyph-name="Adieresissmall" unicode="&#xf7e4;" horiz-adv-x="591" 
d="M367 540l205 -540h-138l-42 104h-195l-42 -104h-136l206 540h142zM366 200l-70 223l-70 -223h140zM249 633h-107v107h107v-107zM449 633h-106v107h106v-107z" />
    <glyph glyph-name="Aringsmall" unicode="&#xf7e5;" horiz-adv-x="591" 
d="M367 540l205 -540h-138l-42 104h-195l-42 -104h-136l206 540h142zM366 200l-70 223l-70 -223h140zM294 597q-16 0 -30 6t-24.5 16.5t-16.5 25t-6 30.5q0 33 22.5 55t54.5 22t55.5 -22t23.5 -55q0 -32 -23.5 -55t-55.5 -23zM258 675q0 -16 10.5 -26.5t25.5 -10.5
q16 0 27 10.5t11 26.5t-11 27.5t-27 11.5q-15 0 -25.5 -11.5t-10.5 -27.5z" />
    <glyph glyph-name="Ccedillasmall" unicode="&#xf7e7;" horiz-adv-x="528" 
d="M271 441q-22 0 -41.5 -8.5t-34 -22.5t-23 -33.5t-8.5 -40.5v-130q0 -22 9.5 -41t26 -33t37.5 -21.5t43 -7.5q35 0 73.5 13.5t67.5 40.5l55 -85q-45 -41 -91 -60t-105 -19q-47 0 -90.5 15.5t-76.5 43.5t-53 67.5t-20 86.5v130q0 45 19 84.5t50.5 68t73.5 45t88 16.5
q63 0 114.5 -22t92.5 -70l-69 -78q-12 13 -28.5 24t-35 19.5t-38 13t-36.5 4.5zM325 0l-12 -59q9 -3 22.5 -9.5t26 -18t21.5 -28.5t9 -42q0 -42 -37 -72t-97 -50l-37 63q4 2 15 7t22.5 12.5t20.5 17t9 21.5q0 23 -14.5 37t-51.5 22l19 99h84z" />
    <glyph glyph-name="Egravesmall" unicode="&#xf7e8;" horiz-adv-x="472" 
d="M192 227v-117h240v-110h-363v540h343v-110h-220v-103h185v-100h-185zM212 788l99 -156l-61 -43l-118 144z" />
    <glyph glyph-name="Eacutesmall" unicode="&#xf7e9;" horiz-adv-x="472" 
d="M192 227v-117h240v-110h-363v540h343v-110h-220v-103h185v-100h-185zM290 786l78 -56l-118 -143l-63 36z" />
    <glyph glyph-name="Ecircumflexsmall" unicode="&#xf7ea;" horiz-adv-x="472" 
d="M192 227v-117h240v-110h-363v540h343v-110h-220v-103h185v-100h-185zM250 764l130 -97l-45 -55l-85 53l-85 -53l-45 58z" />
    <glyph glyph-name="Edieresissmall" unicode="&#xf7eb;" horiz-adv-x="472" 
d="M192 227v-117h240v-110h-363v540h343v-110h-220v-103h185v-100h-185zM204 633h-107v107h107v-107zM404 633h-106v107h106v-107z" />
    <glyph glyph-name="Igravesmall" unicode="&#xf7ec;" horiz-adv-x="273" 
d="M75 540h123v-540h-123v540zM100 788l99 -156l-61 -43l-118 144z" />
    <glyph glyph-name="Iacutesmall" unicode="&#xf7ed;" horiz-adv-x="273" 
d="M75 540h123v-540h-123v540zM176 786l78 -56l-118 -143l-63 36z" />
    <glyph glyph-name="Icircumflexsmall" unicode="&#xf7ee;" horiz-adv-x="273" 
d="M75 540h123v-540h-123v540zM138 764l130 -97l-45 -55l-85 53l-85 -53l-45 58z" />
    <glyph glyph-name="Idieresissmall" unicode="&#xf7ef;" horiz-adv-x="273" 
d="M75 540h123v-540h-123v540zM91 633h-107v107h107v-107zM291 633h-106v107h106v-107z" />
    <glyph glyph-name="Ntildesmall" unicode="&#xf7f1;" horiz-adv-x="627" 
d="M444 540h115v-540h-158l-219 377v-377h-114v540h152l224 -377v377zM244 660q-18 0 -30.5 -13t-19.5 -21l-47 46q20 35 46 53.5t58 18.5q16 0 33 -6t33.5 -12.5t32 -12.5t27.5 -6q24 0 35 11.5t17 21.5l51 -39q-4 -7 -11 -20t-18 -26.5t-26.5 -23.5t-35.5 -10
q-18 0 -35.5 6t-35 13.5t-36 13.5t-38.5 6z" />
    <glyph glyph-name="Ogravesmall" unicode="&#xf7f2;" horiz-adv-x="587" 
d="M301 550q45 0 88 -16.5t76.5 -45t54 -67.5t20.5 -84v-134q0 -47 -20 -86.5t-53 -67.5t-76.5 -43.5t-90.5 -15.5h-12q-47 0 -90.5 15.5t-77 43.5t-53.5 67.5t-20 86.5v134q0 45 20.5 84t54 67.5t76.5 45t89 16.5h14v0zM417 337q0 21 -10.5 39.5t-27 33t-37 23t-41.5 8.5
h-14q-21 0 -42 -8.5t-37.5 -22.5t-26.5 -33t-10 -40v-134q0 -22 10 -41t26 -33t37.5 -21.5t43.5 -7.5h12q22 0 43 7.5t37.5 21.5t26.5 33t10 41v134zM255 788l99 -156l-61 -43l-118 144z" />
    <glyph glyph-name="Oacutesmall" unicode="&#xf7f3;" horiz-adv-x="587" 
d="M301 550q45 0 88 -16.5t76.5 -45t54 -67.5t20.5 -84v-134q0 -47 -20 -86.5t-53 -67.5t-76.5 -43.5t-90.5 -15.5h-12q-47 0 -90.5 15.5t-77 43.5t-53.5 67.5t-20 86.5v134q0 45 20.5 84t54 67.5t76.5 45t89 16.5h14v0zM417 337q0 21 -10.5 39.5t-27 33t-37 23t-41.5 8.5
h-14q-21 0 -42 -8.5t-37.5 -22.5t-26.5 -33t-10 -40v-134q0 -22 10 -41t26 -33t37.5 -21.5t43.5 -7.5h12q22 0 43 7.5t37.5 21.5t26.5 33t10 41v134zM333 786l78 -56l-118 -143l-63 36z" />
    <glyph glyph-name="Ocircumflexsmall" unicode="&#xf7f4;" horiz-adv-x="587" 
d="M301 550q45 0 88 -16.5t76.5 -45t54 -67.5t20.5 -84v-134q0 -47 -20 -86.5t-53 -67.5t-76.5 -43.5t-90.5 -15.5h-12q-47 0 -90.5 15.5t-77 43.5t-53.5 67.5t-20 86.5v134q0 45 20.5 84t54 67.5t76.5 45t89 16.5h14v0zM417 337q0 21 -10.5 39.5t-27 33t-37 23t-41.5 8.5
h-14q-21 0 -42 -8.5t-37.5 -22.5t-26.5 -33t-10 -40v-134q0 -22 10 -41t26 -33t37.5 -21.5t43.5 -7.5h12q22 0 43 7.5t37.5 21.5t26.5 33t10 41v134zM293 764l130 -97l-45 -55l-85 53l-85 -53l-45 58z" />
    <glyph glyph-name="Otildesmall" unicode="&#xf7f5;" horiz-adv-x="587" 
d="M301 550q45 0 88 -16.5t76.5 -45t54 -67.5t20.5 -84v-134q0 -47 -20 -86.5t-53 -67.5t-76.5 -43.5t-90.5 -15.5h-12q-47 0 -90.5 15.5t-77 43.5t-53.5 67.5t-20 86.5v134q0 45 20.5 84t54 67.5t76.5 45t89 16.5h14v0zM417 337q0 21 -10.5 39.5t-27 33t-37 23t-41.5 8.5
h-14q-21 0 -42 -8.5t-37.5 -22.5t-26.5 -33t-10 -40v-134q0 -22 10 -41t26 -33t37.5 -21.5t43.5 -7.5h12q22 0 43 7.5t37.5 21.5t26.5 33t10 41v134zM224 660q-18 0 -30.5 -13t-19.5 -21l-47 46q20 35 46 53.5t58 18.5q16 0 33 -6t33.5 -12.5t32 -12.5t27.5 -6q24 0 35 11.5
t17 21.5l51 -39q-4 -7 -11 -20t-18 -26.5t-26.5 -23.5t-35.5 -10q-18 0 -35.5 6t-35 13.5t-36 13.5t-38.5 6z" />
    <glyph glyph-name="Odieresissmall" unicode="&#xf7f6;" horiz-adv-x="587" 
d="M301 550q45 0 88 -16.5t76.5 -45t54 -67.5t20.5 -84v-134q0 -47 -20 -86.5t-53 -67.5t-76.5 -43.5t-90.5 -15.5h-12q-47 0 -90.5 15.5t-77 43.5t-53.5 67.5t-20 86.5v134q0 45 20.5 84t54 67.5t76.5 45t89 16.5h14v0zM417 337q0 21 -10.5 39.5t-27 33t-37 23t-41.5 8.5
h-14q-21 0 -42 -8.5t-37.5 -22.5t-26.5 -33t-10 -40v-134q0 -22 10 -41t26 -33t37.5 -21.5t43.5 -7.5h12q22 0 43 7.5t37.5 21.5t26.5 33t10 41v134zM247 633h-107v107h107v-107zM447 633h-106v107h106v-107z" />
    <glyph glyph-name="Ugravesmall" unicode="&#xf7f9;" horiz-adv-x="617" 
d="M426 541h123v-338q0 -50 -19 -89.5t-51 -67t-75.5 -42t-93.5 -14.5q-51 0 -95 14.5t-76.5 41.5t-51.5 66.5t-19 90.5v338h124v-338q0 -24 9.5 -43t25.5 -32.5t37.5 -21t45.5 -7.5q23 0 44 7.5t37 21t25.5 32.5t9.5 43v338zM270 778l99 -156l-61 -43l-118 144z" />
    <glyph glyph-name="Uacutesmall" unicode="&#xf7fa;" horiz-adv-x="617" 
d="M426 541h123v-338q0 -50 -19 -89.5t-51 -67t-75.5 -42t-93.5 -14.5q-51 0 -95 14.5t-76.5 41.5t-51.5 66.5t-19 90.5v338h124v-338q0 -24 9.5 -43t25.5 -32.5t37.5 -21t45.5 -7.5q23 0 44 7.5t37 21t25.5 32.5t9.5 43v338zM348 776l78 -56l-118 -143l-63 36z" />
    <glyph glyph-name="Ucircumflexsmall" unicode="&#xf7fb;" horiz-adv-x="617" 
d="M426 541h123v-338q0 -50 -19 -89.5t-51 -67t-75.5 -42t-93.5 -14.5q-51 0 -95 14.5t-76.5 41.5t-51.5 66.5t-19 90.5v338h124v-338q0 -24 9.5 -43t25.5 -32.5t37.5 -21t45.5 -7.5q23 0 44 7.5t37 21t25.5 32.5t9.5 43v338zM308 764l130 -97l-45 -55l-85 53l-85 -53
l-45 58z" />
    <glyph glyph-name="Udieresissmall" unicode="&#xf7fc;" horiz-adv-x="617" 
d="M426 541h123v-338q0 -50 -19 -89.5t-51 -67t-75.5 -42t-93.5 -14.5q-51 0 -95 14.5t-76.5 41.5t-51.5 66.5t-19 90.5v338h124v-338q0 -24 9.5 -43t25.5 -32.5t37.5 -21t45.5 -7.5q23 0 44 7.5t37 21t25.5 32.5t9.5 43v338zM262 633h-107v107h107v-107zM462 633h-106v107
h106v-107z" />
    <glyph glyph-name="Yacutesmall" unicode="&#xf7fd;" horiz-adv-x="581" 
d="M167 539l118 -202l123 202h147l-208 -319v-220h-123v220l-205 319h148zM327 776l78 -56l-118 -143l-63 36z" />
    <glyph glyph-name="Ydieresissmall" unicode="&#xf7ff;" horiz-adv-x="581" 
d="M167 539l118 -202l123 202h147l-208 -319v-220h-123v220l-205 319h148zM240 633h-107v107h107v-107zM440 633h-106v107h106v-107z" />
    <glyph glyph-name="ffi" unicode="&#xfb03;" horiz-adv-x="923" 
d="M282 736q42 0 98 -15.5t106 -47.5q33 37 70 51.5t91 14.5q23 0 54 -5t63.5 -12.5t62 -16.5t49.5 -16l-35 -103q-7 2 -29 8.5t-50.5 13t-61.5 12t-63 5.5q-31 0 -50 -15t-19 -38v-82h93v-86h-95v-404h-123v404h-90v86h90v54q0 10 -0.5 17.5t-0.5 16.5q-13 7 -31.5 15
t-39.5 15.5t-44 12.5t-45 5q-35 0 -53 -16t-18 -38v-82h92v-86h-92v-404h-123v404h-90v86h90v75q0 38 15.5 69.5t42 54t62 35t74.5 12.5zM738 490h124v-490h-124v490z" />
    <glyph glyph-name="ffl" unicode="&#xfb04;" horiz-adv-x="924" 
d="M282 736q40 0 92 -12t104 -46q26 27 63 42.5t81 15.5q26 0 55 -5.5t55.5 -13.5t49 -17t35.5 -15h46v-685h-123v610q-20 8 -53 15.5t-65 7.5q-28 0 -47.5 -18.5t-19.5 -40.5v-84h102v-87h-103v-403h-120v403h-91v87h93v84q0 8 0.5 11t2.5 11q-33 9 -74 19.5t-83 10.5
q-35 0 -53 -16t-18 -38v-82h92v-86h-92v-404h-123v404h-90v86h90v75q0 38 15.5 69.5t42 54t62 35t74.5 12.5z" />
    <glyph glyph-name="glyph57" horiz-adv-x="676" 
d="M533 47q19 -23 47 -29.5t63 -6.5v-90q-35 0 -64 2.5t-53.5 10t-46.5 21.5t-43 38l-14 16q-29 -8 -54.5 -10.5t-54.5 -2.5q-53 0 -101.5 15t-86 43t-59.5 69t-22 94v253q0 52 23.5 93t62.5 69t89 43t102 15q55 0 105 -13.5t87.5 -41t59.5 -69t22 -96.5v-253
q0 -20 -5.5 -43t-16 -44t-24.5 -38.5t-31 -26.5zM313 106h21.5t22.5 2l-62 77l81 67l72 -92q15 14 19 24.5t4 32.5v253q0 32 -11.5 53t-31.5 34t-47.5 18t-59.5 5q-28 0 -55 -7t-49 -20.5t-35.5 -34.5t-13.5 -48v-254q0 -28 12 -49t32.5 -34.5t46.5 -20t54 -6.5z" />
    <glyph glyph-name="Q.alt" horiz-adv-x="642" 
d="M371 -56l234 -45l-16 -104l-329 61v131q-109 13 -166 69t-57 167v256q0 51 22 90.5t58.5 66t84.5 40.5t100 14h16q50 0 98.5 -14.5t87 -41.5t62 -66t23.5 -89v-256q0 -50 -16 -90.5t-44.5 -71t-69 -49.5t-88.5 -25v-43zM161 223q0 -25 9 -48t25 -40t38 -27.5t47 -10.5h48
q27 0 51.5 9.5t43.5 26t30 39.5t11 51v246q0 24 -12.5 44t-33 35t-47 23.5t-53.5 8.5h-16q-27 0 -52.5 -9t-45 -24t-31.5 -35t-12 -43v-246v0z" />
    <glyph glyph-name="y.alt" 
d="M256 212l103 278h133l-279 -717l-116 40l91 229l-172 448h137z" />
    <glyph glyph-name="k.alt" horiz-adv-x="539" 
d="M175 710v-401l231 216l76 -87l-200 -169q43 -13 81 -45t67.5 -72t48.5 -81t23 -71h-136q-9 24 -23 50q-12 22 -30 47.5t-44 47.5q-13 11 -23.5 18.5t-20.5 13t-22 9.5t-28 9v-195h-117v710h117z" />
    <glyph glyph-name="g.alt" horiz-adv-x="542" 
d="M166 307q0 -27 27 -44t63 -17t62 17t26 44v29q0 26 -26 43.5t-62 17.5t-63 -17.5t-27 -43.5v-29v0zM131 11q-9 3 -21.5 10t-23.5 18.5t-18.5 28.5t-7.5 39q0 29 10 48t35 39q-27 25 -42 56t-15 69v15q0 37 16 67.5t43.5 52.5t65.5 34t83 12q33 0 57.5 -4.5t47.5 -17.5
l123 47l31 -80l-87 -27q11 -14 23 -33.5t12 -48.5v-27q0 -36 -15.5 -66.5t-44 -52t-68.5 -34t-89 -12.5q-28 0 -47 3t-20 4q-11 -8 -13 -15.5t-2 -13.5q0 -12 15 -18.5t25 -10.5l271 -88v-97q0 -37 -15 -65t-40.5 -47t-59.5 -28.5t-73 -9.5h-63q-35 0 -67.5 9.5t-58 28.5
t-41 47t-16.5 65q0 11 2.5 24.5t10.5 27.5l107 -20q-2 -5 -1.5 -10.5t-1.5 -10.5q0 -36 25.5 -47.5t74.5 -11.5h29q32 0 47 15t17 37v26z" />
    <glyph glyph-name="e.alt" horiz-adv-x="506" 
d="M271 101q16 0 35.5 3.5t39 10t37.5 15.5t30 21l52 -84q-40 -36 -92 -54.5t-104 -18.5q-46 0 -88 11.5t-74 34.5t-51 57.5t-19 80.5v147q0 41 18.5 73.5t48.5 55t69 34.5t81 12q41 0 78 -12t65 -34.5t44.5 -55t16.5 -73.5v-104h-297v-43q0 -20 9.5 -34.5t25 -24t35.5 -14
t40 -4.5zM254 390q-15 0 -31.5 -3.5t-29.5 -11t-22 -18t-9 -25.5v-28h174v29q0 14 -7.5 24.5t-19.5 18t-26.5 11t-28.5 3.5z" />
    <glyph glyph-name="germandbls.alt" horiz-adv-x="665" 
d="M221 0h-118v382h-70v108h70v60q0 100 53 143t154 43q51 0 93 -12t72.5 -36.5t47 -62t16.5 -88.5l-74 -135q71 -21 106.5 -70t35.5 -122v-61q0 -45 -15 -77t-41.5 -51.5t-63.5 -28.5t-82 -9q-32 0 -69.5 9t-64.5 23l51 101q7 -4 17.5 -9t22 -9.5t23 -7t20.5 -2.5
q15 0 29 4t25.5 12t18.5 20t7 27v61q0 33 -16.5 55t-43 36.5t-59.5 21t-66 7.5l112 215q0 19 -8 33.5t-21.5 24.5t-31 15.5t-36.5 5.5q-43 0 -68.5 -17t-25.5 -59v-550z" />
    <glyph glyph-name="germandbls.alt2" horiz-adv-x="599" 
d="M183 0h-118v550q0 100 54 143t155 43q51 0 94.5 -15t75 -43.5t49.5 -69.5t18 -92q-12 -13 -29 -30t-33.5 -36t-28 -38.5t-11.5 -36.5q0 -18 8 -29.5t20 -20.5t27.5 -16.5t30.5 -17.5q38 -25 56 -57t18 -77q0 -91 -51 -131t-141 -40q-16 0 -35.5 2t-39 5.5t-37.5 9
t-32 12.5l49 106q17 -13 44.5 -21t50.5 -8q15 0 29 4t25.5 11.5t18.5 19.5t7 27q0 17 -8 29t-20 21.5t-27 17.5t-29 16q-22 13 -39 26t-28 29t-17 36t-6 46q0 24 8.5 46.5t22.5 43t32.5 38.5t37.5 34q0 19 -9 35t-23.5 28t-32.5 19t-37 7q-43 0 -71 -17t-28 -59v-550z" />
    <glyph glyph-name="zero.small" horiz-adv-x="595" 
d="M297 550q51 0 94.5 -15t76 -43.5t51 -69t18.5 -91.5v-126q0 -51 -19 -90.5t-51.5 -67.5t-76 -42.5t-93.5 -14.5t-93.5 15t-76 42.5t-51 67.5t-18.5 90v126q0 51 18 91.5t50.5 69t76 43.5t94.5 15zM413 331q0 53 -31.5 82t-84.5 29q-54 0 -84.5 -29.5t-30.5 -81.5v-126
q0 -51 32 -78.5t83 -27.5t83.5 26.5t32.5 79.5v126z" />
    <glyph glyph-name="one.small" horiz-adv-x="391" 
d="M195 429h-158v110h282v-539h-124v429z" />
    <glyph glyph-name="two.small" horiz-adv-x="546" 
d="M358 220q-27 -13 -54.5 -25t-49 -25t-35.5 -27.5t-14 -32.5h297v-110h-430v68q0 33 8.5 65t27 60.5t48.5 53.5t74 45q17 8 38.5 15.5t41 18.5t33 26.5t13.5 37.5q0 25 -13.5 37.5t-52.5 12.5q-22 0 -45.5 -8.5t-44.5 -21.5t-38.5 -28t-29.5 -28l-70 92q18 19 41.5 37.5
t52.5 33.5t63 24t73 9q90 0 139 -36.5t49 -122.5q0 -34 -7.5 -59.5t-23 -45.5t-38.5 -35.5t-53 -30.5z" />
    <glyph glyph-name="three.small" horiz-adv-x="542" 
d="M473 386q0 -18 -7 -35.5t-18.5 -32.5t-26.5 -27t-31 -18q17 -7 33.5 -19.5t29 -28t20 -34t7.5 -36.5v-15q0 -44 -16.5 -73t-45 -46t-66.5 -23.5t-82 -6.5q-35 0 -68 8.5t-61.5 24.5t-50 39.5t-32.5 52.5l93 52q7 -14 19 -27t27 -23t31.5 -16t32.5 -6t33 2t30.5 7.5
t22.5 16t9 27.5v15q0 15 -8.5 26t-21.5 18t-29 10t-31 3h-77v104h71q16 0 32 2.5t28.5 8.5t20.5 16.5t8 26.5v10q0 32 -23.5 43.5t-55.5 11.5q-35 0 -60.5 -19t-42.5 -46l-84 58q27 52 78 82t118 30q42 0 78 -7.5t61.5 -25t40 -46.5t14.5 -71v-13z" />
    <glyph glyph-name="four.small" horiz-adv-x="575" 
d="M437 232h97v-108h-97v-124h-123v124h-259v63l182 353h200v-308zM314 424h-23l-85 -192h108v192z" />
    <glyph glyph-name="five.small" horiz-adv-x="571" 
d="M304 356q44 0 81 -8t64 -26.5t42 -49t15 -74.5v-38q0 -45 -16.5 -77.5t-45 -53.5t-67.5 -31t-83 -10q-84 0 -141 38t-73 119l111 32q11 -43 35 -64t68 -21q39 0 64 14t25 54v28q0 20 -8 31.5t-22 18t-31.5 8.5t-37.5 2h-179l32 292h329v-109h-221l-4 -75h63v0z" />
    <glyph glyph-name="six.small" horiz-adv-x="552" 
d="M315 366q84 0 131.5 -40.5t47.5 -124.5v-35q0 -44 -16 -77.5t-44 -56t-65.5 -33.5t-81.5 -11t-83 11.5t-68.5 34t-46.5 55.5t-17 77v203q0 41 16.5 75t44.5 58t65 37.5t79 13.5q57 0 100.5 -16t87.5 -54l-73 -82q-23 21 -48.5 32.5t-56.5 11.5q-18 0 -34 -5.5t-29 -15.5
t-20.5 -24t-7.5 -31v-54q21 20 54 35.5t65 15.5zM370 184q0 34 -24.5 53t-58.5 19q-38 0 -64.5 -17.5t-26.5 -54.5v-18q0 -17 8 -30t20.5 -21.5t29 -13t33.5 -4.5q34 0 58.5 17t24.5 52v18z" />
    <glyph glyph-name="seven.small" horiz-adv-x="455" 
d="M19 540h413l-212 -540h-134l168 432h-235v108z" />
    <glyph glyph-name="eight.small" horiz-adv-x="542" 
d="M464 388q0 -16 -8.5 -32.5t-22 -31t-29 -25t-30.5 -16.5q20 -5 38.5 -16t33 -26t23 -33.5t8.5 -39.5v-34q0 -43 -16.5 -71.5t-45 -45.5t-66 -23.5t-80.5 -6.5t-80.5 7t-65 23.5t-43 45t-15.5 71.5v29q0 20 8 40t22 36.5t32.5 27.5t39.5 14q-36 14 -63 39.5t-27 63.5v28
q0 41 14.5 69t40 45t60.5 24.5t77 7.5q41 0 77 -7.5t62 -24.5t41 -45t15 -69v-24v0zM352 163q0 38 -21.5 53t-59.5 15t-60 -15.5t-22 -52.5v-21q0 -35 23.5 -47t58.5 -12t58 11t23 48v21zM201 382q0 -32 19 -44.5t51 -12.5q33 0 51 11.5t18 45.5v14q0 33 -18 45.5t-51 12.5
q-34 0 -52 -13t-18 -45v-14v0z" />
    <glyph glyph-name="nine.small" horiz-adv-x="555" 
d="M273 557q44 0 83 -11.5t69 -33.5t47.5 -55t17.5 -77v-207q0 -44 -17.5 -78.5t-47.5 -58t-69 -36t-83 -12.5q-25 0 -52 3.5t-53 11.5t-49.5 20.5t-40.5 29.5l60 86q11 -9 27.5 -17.5t34.5 -15t36.5 -10.5t33.5 -4q18 0 35.5 5.5t30.5 16t21 25.5t8 34v48
q-21 -27 -47.5 -35t-58.5 -8q-44 0 -81 11t-63.5 32.5t-41.5 54.5t-15 77v27q0 43 17 76t46.5 55.5t68.5 34t83 11.5zM365 379q0 38 -27 53.5t-65 15.5t-64.5 -16t-26.5 -53v-30q0 -38 26.5 -51.5t64.5 -13.5t65 13.5t27 51.5v30z" />
    <glyph glyph-name="h.alt" horiz-adv-x="554" 
d="M482 493v-493h-124v385h-60q-21 0 -41.5 -9t-37.5 -23t-27.5 -31.5t-10.5 -34.5v-287h-123v710h123v-306q7 13 20 29t31.5 29.5t41.5 22.5t50 9z" />
    <glyph glyph-name="n.alt" horiz-adv-x="555" 
d="M483 490v-490h-125v379h-59q-21 0 -41.5 -9t-37.5 -23t-27.5 -31.5t-10.5 -34.5v-281h-124v490h107l17 -83q10 14 23 28.5t30.5 26.5t39.5 19.5t50 8.5h158z" />
    <glyph glyph-name="E.alt" horiz-adv-x="561" 
d="M192 480q0 -17 7.5 -31t20 -23.5t28.5 -15t33 -5.5h51v-106h-57q-20 -2 -38 -6.5t-32 -13t-22 -21.5t-8 -33v-50q0 -17 8.5 -31t22.5 -23.5t31 -15t34 -5.5h58q18 0 36 4.5t34 13.5t28.5 22t18.5 31l103 -39q-27 -74 -84 -108t-135 -34h-58q-45 0 -85 12t-70 35.5t-48 58
t-18 79.5v53q0 19 8.5 38t23 35.5t32.5 30t36 20.5q-15 6 -30 19t-27 29.5t-19 35t-7 34.5v44q0 44 16.5 77t45.5 55t68 33t84 11h17q69 0 125 -31.5t82 -95.5l-94 -49q-17 31 -48.5 48.5t-65.5 17.5h-17q-17 0 -33 -4.5t-28.5 -12.5t-20 -20.5t-7.5 -28.5v-34z" />
    <glyph glyph-name="a.alt" horiz-adv-x="496" 
d="M269 512q88 0 132 -45.5t44 -133.5v-333h-89l-21 84q-22 -44 -65.5 -67.5t-91.5 -23.5q-72 0 -106.5 35t-34.5 107v25q0 46 27 74.5t68.5 45t92 22.5t96.5 6v25q0 40 -14 57t-54 17q-15 0 -34.5 -2.5t-39 -7t-37.5 -11t-29 -13.5l-39 87q18 12 42.5 22t50.5 16.5t52.5 10
t49.5 3.5zM317 237q-24 -1 -51.5 -4t-50.5 -11.5t-38.5 -23t-15.5 -38.5v-19q0 -29 15 -35.5t44 -6.5q15 0 32 7t31.5 18.5t24 26t9.5 29.5v57z" />
    <glyph glyph-name="Ssmall.alt" horiz-adv-x="521" 
d="M490 261v-98q0 -40 -17.5 -71.5t-47.5 -53.5t-70 -33.5t-86 -11.5q-37 0 -70 8t-61 21.5t-50.5 31t-37.5 36.5l82 78q24 -25 59.5 -47t72.5 -22q19 0 37 3t32.5 9.5t23 17.5t8.5 27v38l-290 95v100q0 52 21.5 83.5t54 48.5t70.5 22.5t71 5.5q29 0 57.5 -6t54 -17.5
t47 -27t34.5 -35.5l-80 -72q-23 26 -56 37.5t-59 11.5q-9 0 -24.5 -1t-30.5 -6t-26 -15.5t-11 -28.5v-31z" />
    <glyph glyph-name="s.alt" horiz-adv-x="460" 
d="M420 241v-85q0 -44 -15.5 -75t-43 -50.5t-64.5 -28.5t-80 -9q-57 0 -108 23t-89 64l63 85q12 -12 29 -24.5t36.5 -22.5t39 -16.5t37.5 -6.5q15 0 28.5 2.5t24.5 8.5t17.5 16.5t6.5 26.5v26l-254 74v99q0 40 15 68.5t41.5 47t62 27t75.5 8.5q48 0 94.5 -21.5t82.5 -55.5
l-61 -83q-11 11 -26 20.5t-32 17t-34.5 12t-33.5 4.5q-28 0 -47 -9.5t-19 -35.5v-37z" />
    <glyph glyph-name="S.alt" horiz-adv-x="581" 
d="M537 322v-132q0 -51 -20 -88.5t-54 -62t-79 -36t-95 -11.5q-40 0 -79 8.5t-73.5 24.5t-64 39.5t-49.5 53.5l81 77q12 -18 32.5 -34.5t44.5 -29.5t50 -21t49 -8q24 0 48 4.5t43 14.5t30.5 27t11.5 42v59l-345 105v145q0 50 19 86.5t52 59.5t77 34t95 11q72 0 123.5 -23.5
t93.5 -57.5l-62 -93q-12 11 -30 22t-39 20.5t-43.5 15.5t-42.5 6q-23 0 -44.5 -4t-38 -13.5t-26.5 -25t-10 -38.5v-74z" />
    <glyph glyph-name="ft" horiz-adv-x="725" 
d="M583 102q16 0 35 3t36 8q20 5 40 11l26 -87q-1 -1 -17 -7t-38 -13.5t-46 -13.5t-42 -6q-28 0 -55 4.5t-47 17.5t-32.5 38t-12.5 65v283h-84v85h84v118q-44 17 -81.5 28t-66.5 11q-28 0 -49.5 -16.5t-21.5 -38.5v-102h85v-86h-85v-404h-123v404h-90v86h90v94
q0 38 15.5 68.5t42 52.5t62 33.5t74.5 11.5t84.5 -9t85.5 -20t68 -21t34 -12v-198h118v-85h-118v-267q0 -4 1 -10t4 -12t8.5 -10t15.5 -4z" />
    <glyph glyph-name="glyph330" horiz-adv-x="604" 
d="M74 -71l413 834h86l-408 -834h-91zM328 690q52 0 100 -15t85 -43.5t59.5 -69t22.5 -92.5v-259q0 -54 -21.5 -95.5t-58 -69.5t-85 -42t-102.5 -14h-15q-55 0 -104 14t-85.5 41.5t-58 69t-21.5 96.5v259q0 53 22 93.5t59 69t85.5 43t101.5 14.5h16v0zM471 469
q0 27 -12.5 47.5t-32.5 34.5t-45.5 21.5t-52.5 7.5h-16q-27 0 -53 -7t-46.5 -21t-32.5 -34.5t-12 -47.5v-259q0 -29 12 -50t32 -34.5t46 -20t55 -6.5h15q28 0 54 6.5t45.5 20.5t31.5 35t12 49v258z" />
    <glyph glyph-name="glyph331" horiz-adv-x="492" 
d="M257 500q103 0 159 -48t56 -136v-141q0 -44 -17.5 -78.5t-47 -58t-68.5 -36t-83 -12.5q-45 0 -84.5 12t-69.5 35.5t-47.5 58t-17.5 79.5v141q0 44 16 78t45.5 57.5t70 36t88.5 12.5zM348 316q0 36 -27.5 55t-63.5 19q-19 0 -36 -4.5t-30.5 -14t-21.5 -23.5t-8 -32v-141
q0 -38 28.5 -56.5t66.5 -18.5q37 0 64.5 18.5t27.5 56.5v141zM57 -69l334 608h69l-329 -608h-74z" />
    <glyph glyph-name="glyph333" horiz-adv-x="792" 
d="M242 500q45 0 76.5 -11.5t51 -29.5t28 -40t8.5 -43l-48 -277q-22 -54 -64.5 -80t-98.5 -26q-75 0 -116.5 44.5t-41.5 119.5v82l284 49v33q0 42 -21.5 58t-63.5 16q-15 0 -34.5 -4t-40 -10.5t-38.5 -14.5t-30 -15l-38 81q19 13 41.5 25.5t47 22t49.5 15t49 5.5zM322 206
l-161 -27v-16q0 -30 14.5 -47t44.5 -17q15 0 33 3.5t33 11t25.5 19t10.5 27.5v46zM556 96q19 0 40 5.5t40.5 14t36.5 19t28 20.5l54 -80q-91 -83 -207 -83q-99 0 -159 46t-60 145l7 124q0 90 53 141.5t144 51.5q41 0 78 -13t65 -37t44.5 -58t16.5 -75v-69l-297 -43v-22
q0 -20 10.5 -36t27 -27.5t37.5 -17.5t41 -6zM530 392q-18 0 -34 -5t-28.5 -14.5t-20 -23.5t-7.5 -32v-30l169 24v13q0 36 -21.5 52t-57.5 16z" />
    <glyph glyph-name="Qtounge" horiz-adv-x="676" 
d="M303 180l73 62l153 -194q23 -29 51 -40t63 -11v-76q-35 0 -62.5 2t-50.5 9t-42.5 21.5t-38.5 39.5z" />
    </font>
</defs>
</svg>
