<?xml version="1.0" standalone="no"?>
<!DOCTYPE svg PUBLIC "-//W3C//DTD SVG 1.1//EN" "http://www.w3.org/Graphics/SVG/1.1/DTD/svg11.dtd" >
<svg xmlns="http://www.w3.org/2000/svg" xmlns:xlink="http://www.w3.org/1999/xlink" version="1.1">
<metadata>
Created by FontForge 20170731 at Fri May 21 10:32:22 2004
 By Aleksey,,,
</metadata>
<defs>
<font id="PillGothic600mg-Regular" horiz-adv-x="570" >
  <font-face 
    font-family="Pill Gothic 600mg Rg"
    font-weight="400"
    font-stretch="normal"
    units-per-em="1000"
    panose-1="2 0 5 3 3 0 0 2 0 4"
    ascent="800"
    descent="-200"
    x-height="490"
    cap-height="680"
    bbox="-44 -259 966 927"
    underline-thickness="50"
    underline-position="-150"
    unicode-range="U+0020-FB04"
  />
<missing-glyph horiz-adv-x="218" 
 />
    <glyph glyph-name="germandbls" unicode="ss" horiz-adv-x="632" 
d="M47 490h53v103q0 33 12.5 60t34 46.5t50.5 30t61 10.5q22 0 50.5 -5.5t49.5 -14.5l-20 -63q-18 8 -36.5 11.5t-33.5 3.5q-47 0 -71.5 -25t-24.5 -72v-85h382v-53l-121 -143h30q32 0 54 -10.5t35.5 -27.5t20 -38t6.5 -41v-70q0 -25 -12 -46.5t-32 -36.5t-47.5 -23.5
t-57.5 -8.5q-48 0 -87 19t-55 54l44 37q8 -20 35 -34.5t58 -14.5q35 0 58 16.5t23 45.5v52q0 32 -17.5 51t-55.5 19h-92v55l119 139h-285v-431h-75v432h-53v58z" />
    <glyph glyph-name="arrowleft" unicode="&#x3c;&#x2d;" horiz-adv-x="434" 
d="M255 414l-105 -128h237v-67h-237l101 -119l-43 -34l-161 186l165 197z" />
    <glyph glyph-name="arrowright" unicode="&#x2d;&#x3e;" horiz-adv-x="434" 
d="M217 454l170 -201l-158 -197l-45 35l100 128h-237v67h237l-110 133z" />
    <glyph glyph-name="smiley" unicode="&#x28;&#x3a;" horiz-adv-x="783" 
d="M32 350q0 76 28 142t77 114.5t115 76t142 27.5t142 -27.5t114.5 -76t76.5 -114.5t28 -142t-28 -141.5t-77 -114t-115 -76t-141 -27.5q-76 0 -142 27.5t-115 76t-77 114t-28 141.5zM86 350q0 -64 24 -120t66 -97.5t98.5 -65.5t120.5 -24t120 24t97 65.5t65 97.5t24 120
q0 65 -24 120.5t-65.5 97t-97.5 65t-120 23.5t-120.5 -23.5t-98 -65t-65.5 -97t-24 -120.5zM603 296q-20 -60 -67 -98t-108 -38h-68q-30 0 -56.5 10.5t-49 28.5t-40 42.5t-27.5 52.5l51 20q14 -42 47 -70.5t75 -28.5h68q44 0 78.5 30t49.5 72zM251 512h82v-119h-82v119z
M458 512h82v-119h-82v119z" />
    <glyph glyph-name="f_j" unicode="fj" horiz-adv-x="585" 
d="M309 728q39 0 90 -14.5t104 -37.5l-24 -65q-21 9 -43.5 17.5t-44.5 15t-42 10.5t-35 4q-45 0 -73.5 -21t-28.5 -60v-85h107v-59h-109v-433h-75v433h-95v59h95v81q0 34 13.5 62.5t36.5 49t55 32t69 11.5zM417 490h75v-461q0 -63 -13.5 -104t-39.5 -68.5t-63.5 -46.5
t-86.5 -37l-26 55q39 18 67.5 34t47.5 37.5t28.5 52.5t9.5 81z" />
    <glyph glyph-name="ff" unicode="ff" horiz-adv-x="607" 
d="M262 729q41 0 89 -13.5t88 -36.5q48 54 127 54q20 0 46 -5t46 -12l-17 -57q-14 5 -38.5 7.5t-38.5 2.5q-44 0 -63.5 -26t-19.5 -65v-87h116v-59h-116v-432h-74v432h-96v59h96v93q0 20 6 38q-32 18 -72 28t-72 10q-44 0 -69.5 -22.5t-25.5 -59.5v-87h91v-59h-91v-432h-76
v432h-99v59h99v83q0 69 44.5 112t119.5 43z" />
    <glyph glyph-name="fi" unicode="fi" 
d="M291 743q31 0 62.5 -7.5t59 -18t50 -22t35.5 -18.5l-33 -60q-10 5 -29.5 14.5t-43.5 19t-50.5 17t-50.5 7.5q-20 0 -37.5 -6.5t-30 -18t-20 -26.5t-7.5 -33v-101h109v-59h-109v-431h-76v431h-99v59h99v98q0 34 12.5 62.5t35.5 49t54.5 32t68.5 11.5zM414 490h77v-490h-77
v490z" />
    <glyph glyph-name="fl" unicode="fl" horiz-adv-x="586" 
d="M295 743q18 0 41.5 -3t47 -8.5t45 -12.5t37.5 -15h29v-704h-76v650q-28 12 -63 18t-61 6q-42 0 -69.5 -23t-27.5 -59v-101h112v-60h-113v-431h-77v431h-99v60h101v102q0 33 13.5 60.5t36.5 47.5t55 31t68 11z" />
    <glyph glyph-name="wink" unicode="&#x28;&#x3b;" horiz-adv-x="783" 
d="M32 351q0 76 28 141.5t77 114t115 76.5t142 28t142 -28t114.5 -76.5t76.5 -114t28 -141.5t-28 -142t-77 -114.5t-115 -76t-141 -27.5q-76 0 -142 27.5t-115 76t-77 114.5t-28 142zM86 351q0 -64 24 -120.5t66 -98t98.5 -65.5t120.5 -24t120 24t97 65.5t65 98t24 120.5
t-24 120t-65.5 97t-97.5 65t-120 24t-120.5 -24t-98 -65t-65.5 -97t-24 -120zM600 282q-10 -30 -27.5 -55t-40 -43.5t-50 -28.5t-57.5 -10h-69q-29 0 -55.5 10.5t-49 28.5t-40 42.5t-27.5 53.5l52 19q14 -42 46.5 -70.5t73.5 -28.5h69q45 0 79 30t50 72zM236 500h95v-108
h-95v108zM425 421v46h175v-46h-175z" />
    <glyph glyph-name="T_h" unicode="Th" horiz-adv-x="1011" 
d="M12 610v70h541v-70h-247v-610h-76v610h-218zM801 501q83 0 124 -45.5t41 -128.5v-327h-76v327q0 50 -29.5 77t-79.5 27q-27 0 -54 -10.5t-48.5 -28.5t-35.5 -41.5t-14 -49.5v-301h-76v680h76v-280q26 45 72 73t100 28z" />
    <glyph glyph-name=".notdef" horiz-adv-x="218" 
 />
    <glyph glyph-name=".null" horiz-adv-x="0" 
 />
    <glyph glyph-name="nonmarkingreturn" horiz-adv-x="218" 
 />
    <glyph glyph-name="space" unicode=" " horiz-adv-x="218" 
 />
    <glyph glyph-name="exclam" unicode="!" horiz-adv-x="241" 
d="M164 237h-68l-7 443h82zM82 108h98v-108h-98v108z" />
    <glyph glyph-name="quotedbl" unicode="&#x22;" horiz-adv-x="292" 
d="M56 685h62l-4 -221h-55zM175 685h62l-3 -221h-55z" />
    <glyph glyph-name="numbersign" unicode="#" horiz-adv-x="669" 
d="M436 460l31 165h52l-29 -165h132v-53h-142l-38 -204h146v-52h-155l-26 -151h-55l26 151h-128l-28 -151h-53l26 151h-148v52h158l38 204h-165v53h175l30 165h54l-30 -165h129zM388 203l38 204h-128l-39 -204h129z" />
    <glyph glyph-name="dollar" unicode="$" horiz-adv-x="527" 
d="M481 283v-99q0 -41 -14 -74t-38 -57t-56.5 -37.5t-68.5 -15.5v-125h-65v123q-31 1 -60.5 10t-54.5 25t-45 38t-31 49l63 39q21 -42 62.5 -66.5t95.5 -24.5q28 0 52.5 5.5t43 18.5t29 34.5t10.5 53.5v58l-338 150v118q0 43 15 74t40.5 52t58.5 33t69 15v109h65v-111
q54 -2 97 -31.5t67 -76.5l-56 -43q-22 37 -58 60.5t-82 23.5q-21 0 -45.5 -4t-45.5 -15.5t-34.5 -32.5t-13.5 -56v-69z" />
    <glyph glyph-name="percent" unicode="%" horiz-adv-x="717" 
d="M326 496q0 -25 -10.5 -45t-28 -34t-41 -22t-50.5 -8q-28 0 -52 7.5t-42 21.5t-28 34.5t-10 45.5v86q0 24 10.5 44t28.5 34.5t42 22t51 7.5q26 0 49.5 -8t41.5 -22.5t28.5 -34t10.5 -43.5v-86zM652 99q0 -50 -36.5 -79t-90.5 -29q-25 0 -48.5 7.5t-41 21t-28 33
t-10.5 42.5v96q0 49 37 77.5t91 28.5q26 0 49 -7t40 -20.5t27.5 -33t10.5 -43.5v-94zM131 498q0 -23 19 -36t46 -13q26 0 45 14.5t19 35.5v82q0 22 -19 34t-45 12t-45.5 -13.5t-19.5 -33.5v-82zM461 102q0 -21 19 -35t45 -14q25 0 44.5 14t19.5 36v82q0 23 -18.5 36
t-45.5 13q-26 0 -45.5 -14.5t-19.5 -35.5zM99 0l447 680h71l-443 -680h-75z" />
    <glyph glyph-name="ampersand" unicode="&#x26;" horiz-adv-x="679" 
d="M628 269l-99 -107l119 -123l-55 -52l-113 119q-42 -52 -95.5 -84t-127.5 -32q-97 0 -153.5 42.5t-56.5 131.5q0 38 16 69t40.5 58t55 51t58.5 49l-82 92v88q0 27 11 49t29.5 38t44 24.5t54.5 8.5q69 0 109.5 -35.5t40.5 -101.5q0 -54 -29 -94.5t-71 -74.5l155 -172
l94 105zM253 61q30 0 54 8t44.5 21.5t39.5 32t38 38.5l-163 182q-23 -22 -47.5 -41t-45 -39t-34 -42.5t-13.5 -52.5q0 -22 7 -41.5t22 -34t39 -23t59 -8.5zM205 508l69 -79q31 27 55 57t24 65q0 74 -77 74q-19 0 -33 -6t-22 -15.5t-12 -20t-4 -19.5v-56z" />
    <glyph glyph-name="quotesingle" unicode="'" horiz-adv-x="222" 
d="M73 700h76l-8 -231h-60z" />
    <glyph glyph-name="parenleft" unicode="(" horiz-adv-x="327" 
d="M84 436q0 55 11 104.5t31 91t48.5 74t63.5 53.5l29 -44q-50 -32 -84 -103t-34 -176v-333q0 -109 34 -177.5t84 -100.5l-29 -45q-70 42 -112 127t-42 196v333z" />
    <glyph glyph-name="parenright" unicode=")" horiz-adv-x="337" 
d="M242 110q0 -55 -11 -105.5t-31 -93t-48 -75.5t-63 -54l-29 40q50 34 83.5 107t33.5 181v321q0 105 -31 177t-81 105l24 46q35 -21 63 -54t48 -75.5t31 -93t11 -105.5v-321z" />
    <glyph glyph-name="asterisk" unicode="*" horiz-adv-x="384" 
d="M321 629l16 -50l-102 -32l64 -85l-43 -32l-64 86l-64 -86l-42 31l63 86l-102 32l15 50l103 -32v105h54v-106z" />
    <glyph glyph-name="plus" unicode="+" horiz-adv-x="565" 
d="M320 421h215v-70h-215v-221h-76v221h-214v70h214v199h76v-199z" />
    <glyph glyph-name="comma" unicode="," horiz-adv-x="187" 
d="M127 83v-26q0 -40 -6.5 -69t-16 -50.5t-22 -37t-24.5 -28.5l-37 28q17 23 27 49.5t10 75.5v58h69z" />
    <glyph glyph-name="hyphen" unicode="-" horiz-adv-x="328" 
d="M47 322h234v-70h-234v70z" />
    <glyph glyph-name="period" unicode="." horiz-adv-x="230" 
d="M64 107h102v-107h-102v107z" />
    <glyph glyph-name="slash" unicode="/" horiz-adv-x="367" 
d="M21 -85l260 765h71l-261 -765h-70z" />
    <glyph glyph-name="zero" unicode="0" horiz-adv-x="629" 
d="M314 690q48 0 91.5 -14t77 -41t53 -66t19.5 -89v-282q0 -50 -19.5 -88.5t-53 -65t-77 -40.5t-91.5 -14t-91.5 14t-77 40.5t-53 65t-19.5 88.5v282q0 50 19.5 89t53 66t77 41t91.5 14zM479 480q0 35 -13.5 61t-36 43.5t-52.5 26.5t-63 9t-63 -9t-52.5 -26.5t-36 -43.5
t-13.5 -61v-282q0 -34 13.5 -60t36.5 -43.5t52.5 -26t62.5 -8.5q32 0 62 8.5t53 25.5t36.5 43t13.5 61v282z" />
    <glyph glyph-name="one" unicode="1" horiz-adv-x="433" 
d="M223 610h-157v70h234v-680h-77v610z" />
    <glyph glyph-name="two" unicode="2" horiz-adv-x="528" 
d="M313 298q-36 -22 -67.5 -46t-55 -51.5t-37.5 -59.5t-14 -71h347v-70h-423v38q0 56 11 99.5t33.5 79t58 65.5t83.5 60q26 15 52 31t46.5 35t33.5 42t13 53q0 54 -32.5 80.5t-89.5 26.5q-24 0 -48 -7t-45.5 -18t-40 -26t-31.5 -30l-45 52q38 45 93 72t118 27q41 0 77 -9.5
t62.5 -30.5t42 -53t15.5 -77q0 -40 -12 -70t-33.5 -54.5t-50 -45.5t-61.5 -42z" />
    <glyph glyph-name="three" unicode="3" horiz-adv-x="565" 
d="M494 482q0 -25 -9.5 -46t-24.5 -37t-34.5 -27.5t-39.5 -17.5q21 -7 41.5 -18t37 -26.5t26.5 -36.5t10 -49v-73q0 -41 -19 -71t-50.5 -50t-70.5 -29.5t-80 -9.5q-42 0 -80.5 9.5t-69 28t-50.5 46t-25 63.5l66 20q3 -22 17.5 -40.5t36 -31t48 -19.5t53.5 -7q24 0 50 5
t48 16t36 28.5t14 41.5v73q0 25 -14 43t-35.5 29.5t-47 17.5t-48.5 7h-77v68h74q24 0 49 5.5t45.5 17t33.5 29t13 41.5v43q0 26 -11.5 44t-30.5 29.5t-44 16.5t-51 5q-24 0 -48.5 -6.5t-45 -18.5t-35 -29.5t-17.5 -40.5l-63 22q6 35 27 61.5t51 44.5t66 27.5t72 9.5
q42 0 79.5 -10t65.5 -30t44.5 -51.5t16.5 -73.5v-43z" />
    <glyph glyph-name="four" unicode="4" horiz-adv-x="549" 
d="M413 271h116v-70h-116v-200h-76v200h-313v59l268 420h121v-409zM337 613h-10l-218 -342h228v342z" />
    <glyph glyph-name="five" unicode="5" horiz-adv-x="555" 
d="M292 412q42 0 78.5 -12t64.5 -34.5t44 -56t16 -76.5v-66q0 -42 -18.5 -75t-49.5 -55.5t-70 -34.5t-81 -12q-43 0 -81 11t-67 33t-47 53.5t-21 72.5l74 15q2 -25 13.5 -46t31 -36.5t45.5 -24t56 -8.5q26 0 51 6.5t44.5 20t31.5 33.5t12 47v66q0 27 -11 47t-29 34t-42 21
t-50 7h-201l34 338h335v-70h-266l-19 -198h122z" />
    <glyph glyph-name="six" unicode="6" horiz-adv-x="568" 
d="M305 437q39 0 75 -11t63.5 -32.5t44 -54t16.5 -75.5v-99q0 -43 -18.5 -76t-48.5 -55t-69 -33t-80 -11t-80 11t-69 33t-48 55t-18 76v357q0 38 17.5 69t47 53t68.5 34t82 12q55 0 99 -17t79 -49l-41 -58q-60 55 -137 55q-28 0 -53.5 -6.5t-44.5 -19.5t-30 -31.5t-11 -41.5
v-154q64 69 156 69zM428 256q0 27 -12.5 47.5t-32 33.5t-44.5 19.5t-50 6.5q-26 0 -51 -7.5t-45 -21t-32 -33.5t-12 -45v-91q0 -28 12 -48t31.5 -33t44.5 -19t51 -6t51 6t44.5 19t32 33t12.5 48v91z" />
    <glyph glyph-name="seven" unicode="7" horiz-adv-x="463" 
d="M8 680h430l-230 -680h-84l208 610h-324v70z" />
    <glyph glyph-name="eight" unicode="8" horiz-adv-x="577" 
d="M490 487q0 -20 -8 -39.5t-21 -36.5t-30 -30.5t-35 -21.5q20 -7 39 -20t34 -30t24.5 -37.5t9.5 -43.5v-72q0 -44 -18 -75.5t-48 -51.5t-68.5 -29.5t-80.5 -9.5t-81 9.5t-68.5 29.5t-47.5 51.5t-18 75.5v72q0 21 9 41.5t24 38t34 31t40 20.5q-41 17 -67.5 54t-26.5 82v38
q0 41 16.5 72t44.5 52t64.5 31.5t76.5 10.5q39 0 75.5 -10.5t64.5 -31.5t45 -52t17 -72v-46v0zM427 228q0 22 -12 39.5t-30.5 29.5t-41.5 18.5t-46 6.5h-17q-23 0 -46.5 -6.5t-42 -18t-30.5 -29t-12 -40.5v-70q0 -27 12.5 -46t32 -30.5t44.5 -16.5t50 -5q24 0 49 5t45 16.5
t32.5 29.5t12.5 45v72zM162 487q0 -22 10.5 -39.5t27 -29.5t37.5 -18.5t43 -7.5h17q23 1 44 7.5t37 18t26 29t10 40.5v46q0 25 -11 43t-29 30t-40.5 17.5t-45.5 5.5t-45.5 -5.5t-40.5 -17.5t-29 -30t-11 -43v-46v0z" />
    <glyph glyph-name="nine" unicode="9" horiz-adv-x="568" 
d="M279 690q41 0 79.5 -12t68.5 -34.5t48.5 -54.5t18.5 -73v-351q0 -43 -18.5 -76t-48.5 -55t-68.5 -33t-79.5 -11q-51 0 -103 17t-87 53l42 56q24 -18 61 -37t87 -19q25 0 50 6t44.5 19t32 32.5t12.5 47.5v133q-27 -32 -66.5 -47.5t-80.5 -15.5t-78.5 11t-66 33.5
t-45.5 55.5t-17 76v105q0 41 18 73t48 54.5t69 34.5t80 12zM418 516q0 25 -12 44.5t-32 32.5t-44.5 20t-50.5 7q-25 0 -50 -6.5t-45 -20t-32 -32.5t-12 -45v-105q0 -28 12.5 -48t32.5 -33t45 -19t51 -6q25 0 49.5 7t44 20.5t31.5 33t12 45.5v105z" />
    <glyph glyph-name="colon" unicode=":" horiz-adv-x="270" 
d="M94 118h94v-118h-94v118zM94 490h94v-116h-94v116z" />
    <glyph glyph-name="semicolon" unicode=";" horiz-adv-x="295" 
d="M208 350h-85v120h85v-120zM199 83v-26q0 -40 -6.5 -69t-16 -50.5t-22 -37t-24.5 -28.5l-37 28q17 23 27 49.5t10 75.5v58h69z" />
    <glyph glyph-name="less" unicode="&#x3c;" horiz-adv-x="598" 
d="M519 -14l-472 255l456 271l32 -51l-366 -217l382 -206z" />
    <glyph glyph-name="equal" unicode="=" horiz-adv-x="596" 
d="M47 490h502v-62h-502v62zM47 276h502v-62h-502v62z" />
    <glyph glyph-name="greater" unicode="&#x3e;" horiz-adv-x="582" 
d="M535 249l-452 -266l-32 52l364 212l-356 211l33 51z" />
    <glyph glyph-name="question" unicode="?" horiz-adv-x="402" 
d="M185 690q80 0 125 -35t45 -113v-47q0 -35 -22.5 -60t-48.5 -47q-16 -14 -30 -27t-24 -27t-15.5 -30t-5.5 -36v-59h-74v74q0 41 23.5 72.5t54.5 60.5q11 10 22.5 19t21 19t16 22t6.5 27v37q0 40 -26 60t-66 20q-34 0 -66.5 -16t-54.5 -40l-41 51q32 32 73 53.5t87 21.5z
M117 108h106v-108h-106v108z" />
    <glyph glyph-name="at" unicode="@" horiz-adv-x="799" 
d="M408 698q74 0 136.5 -21t108 -58.5t71 -89t25.5 -113.5q0 -57 -9 -103t-28.5 -78t-50.5 -49.5t-76 -17.5q-16 0 -32 3t-30 10t-25.5 18t-17.5 27q-23 -30 -62 -50.5t-84 -20.5q-33 0 -56 8t-37.5 22t-21.5 32t-7 39q0 8 2 24.5t5.5 37t8.5 44t11 44.5q8 30 26.5 56t44 45
t56 30t62.5 11q60 0 94 -26.5t34 -71.5q0 -16 -4.5 -37.5t-9.5 -45.5q-5 -23 -8.5 -46t-3.5 -40q0 -24 15 -41.5t40 -17.5q106 0 106 196q0 50 -21 92t-58.5 72t-89.5 46.5t-114 16.5q-60 0 -111 -19.5t-88.5 -53.5t-61.5 -80t-30 -98q-5 -37 -8.5 -73t-3.5 -59
q0 -46 21.5 -85.5t61 -69t95 -46t123.5 -16.5q40 0 80.5 10.5t78.5 31.5l27 -48q-43 -24 -90.5 -36t-95.5 -12q-81 0 -147.5 20.5t-113.5 56.5t-72.5 85.5t-25.5 106.5q0 24 3 61.5t8 75.5q9 62 38 117t74.5 96t105.5 64.5t132 23.5zM346 211q46 0 81 28t42 72q7 29 14.5 63
t7.5 63t-17.5 42t-52.5 13q-23 0 -44 -9.5t-38 -25.5t-28.5 -37t-15.5 -43q-3 -13 -6 -30t-5 -32t-3.5 -26t-1.5 -13q0 -65 67 -65z" />
    <glyph glyph-name="A" unicode="A" horiz-adv-x="619" 
d="M357 688l240 -688h-82l-71 206h-265l-74 -206h-83l247 688h88zM422 271l-110 326l-112 -326h222z" />
    <glyph glyph-name="B" unicode="B" horiz-adv-x="572" 
d="M492 484q0 -42 -24.5 -78.5t-62.5 -50.5q51 -19 81 -56t30 -94v-36q0 -41 -14 -72.5t-39 -53t-58 -32.5t-72 -11h-252v680h228q39 0 72.5 -11.5t58 -34t38.5 -55t14 -73.5v-22v0zM440 208q0 27 -11.5 47t-31 33.5t-44.5 20.5t-52 7h-144v-246h160q24 0 46 5.5t39 17.5
t27.5 30.5t10.5 44.5v40zM157 382h136q24 0 46 7t39.5 20t27.5 32t10 43v22q0 57 -34.5 80.5t-88.5 23.5h-136v-228z" />
    <glyph glyph-name="C" unicode="C" horiz-adv-x="557" 
d="M301 620q-34 0 -64.5 -10t-54 -28.5t-37 -45t-13.5 -60.5v-272q0 -36 13 -63t36 -45t54 -27t67 -9q52 0 98.5 14t81.5 44l35 -58q-45 -40 -98.5 -55t-116.5 -15q-52 0 -97 14t-78 41t-52 67t-19 92v272q0 50 19.5 89.5t53 67t78 42.5t94.5 15q72 0 123 -21.5t92 -65.5
l-44 -54q-32 33 -74.5 52t-96.5 19z" />
    <glyph glyph-name="D" unicode="D" horiz-adv-x="603" 
d="M291 680q53 0 100 -13.5t81.5 -40.5t54.5 -67t20 -93v-253q0 -54 -21 -94.5t-56.5 -66.5t-83 -39t-101.5 -13h-203v680h209zM471 466q0 36 -14.5 63t-39.5 45t-57.5 27t-68.5 9h-134v-541h128q38 0 71.5 8.5t59 26t40.5 45t15 64.5v253z" />
    <glyph glyph-name="E" unicode="E" horiz-adv-x="508" 
d="M158 316v-246h303v-70h-379v680h356v-70h-280v-227h235v-67h-235z" />
    <glyph glyph-name="F" unicode="F" horiz-adv-x="466" 
d="M437 610h-280v-223h236v-67h-235v-320h-76v680h355v-70z" />
    <glyph glyph-name="G" unicode="G" horiz-adv-x="623" 
d="M314 353h245v-285q-25 -15 -50 -29t-53.5 -25t-62.5 -17.5t-76 -6.5q-55 0 -102.5 15t-82.5 43t-55.5 67.5t-20.5 88.5v272q0 47 21 86.5t56.5 68t83 44t99.5 15.5q63 0 120 -20.5t96 -61.5l-40 -57q-32 31 -79.5 50t-96.5 19q-36 0 -69 -11t-58.5 -30.5t-41 -45.5
t-15.5 -57v-272q0 -33 14.5 -59.5t39.5 -45.5t59 -29t72 -10q57 0 95 12t71 32v184h-169v65z" />
    <glyph glyph-name="H" unicode="H" horiz-adv-x="690" 
d="M531 680h76v-680h-76v294h-360v-294h-76v680h76v-316h360v316z" />
    <glyph glyph-name="I" unicode="I" horiz-adv-x="294" 
d="M108 680h76v-680h-76v680z" />
    <glyph glyph-name="J" unicode="J" horiz-adv-x="490" 
d="M332 680h76v-523q0 -39 -15.5 -70t-41.5 -52.5t-60.5 -32.5t-73.5 -11t-73 11t-60 31.5t-42.5 50.5t-20.5 67l74 15q1 -21 10.5 -40t25.5 -33.5t37.5 -23.5t46.5 -9q23 0 44 6.5t37 19t26 30.5t10 41v523z" />
    <glyph glyph-name="K" unicode="K" horiz-adv-x="616" 
d="M581 680l-315 -316l345 -364h-106l-292 309l-55 -53v-256h-76v680h76v-322l320 322h103z" />
    <glyph glyph-name="L" unicode="L" horiz-adv-x="494" 
d="M158 680v-610h329v-70h-405v680h76z" />
    <glyph glyph-name="M" unicode="M" horiz-adv-x="793" 
d="M177 680l219 -397l220 397h95v-680h-70v584l-227 -426h-38l-225 424v-582h-69v680h95z" />
    <glyph glyph-name="N" unicode="N" horiz-adv-x="704" 
d="M553 680h69v-680h-102l-369 588v-588h-69v680h99l372 -591v591z" />
    <glyph glyph-name="O" unicode="O" horiz-adv-x="650" 
d="M334 690q50 0 96.5 -15t83 -42.5t58.5 -67t22 -89.5v-272q0 -52 -21.5 -92t-57.5 -67t-83 -41t-98 -14h-16q-52 0 -99.5 13.5t-83.5 40.5t-57.5 67t-21.5 93v272q0 50 22 89.5t58.5 67.5t83.5 42.5t97 14.5h17v0zM518 475q0 34 -16 61t-42 45.5t-59 28.5t-67 10h-17
q-34 0 -67.5 -10t-59.5 -28.5t-42 -45t-16 -60.5v-272q0 -36 15.5 -63t41 -45t59.5 -27t70 -9h16q35 0 68.5 9t59 27t41 45t15.5 63v271z" />
    <glyph glyph-name="P" unicode="P" horiz-adv-x="538" 
d="M297 680q41 0 76 -11.5t61.5 -34t41.5 -54t15 -72.5v-75q0 -40 -15.5 -70t-41.5 -50t-61 -30t-74 -10h-142v-273h-76v680h216zM415 508q0 24 -9.5 42.5t-26 32t-38 20.5t-44.5 7h-140v-267h140q23 0 44 5t37.5 16t26.5 28t10 41v75z" />
    <glyph glyph-name="Q" unicode="Q" horiz-adv-x="650" 
d="M457 13q-58 -23 -123 -23h-16q-52 0 -99.5 13.5t-83.5 40.5t-57.5 67t-21.5 93v272q0 50 22 89.5t58.5 67.5t83.5 42.5t97 14.5h17q50 0 96.5 -15t83 -42.5t58.5 -67t22 -89.5v-272q0 -53 -21.5 -93t-58.5 -67l11 -14q13 -17 24.5 -27t24 -15.5t27 -7.5t32.5 -2v-55
q-30 0 -52 2t-40.5 9.5t-35 21.5t-34.5 38zM518 475q0 34 -16 61t-42 45.5t-59 28.5t-67 10h-17q-34 0 -67.5 -10t-59.5 -28.5t-42 -45t-16 -60.5v-272q0 -36 15.5 -63t41 -45t59.5 -27t70 -9h16q20 0 39.5 3t36.5 9l-82 110l49 40l91 -119q23 17 36.5 42.5t13.5 58.5v271z
" />
    <glyph glyph-name="R" unicode="R" horiz-adv-x="586" 
d="M528 455q0 -66 -42.5 -104.5t-105.5 -49.5l167 -301h-86l-163 295h-140v-295h-76v680h252q41 0 76.5 -11.5t61.5 -33.5t41 -54t15 -73v-53v0zM158 365h175q22 0 43.5 5.5t38 17t27 28.5t10.5 39v53q0 23 -10 42t-26.5 32.5t-38 20.5t-44.5 7h-175v-245z" />
    <glyph glyph-name="S" unicode="S" horiz-adv-x="577" 
d="M324 383q48 -14 87 -29.5t66.5 -37.5t42 -54.5t14.5 -80.5q0 -49 -18.5 -85t-50 -59t-74 -34.5t-90.5 -11.5q-38 0 -75.5 7t-71 22t-61 38t-45.5 54l56 45q13 -22 35 -40t48 -30.5t54.5 -19t55.5 -6.5q32 0 61.5 6.5t51.5 21t35 37t13 55.5t-15 54.5t-39.5 36.5t-56.5 25
t-66 21q-45 14 -83.5 29.5t-66.5 37t-43.5 52t-15.5 75.5q0 47 18 80.5t48.5 55.5t72 32t88.5 10q72 0 126 -26t93 -64l-46 -56q-14 15 -33 28.5t-41.5 24t-47.5 17t-51 6.5q-30 0 -57 -6t-48 -18.5t-33.5 -33t-12.5 -50.5q0 -31 15.5 -51.5t40.5 -34.5t56.5 -23.5
t63.5 -19.5z" />
    <glyph glyph-name="T" unicode="T" horiz-adv-x="538" 
d="M12 610v69h514v-70h-220v-609h-76v609z" />
    <glyph glyph-name="U" unicode="U" horiz-adv-x="682" 
d="M524 680h76v-472q0 -54 -20 -95t-55 -68.5t-81.5 -41t-100.5 -13.5q-55 0 -102.5 13.5t-83 40.5t-55.5 68t-20 96v472h76v-472q0 -38 14.5 -66t39.5 -46t58.5 -27t71.5 -9q36 0 69 9.5t58 28t40 46.5t15 64v472z" />
    <glyph glyph-name="V" unicode="V" horiz-adv-x="616" 
d="M99 680l207 -582l210 582h79l-246 -680h-87l-241 680h78z" />
    <glyph glyph-name="W" unicode="W" horiz-adv-x="875" 
d="M474 680l155 -573l136 573h80l-170 -680h-89l-150 556l-151 -556h-90l-174 680h80l143 -572l153 572h77z" />
    <glyph glyph-name="X" unicode="X" horiz-adv-x="637" 
d="M145 680l180 -276l185 276h91l-231 -339l231 -341h-92l-185 278l-191 -278h-92l237 341l-224 339h91z" />
    <glyph glyph-name="Y" unicode="Y" horiz-adv-x="633" 
d="M272 273l-251 407h89l201 -335l203 335h90l-256 -407v-273h-76v273z" />
    <glyph glyph-name="Z" unicode="Z" horiz-adv-x="579" 
d="M524 680v-42l-361 -568h366v-70h-482v36l368 574h-357v70h466z" />
    <glyph glyph-name="bracketleft" unicode="[" horiz-adv-x="272" 
d="M225 680v-59h-75v-726h71v-59h-141v844h145z" />
    <glyph glyph-name="backslash" unicode="\" horiz-adv-x="398" 
d="M30 680h72l266 -680h-72z" />
    <glyph glyph-name="bracketright" unicode="]" horiz-adv-x="270" 
d="M190 680v-838h-142v59h71v717h-72v62h143z" />
    <glyph glyph-name="asciicircum" unicode="^" horiz-adv-x="411" 
d="M108 414l-61 17l161 260l156 -259l-59 -18l-97 164z" />
    <glyph glyph-name="underscore" unicode="_" horiz-adv-x="540" 
d="M47 -29h446v-63h-446v63z" />
    <glyph glyph-name="grave" unicode="`" horiz-adv-x="252" 
d="M107 717l95 -149l-44 -31l-108 138z" />
    <glyph glyph-name="a" unicode="a" horiz-adv-x="494" 
d="M254 500q82 0 129.5 -44t47.5 -127v-329h-65l-10 66q-27 -44 -65 -59.5t-86 -15.5q-71 0 -114.5 40.5t-43.5 112.5v96l307 54v35q0 53 -27.5 78t-80.5 25q-21 0 -44 -5t-44 -12t-38.5 -15t-28.5 -15l-26 55q16 10 38 20.5t47 19.5t52 14.5t52 5.5zM353 236l-230 -40v-49
q0 -42 28.5 -65t70.5 -23q23 0 46 6.5t42 19.5t31 31t12 41v79z" />
    <glyph glyph-name="b" unicode="b" horiz-adv-x="538" 
d="M308 500q82 0 132.5 -45.5t50.5 -128.5v-161q0 -41 -13.5 -73.5t-38 -55t-58.5 -34.5t-75 -12q-51 0 -94 18.5t-66 56.5l-8 -65h-65v720h77v-304q9 20 26.5 35.5t39 26.5t45.5 16.5t47 5.5zM415 326q0 27 -9.5 46t-26.5 32t-40 19t-50 6q-25 0 -50 -7t-45 -20.5t-32 -33
t-12 -44.5v-160q0 -27 11.5 -47t31 -32.5t45 -18.5t53.5 -6q25 0 47.5 7t39.5 20t27 33t10 45v161z" />
    <glyph glyph-name="c" unicode="c" horiz-adv-x="443" 
d="M243 430q-51 0 -85.5 -27.5t-34.5 -77.5v-160q0 -55 35.5 -80t89.5 -25q35 0 67 10t64 36l32 -58q-39 -35 -78.5 -46.5t-88.5 -11.5q-43 0 -79.5 11t-62.5 32.5t-40.5 54.5t-14.5 77v160q0 41 15 73.5t41.5 55t62 34.5t77.5 12q58 0 96 -16.5t75 -53.5l-44 -54
q-26 26 -59 40t-68 14z" />
    <glyph glyph-name="d" unicode="d" horiz-adv-x="526" 
d="M385 720h75v-720h-63l-12 63q-25 -38 -67 -55t-86 -17q-85 0 -135 47t-50 133v151q0 84 50 131.5t135 47.5q45 0 86 -16.5t67 -52.5v288zM385 326q0 27 -11 47t-29.5 33t-43.5 19.5t-52 6.5q-26 0 -48.5 -7.5t-39.5 -22t-27 -34.5t-10 -46v-151q0 -57 35.5 -83.5
t92.5 -26.5q26 0 49.5 6.5t42.5 19t30 32t11 46.5v161z" />
    <glyph glyph-name="e" unicode="e" horiz-adv-x="493" 
d="M272 60q50 0 89 16t58 32l36 -54q-38 -34 -87 -49t-100 -15q-45 0 -85 11t-70.5 33t-48 55.5t-17.5 79.5v161q0 39 16 70.5t43.5 53.5t65 34t80.5 12q41 0 76 -12t61 -34t41 -53t15 -69v-71l-322 -46v-46q0 -28 12.5 -48.5t33.5 -34t48 -20t55 -6.5zM251 431
q-26 0 -49 -7.5t-40.5 -20.5t-28 -31.5t-10.5 -41.5v-58l244 35v28q0 44 -32.5 70t-83.5 26z" />
    <glyph glyph-name="f" unicode="f" horiz-adv-x="309" 
d="M108 594q0 35 13 61.5t35 44t51 26t62 8.5q20 0 45.5 -5t46.5 -13l-16 -60q-17 5 -35.5 8.5t-34.5 3.5q-44 0 -67.5 -19.5t-23.5 -64.5v-94h120v-58h-120v-432h-76v432h-100v58h100v104z" />
    <glyph glyph-name="g" unicode="g" horiz-adv-x="526" 
d="M487 -12v-80q0 -36 -17 -62t-44.5 -42t-62.5 -23.5t-71 -7.5h-61q-37 0 -71 8t-60 24.5t-42 43t-16 62.5q0 48 23.5 73t65.5 39q-28 17 -41.5 35.5t-13.5 53.5q0 22 16 42.5t39 28.5q-35 21 -50.5 52.5t-15.5 73.5v31q0 41 15.5 71t42 50t62 30t76.5 10q31 0 57.5 -7
t54.5 -21l115 41l21 -57l-84 -26q14 -21 23.5 -43t9.5 -46v-38q0 -40 -15 -69.5t-41.5 -48.5t-61.5 -28.5t-74 -9.5q-18 0 -42.5 2.5t-39.5 8.5q-16 -5 -27.5 -13.5t-11.5 -28.5q0 -23 18.5 -37.5t38.5 -19.5zM137 301q0 -44 35 -68t92 -24q24 0 46 5t38.5 16t26.5 28.5
t10 42.5v41q-1 23 -12 40t-28 28.5t-39 17.5t-45 6t-45.5 -6t-40 -17.5t-28 -28.5t-10.5 -40v-41zM296 -163q21 0 40.5 3.5t35 12t26 22.5t13.5 35v37l-208 51q-16 -2 -32 -7t-28.5 -14.5t-20 -24.5t-7.5 -36q0 -24 11 -39.5t29.5 -24.5t42.5 -12t49 -3h49v0z" />
    <glyph glyph-name="h" unicode="h" horiz-adv-x="549" 
d="M320 501q84 0 124.5 -45.5t40.5 -128.5v-327h-76v327q0 50 -29.5 77t-79.5 27q-26 0 -53 -10.5t-48.5 -28.5t-35.5 -41.5t-14 -49.5v-301h-77v720h77v-320q25 45 71 73t100 28z" />
    <glyph glyph-name="i" unicode="i" horiz-adv-x="247" 
d="M88 490h76v-490h-76v490zM84 680h82v-88h-82v88z" />
    <glyph glyph-name="j" unicode="j" horiz-adv-x="267" 
d="M110 490h76v-447q0 -56 -14.5 -95.5t-41 -68t-64 -50t-84.5 -41.5l-26 54q34 19 62 35.5t48.5 38t32 53t11.5 79.5v442zM107 680h78v-88h-78v88z" />
    <glyph glyph-name="k" unicode="k" horiz-adv-x="459" 
d="M246 265l211 -265h-95l-182 230h-31v-230h-77v710h77v-413h33l167 193h88z" />
    <glyph glyph-name="l" unicode="l" horiz-adv-x="244" 
d="M84 710h76v-710h-76v710z" />
    <glyph glyph-name="m" unicode="m" horiz-adv-x="832" 
d="M608 501q79 0 119 -41.5t40 -120.5v-339h-76v322q0 51 -24 80t-74 29q-29 0 -54 -9.5t-43 -27t-28.5 -41t-10.5 -51.5v-302h-76v327q0 50 -24.5 78t-73.5 28q-25 0 -49 -11.5t-42.5 -30.5t-30 -43t-11.5 -49v-299h-77v490h67l6 -86q23 42 65 69.5t91 27.5q55 0 93 -20.5
t52 -74.5q24 44 66 69.5t95 25.5z" />
    <glyph glyph-name="n" unicode="n" horiz-adv-x="550" 
d="M316 501q84 0 126.5 -45.5t42.5 -128.5v-327h-76v317q0 53 -28.5 83.5t-80.5 30.5q-26 0 -53 -10.5t-48.5 -28.5t-35 -41.5t-13.5 -49.5v-301h-77v490h69l8 -89q29 45 70 72.5t96 27.5z" />
    <glyph glyph-name="o" unicode="o" horiz-adv-x="506" 
d="M254 501q44 0 81 -12t65 -35t43.5 -55t15.5 -73v-159q0 -41 -17 -73.5t-45 -55.5t-65 -35t-78 -12t-78.5 12t-66 35t-45.5 55.5t-17 73.5v159q0 41 16.5 73t44.5 55t66 35t80 12zM383 326q0 25 -11 44.5t-29 33t-41 20.5t-48 7t-48.5 -7t-42 -20.5t-29.5 -33t-11 -44.5
v-159q0 -25 11 -45t29 -33.5t42 -20.5t49 -7t48 7t41 20.5t29 33.5t11 45v159z" />
    <glyph glyph-name="p" unicode="p" horiz-adv-x="535" 
d="M298 500q41 0 76 -13t60 -36t39 -55t14 -70v-159q0 -39 -14 -71.5t-39 -56t-60 -36.5t-76 -13q-48 0 -88 16.5t-61 51.5v-278h-77v710h61l12 -68q25 36 64.5 57t88.5 21zM411 324q0 26 -10 46t-27.5 33.5t-40.5 20.5t-49 7q-27 0 -51 -8.5t-43 -22.5t-30 -33.5t-11 -41.5
v-158q0 -25 11 -45t29.5 -34t43 -21.5t51.5 -7.5q26 0 49 7.5t40 21.5t27.5 34t10.5 45v157z" />
    <glyph glyph-name="q" unicode="q" horiz-adv-x="509" 
d="M232 501q45 0 87 -17.5t71 -53.5l12 60h60v-710h-76v281q-12 -19 -29.5 -32t-38 -21.5t-43 -12t-43.5 -3.5q-40 0 -74 12t-59 34.5t-38.5 55t-13.5 72.5v161q0 40 14 72t38.5 54.5t58.5 35t74 12.5zM123 166q0 -24 10.5 -43.5t28.5 -33t41 -21t47 -7.5q26 0 50 6.5
t42.5 20t30 33t11.5 45.5v161q0 25 -12 44.5t-31 33t-43 20.5t-48 7q-26 0 -49 -7.5t-40.5 -21t-27.5 -33.5t-10 -45v-159z" />
    <glyph glyph-name="r" unicode="r" horiz-adv-x="330" 
d="M274 500q31 0 52 -7l-14 -71q-9 2 -23 3.5t-26 1.5q-24 0 -44.5 -11t-34.5 -30t-22 -43t-8 -50v-293h-77v490h60l11 -95q7 20 19.5 39t28.5 33.5t36 23.5t42 9z" />
    <glyph glyph-name="s" unicode="s" horiz-adv-x="445" 
d="M255 283q32 -10 60 -21.5t49 -28t33 -38.5t12 -54q0 -40 -14.5 -68.5t-39.5 -46.5t-59.5 -26.5t-73.5 -8.5q-54 0 -102 20.5t-84 58.5l37 55q27 -28 70 -47.5t83 -19.5q23 0 42.5 3t34.5 11t23.5 22.5t8.5 37.5t-12 37.5t-31 23.5t-42.5 14.5t-45.5 12.5q-32 10 -59 21
t-47 27t-31 38.5t-11 55.5q0 37 13.5 63t37.5 42.5t56 24.5t69 8q20 0 41.5 -4.5t43 -12.5t41 -19t35.5 -24l-37 -59q-26 20 -60.5 35.5t-67.5 15.5q-42 0 -69 -14t-27 -55q0 -21 12 -34t30 -21t39.5 -13.5t41.5 -11.5z" />
    <glyph glyph-name="t" unicode="t" horiz-adv-x="373" 
d="M241 63q14 0 30 2.5t30 5.5t25.5 6.5t15.5 5.5l19 -57q-9 -4 -23 -9t-30.5 -10t-34 -8.5t-34.5 -3.5q-62 0 -96 30.5t-34 92.5v313h-93v59h93v147h76v-147h133v-59h-133v-307q0 -27 14.5 -44t41.5 -17z" />
    <glyph glyph-name="u" unicode="u" horiz-adv-x="543" 
d="M402 490h76v-325q0 -41 -16.5 -73.5t-44 -55t-64.5 -34.5t-78 -12t-78 12t-64.5 34.5t-44 55t-16.5 73.5v325h77v-325q0 -25 10.5 -44.5t27.5 -33t40 -20.5t48 -7q24 0 47 7t41 20.5t28.5 33t10.5 44.5v325z" />
    <glyph glyph-name="v" unicode="v" horiz-adv-x="505" 
d="M254 85l148 405h82l-195 -490h-72l-196 490h82z" />
    <glyph glyph-name="w" unicode="w" horiz-adv-x="685" 
d="M490 84l95 406h79l-135 -491h-80l-105 383l-104 -383h-83l-136 491h80l98 -408l104 408h78z" />
    <glyph glyph-name="x" unicode="x" horiz-adv-x="456" 
d="M113 490l116 -179l115 179h85l-157 -235l164 -255h-83l-124 197l-125 -197h-84l164 255l-154 235h83z" />
    <glyph glyph-name="y" unicode="y" horiz-adv-x="460" 
d="M191 -14l-172 504h81l132 -413l132 413h81l-192 -549q-27 -79 -87.5 -116t-135.5 -38l-7 62q49 1 94 28t64 77z" />
    <glyph glyph-name="z" unicode="z" horiz-adv-x="434" 
d="M375 490v-41l-244 -383h261v-66h-350v49l245 380h-240v61h328z" />
    <glyph glyph-name="braceleft" unicode="{" horiz-adv-x="299" 
d="M248 700q-53 -36 -75 -80.5t-23 -99.5l22 -178l-29 -46l31 -39l-24 -206q2 -58 26 -102.5t76 -80.5l-24 -49q-40 28 -67 54.5t-44 54.5t-24.5 59.5t-7.5 68.5l25 193l-37 45l38 54l-26 170q0 39 9 70t26.5 58t44 51.5t61.5 49.5z" />
    <glyph glyph-name="bar" unicode="|" horiz-adv-x="223" 
d="M82 680h60v-827h-60v827z" />
    <glyph glyph-name="braceright" unicode="}" horiz-adv-x="308" 
d="M102 745q75 -48 110.5 -101.5t35.5 -125.5l-28 -170l41 -54l-41 -45l28 -193q0 -69 -33.5 -125t-114.5 -110l-27 48q59 37 83.5 82.5t26.5 99.5l-25 207l31 38l-30 45l24 179q-1 48 -24 95t-81 85z" />
    <glyph glyph-name="asciitilde" unicode="~" horiz-adv-x="393" 
d="M137 629q-18 0 -30 -12t-19 -23l-39 31q19 31 40.5 48t50.5 17q17 0 34 -7t33.5 -15t32.5 -15t31 -7q17 1 26.5 10.5t17.5 22.5l41 -27q-5 -9 -12.5 -20.5t-17.5 -22t-23 -17.5t-30 -7q-20 0 -37.5 7t-33.5 15t-31.5 15t-33.5 7z" />
    <glyph glyph-name="uni00A0" unicode="&#xa0;" horiz-adv-x="232" 
 />
    <glyph glyph-name="exclamdown" unicode="&#xa1;" horiz-adv-x="247" 
d="M91 -197l13 464h68l14 -464h-95zM182 401h-88v89h88v-89z" />
    <glyph glyph-name="cent" unicode="&#xa2;" horiz-adv-x="473" 
d="M259 432q-27 0 -51 -9.5t-43 -25.5t-30 -36.5t-11 -43.5v-144q0 -25 10.5 -46t29 -36.5t43 -24.5t52.5 -9q34 0 66.5 10t55.5 34l40 -57q-36 -34 -72 -45.5t-79 -11.5h-13.5t-14.5 2l-22 -125l-64 10l21 124q-30 8 -54.5 26t-41 42t-25.5 51.5t-9 55.5v144
q0 34 15.5 66.5t41.5 57.5t60.5 40.5t71.5 15.5h25l21 134l66 -11l-22 -128q28 -8 54 -25t46 -43l-46 -49q-23 28 -55.5 42.5t-65.5 14.5z" />
    <glyph glyph-name="sterling" unicode="&#xa3;" horiz-adv-x="541" 
d="M279 217q0 -24 -1 -44t-6.5 -38t-16 -34t-30.5 -31h269v-70h-436v58q46 2 74 13.5t43.5 31t21 46.5t5.5 58l-8 90h-147v61h140l-10 116q0 49 20 88.5t56 67.5t86 43t110 15v-70q-87 0 -140.5 -37.5t-54.5 -102.5l11 -120h169v-61h-162q2 -31 4.5 -53t2.5 -27z" />
    <glyph glyph-name="yen" unicode="&#xa5;" horiz-adv-x="651" 
d="M83 336h185l-247 344h89l214 -300l213 300h93l-250 -344h194v-51h-212v-76h211v-49h-211v-160h-76v160h-203v49h203v76h-203v51z" />
    <glyph glyph-name="brokenbar" unicode="&#xa6;" horiz-adv-x="159" 
d="M47 219h65v-329h-65v329zM47 693h65v-329h-65v329z" />
    <glyph glyph-name="section" unicode="&#xa7;" horiz-adv-x="572" 
d="M356 367q35 -15 66 -32t54.5 -39t37.5 -50t14 -65q0 -18 -4 -37t-13 -36.5t-24.5 -32t-39.5 -24.5q16 -20 23.5 -45.5t7.5 -50.5q0 -42 -15.5 -75.5t-42.5 -56t-63 -34.5t-77 -12q-65 0 -118.5 27t-79.5 73l50 42q8 -16 23 -30t34.5 -24.5t42 -16.5t44.5 -6q25 0 48 6
t40 19t27.5 34t10.5 50q0 31 -19.5 57t-49.5 47t-65 37.5t-67 29.5q-31 13 -57.5 27.5t-46.5 34.5t-31.5 47t-11.5 65q0 20 7 39.5t18.5 35.5t26 28t30.5 17q-17 22 -23 49t-6 52q0 42 15 74t42 54t63 33t78 11q65 0 113.5 -23.5t75.5 -65.5l-44 -44q-21 32 -59 50t-84 18
q-52 0 -87.5 -29t-35.5 -78q0 -31 16.5 -54t42 -40.5t56 -31t57.5 -24.5zM455 173q0 24 -9 42t-26.5 32.5t-43.5 27t-59 26.5q-35 14 -65.5 29.5t-60.5 37.5q-26 -3 -44 -25t-18 -46q0 -23 9.5 -40t27 -30.5t42.5 -25t57 -25.5q35 -16 67.5 -31.5t62.5 -37.5q12 2 22.5 8.5
t19 15.5t13.5 20.5t5 21.5z" />
    <glyph glyph-name="dieresis" unicode="&#xa8;" horiz-adv-x="359" 
d="M130 584h-80v83h80v-83zM309 584h-79v83h79v-83z" />
    <glyph glyph-name="copyright" unicode="&#xa9;" horiz-adv-x="795" 
d="M47 349q0 74 27.5 138t74.5 111.5t111.5 75t137.5 27.5t137 -27.5t111.5 -75t75 -111.5t27.5 -138q0 -73 -27.5 -137t-75 -111t-111.5 -74.5t-137 -27.5t-137.5 27t-111.5 74.5t-74.5 111.5t-27.5 137zM101 349q0 -62 23 -116.5t63.5 -94.5t94.5 -63t117 -23q62 0 116 23
t94.5 63t63.5 94.5t23 116.5t-23 116.5t-63.5 95t-94.5 63.5t-116 23q-63 0 -117 -23t-94.5 -63.5t-63.5 -95t-23 -116.5zM403 465q-24 0 -45 -8t-37 -21.5t-25 -31.5t-9 -39v-47q0 -22 10 -40.5t26.5 -32t38 -20.5t45.5 -7q32 0 63.5 11.5t53.5 31.5l33 -48
q-27 -29 -69 -43.5t-83 -14.5q-39 0 -73.5 12t-59.5 34t-39.5 51.5t-14.5 65.5v47q0 34 15 64t40 52t59 34.5t71 12.5q49 0 84.5 -15.5t66.5 -51.5l-37 -46q-19 23 -50.5 36.5t-63.5 13.5z" />
    <glyph glyph-name="ordfeminine" unicode="&#xaa;" horiz-adv-x="341" 
d="M168 689q55 0 88.5 -24.5t33.5 -78.5v-206h-44l-13 31q-14 -16 -37.5 -24.5t-45.5 -8.5q-45 0 -74 24t-29 64v70l181 26v14q0 35 -17 47t-46 12q-9 0 -20.5 -2.5t-22.5 -6t-20.5 -7.5t-15.5 -7l-22 48q20 11 48 19.5t56 9.5zM226 518l-118 -17v-33q0 -14 17 -24.5
t38 -10.5q10 0 21 2.5t20.5 7.5t15.5 12t6 15v48z" />
    <glyph glyph-name="guillemotleft" unicode="&#xab;" horiz-adv-x="459" 
d="M379 0l-157 174l157 181l33 -37l-109 -142l108 -138zM205 0l-158 174l158 181l32 -37l-109 -142l109 -138z" />
    <glyph glyph-name="logicalnot" unicode="&#xac;" horiz-adv-x="444" 
d="M47 332h350v-157h-61v94h-289v63z" />
    <glyph glyph-name="registered" unicode="&#xae;" horiz-adv-x="795" 
d="M47 349q0 75 26.5 139t74 111.5t111.5 74.5t139 27q74 0 138.5 -27t111.5 -74.5t74 -111.5t27 -139q0 -74 -27 -138t-74 -111t-111.5 -74t-138.5 -27q-75 0 -139 26.5t-111.5 73.5t-74 111t-26.5 139zM101 349q0 -63 23 -117.5t63 -94t94.5 -62.5t117.5 -23t117 23
t94 62.5t63 94t23 117.5t-23 117.5t-63 94.5t-94 63t-117 23t-117.5 -23t-94.5 -63t-63 -94.5t-23 -117.5zM545 412q0 -37 -23 -62.5t-61 -33.5l98 -158h-70l-94 151h-67v-151h-60v381h162q24 0 45 -8.5t36.5 -23.5t24.5 -35t9 -43v-17v0zM327 358h96q23 0 43 14t20 37v18
q0 24 -18.5 41t-44.5 17h-96v-127z" />
    <glyph glyph-name="macron" unicode="&#xaf;" horiz-adv-x="454" 
d="M404 637h-354v48h354v-48z" />
    <glyph glyph-name="degree" unicode="&#xb0;" horiz-adv-x="364" 
d="M182 690q27 0 51.5 -8.5t43 -23t29.5 -35t11 -45.5v-29q0 -25 -11 -45.5t-29.5 -35.5t-43 -23t-51.5 -8q-28 0 -52.5 8t-43 23t-29 35.5t-10.5 45.5v29q0 25 10.5 45.5t29 35t43 23t52.5 8.5zM254 583q0 23 -22 37.5t-50 14.5t-50 -14.5t-22 -37.5v-39q1 -23 22.5 -37
t49.5 -14t50 14t22 37v39z" />
    <glyph glyph-name="plusminus" unicode="&#xb1;" horiz-adv-x="542" 
d="M302 372h180v-66h-180v-177h-72v177h-175v66h175v165h72v-165zM47 62h448v-62h-448v62z" />
    <glyph glyph-name="twosuperior" unicode="&#xb2;" horiz-adv-x="468" 
d="M237 690q70 0 101 -27t31 -76q0 -21 -7.5 -36.5t-20.5 -28t-29.5 -22t-34.5 -17.5q-20 -9 -40 -17t-36 -18t-26 -22t-12 -29h205v-57h-276v43q0 26 9.5 46.5t27 36.5t40.5 29t50 23q14 6 29.5 12t28 14t20.5 18t8 23q0 22 -13 35t-58 13q-32 0 -54 -12t-41 -34l-36 43
q20 26 54.5 43t79.5 17z" />
    <glyph glyph-name="threesuperior" unicode="&#xb3;" horiz-adv-x="353" 
d="M322 596q0 -19 -6.5 -32.5t-16 -22.5t-21.5 -14.5t-24 -8.5q12 -3 24.5 -9t23 -15.5t17.5 -23t7 -32.5v-15q0 -27 -11.5 -45t-31 -29t-45 -16t-53.5 -5q-51 0 -91 22.5t-51 65.5l48 21q6 -26 33 -40t59 -14q14 0 28.5 2t26 7t19 13t7.5 20v13q0 14 -7 24t-18.5 16.5
t-25 10t-27.5 3.5h-64v53h59q13 0 27 2t25 7t18.5 14t7.5 24v9q0 14 -6.5 22.5t-17 14t-23.5 7.5t-26 2q-34 0 -60.5 -14.5t-33.5 -37.5l-42 24q5 18 18 33t31.5 26.5t40.5 17.5t45 6q28 0 53 -4t43.5 -15t29.5 -30t11 -49v-8z" />
    <glyph glyph-name="acute" unicode="&#xb4;" horiz-adv-x="252" 
d="M148 713l54 -40l-107 -134l-45 27z" />
    <glyph glyph-name="paragraph" unicode="&#xb6;" horiz-adv-x="519" 
d="M437 680v-680h-56v632h-84v-632h-60v373h-36q-68 0 -111 35.5t-43 99.5v30q0 60 41 100.5t113 41.5h236z" />
    <glyph glyph-name="periodcentered" unicode="&#xb7;" horiz-adv-x="190" 
d="M64 306h102v-107h-102v107z" />
    <glyph glyph-name="cedilla" unicode="&#xb8;" horiz-adv-x="238" 
d="M130 0l-14 -56q4 -2 15.5 -7t24 -16t22.5 -28.5t10 -42.5q0 -40 -31 -67t-82 -42l-23 44q7 3 18.5 8t23 12.5t19.5 18t8 22.5q0 17 -8 28.5t-19 19t-23 11.5t-21 6l20 89h60z" />
    <glyph glyph-name="onesuperior" unicode="&#xb9;" horiz-adv-x="268" 
d="M138 612h-108v68h173v-341h-65v273z" />
    <glyph glyph-name="ordmasculine" unicode="&#xba;" horiz-adv-x="365" 
d="M182 690q27 0 51.5 -8.5t43 -23.5t29.5 -35.5t11 -44.5v-84q0 -25 -11 -45.5t-29.5 -35t-43 -22.5t-51.5 -8t-51.5 8t-43 23t-29.5 35.5t-11 45.5v83q0 24 11 44.5t29.5 35.5t43 23.5t51.5 8.5zM252 581q-1 24 -22 37.5t-47 13.5q-27 0 -49 -14t-22 -38v-81
q2 -29 20.5 -44t50.5 -15q26 0 47.5 13.5t21.5 36.5v91z" />
    <glyph glyph-name="guillemotright" unicode="&#xbb;" horiz-adv-x="453" 
d="M145 176l-109 142l32 37l159 -181l-159 -174l-31 38zM320 176l-109 142l32 37l158 -181l-158 -174l-31 38z" />
    <glyph glyph-name="onequarter" unicode="&#xbc;" horiz-adv-x="679" 
d="M138 612h-108v68h173v-341h-65v273zM51 0l447 680h71l-443 -680h-75zM571 148h72v-51h-72v-95h-63v95h-186v40l156 221h93v-210zM508 309h-6l-110 -161h116v161z" />
    <glyph glyph-name="onehalf" unicode="&#xbd;" horiz-adv-x="657" 
d="M138 612h-108v68h173v-341h-65v273zM38 0l447 680h71l-443 -680h-75zM495 351q70 0 101 -27t31 -76q0 -21 -7.5 -36.5t-20.5 -28t-29.5 -22t-34.5 -17.5q-20 -9 -40 -17t-36 -18t-26 -22t-12 -29h205v-57h-276v43q0 26 9.5 46.5t27 36.5t40.5 29t50 23q14 6 29.5 12
t28 14t20.5 18t8 23q0 22 -13 35t-58 13q-32 0 -54 -12t-41 -34l-36 43q20 26 54.5 43t79.5 17z" />
    <glyph glyph-name="threequarters" unicode="&#xbe;" horiz-adv-x="720" 
d="M307 596q0 -19 -6.5 -32.5t-16 -22.5t-21.5 -14.5t-24 -8.5q12 -3 24.5 -9t23 -15.5t17.5 -23t7 -32.5v-15q0 -27 -11.5 -45t-31 -29t-45 -16t-53.5 -5q-51 0 -91 22.5t-51 65.5l48 21q6 -26 33 -40t59 -14q14 0 28.5 2t26 7t19 13t7.5 20v13q0 14 -7 24t-18.5 16.5
t-25 10t-27.5 3.5h-64v53h59q13 0 27 2t25 7t18.5 14t7.5 24v9q0 14 -6.5 22.5t-17 14t-23.5 7.5t-26 2q-34 0 -60.5 -14.5t-33.5 -37.5l-42 24q5 18 18 33t31.5 26.5t40.5 17.5t45 6q28 0 53 -4t43.5 -15t29.5 -30t11 -49v-8zM119 0l447 680h71l-443 -680h-75zM621 147h72
v-51h-72v-95h-63v95h-186v40l156 221h93v-210zM558 308h-6l-110 -161h116v161z" />
    <glyph glyph-name="questiondown" unicode="&#xbf;" horiz-adv-x="397" 
d="M214 -218q-170 0 -170 149v58q0 36 21 60.5t50 48.5q15 13 28.5 26t24 27.5t16.5 31t6 37.5v61h74v-75q0 -45 -24 -78.5t-59 -63.5q-22 -20 -41.5 -39t-19.5 -45v-49q0 -24 9.5 -40t23 -25.5t30 -13t29.5 -3.5q32 0 64 16.5t61 39.5l32 -55q-28 -26 -67 -47t-88 -21z
M277 382h-105v108h105v-108z" />
    <glyph glyph-name="Agrave" unicode="&#xc0;" horiz-adv-x="619" 
d="M357 688l240 -688h-82l-71 206h-265l-74 -206h-83l247 688h88zM422 271l-110 326l-112 -326h222zM259 925l95 -149l-44 -31l-108 138z" />
    <glyph glyph-name="Aacute" unicode="&#xc1;" horiz-adv-x="619" 
d="M357 688l240 -688h-82l-71 206h-265l-74 -206h-83l247 688h88zM422 271l-110 326l-112 -326h222zM362 923l54 -40l-107 -134l-45 27z" />
    <glyph glyph-name="Acircumflex" unicode="&#xc2;" horiz-adv-x="619" 
d="M357 688l240 -688h-82l-71 206h-265l-74 -206h-83l247 688h88zM422 271l-110 326l-112 -326h222zM309 870l125 -88l-32 -41l-92 61l-94 -60l-31 42z" />
    <glyph glyph-name="Atilde" unicode="&#xc3;" horiz-adv-x="619" 
d="M357 688l240 -688h-82l-71 206h-265l-74 -206h-83l247 688h88zM422 271l-110 326l-112 -326h222zM244 799q-18 0 -30 -12t-19 -23l-39 31q19 31 40.5 48t50.5 17q17 0 34 -7t33.5 -15t32.5 -15t31 -7q17 1 26.5 10.5t17.5 22.5l41 -27q-5 -9 -12.5 -20.5t-17.5 -22
t-23 -17.5t-30 -7q-20 0 -37.5 7t-33.5 15t-31.5 15t-33.5 7z" />
    <glyph glyph-name="Adieresis" unicode="&#xc4;" horiz-adv-x="619" 
d="M357 688l240 -688h-82l-71 206h-265l-74 -206h-83l247 688h88zM422 271l-110 326l-112 -326h222zM260 753h-80v83h80v-83zM439 753h-79v83h79v-83z" />
    <glyph glyph-name="Aring" unicode="&#xc5;" horiz-adv-x="619" 
d="M357 688l240 -688h-82l-71 206h-265l-74 -206h-83l247 688h88zM422 271l-110 326l-112 -326h222zM309 748q-16 0 -30 6t-24.5 16.5t-17 25t-6.5 30.5q0 33 23 55t55 22t56 -22t24 -55q0 -32 -24 -55t-56 -23zM270 825q0 -17 11.5 -28t28.5 -11t28.5 11t11.5 28
t-11.5 29.5t-28.5 12.5t-28.5 -12.5t-11.5 -29.5z" />
    <glyph glyph-name="AE" unicode="&#xc6;" horiz-adv-x="904" 
d="M561 321v-251h305v-70h-382v187h-256l-120 -187h-88l426 680h396v-70h-282v-224h238v-65h-237zM484 252v359l-220 -359h220z" />
    <glyph glyph-name="Ccedilla" unicode="&#xc7;" horiz-adv-x="542" 
d="M301 620q-34 0 -64.5 -10t-54 -28.5t-37 -45t-13.5 -60.5v-272q0 -36 13 -63t36 -45t54 -27t67 -9q52 0 98.5 14t81.5 44l35 -58q-45 -40 -98.5 -55t-116.5 -15q-52 0 -97 14t-78 41t-52 67t-19 92v272q0 50 19.5 89.5t53 67t78 42.5t94.5 15q72 0 123 -21.5t92 -65.5
l-44 -54q-32 33 -74.5 52t-96.5 19zM327 0l-14 -56q4 -2 15.5 -7t24 -16t22.5 -28.5t10 -42.5q0 -40 -31 -67t-82 -42l-23 44q7 3 18.5 8t23 12.5t19.5 18t8 22.5q0 17 -8 28.5t-19 19t-23 11.5t-21 6l20 89h60z" />
    <glyph glyph-name="Egrave" unicode="&#xc8;" horiz-adv-x="508" 
d="M158 316v-246h303v-70h-379v680h356v-70h-280v-227h235v-67h-235zM220 917l95 -149l-44 -31l-108 138z" />
    <glyph glyph-name="Eacute" unicode="&#xc9;" horiz-adv-x="508" 
d="M158 316v-246h303v-70h-379v680h356v-70h-280v-227h235v-67h-235zM324 923l54 -40l-107 -134l-45 27z" />
    <glyph glyph-name="Ecircumflex" unicode="&#xca;" horiz-adv-x="508" 
d="M158 316v-246h303v-70h-379v680h356v-70h-280v-227h235v-67h-235zM270 870l125 -88l-32 -41l-92 61l-94 -60l-31 42z" />
    <glyph glyph-name="Edieresis" unicode="&#xcb;" horiz-adv-x="508" 
d="M158 316v-246h303v-70h-379v680h356v-70h-280v-227h235v-67h-235zM222 753h-80v83h80v-83zM401 753h-79v83h79v-83z" />
    <glyph glyph-name="Igrave" unicode="&#xcc;" horiz-adv-x="294" 
d="M114 680h76v-680h-76v680zM104 927l95 -149l-44 -31l-108 138z" />
    <glyph glyph-name="Iacute" unicode="&#xcd;" horiz-adv-x="294" 
d="M109 680h76v-680h-76v680zM200 923l54 -40l-107 -134l-45 27z" />
    <glyph glyph-name="Icircumflex" unicode="&#xce;" horiz-adv-x="294" 
d="M113 680h76v-680h-76v680zM152 871l125 -88l-32 -41l-92 61l-94 -60l-31 42z" />
    <glyph glyph-name="Idieresis" unicode="&#xcf;" horiz-adv-x="294" 
d="M111 680h76v-680h-76v680zM101 751h-80v83h80v-83zM280 751h-79v83h79v-83z" />
    <glyph glyph-name="Eth" unicode="&#xd0;" horiz-adv-x="670" 
d="M24 378h133v311h204q51 0 98.5 -15.5t83.5 -43.5t58 -66.5t22 -84.5v-266q0 -49 -20.5 -88t-56.5 -67t-84 -43t-102 -15h-203v316h-133v62zM546 479q0 30 -16 55.5t-42 44t-59 29.5t-68 11h-127v-241h150v-62h-151v-247h127q38 0 72 10t59.5 29t40 45.5t14.5 59.5v266z
" />
    <glyph glyph-name="Ntilde" unicode="&#xd1;" horiz-adv-x="704" 
d="M553 680h69v-680h-102l-369 588v-588h-69v680h99l372 -591v591zM286 789q-18 0 -30 -12t-19 -23l-39 31q19 31 40.5 48t50.5 17q17 0 34 -7t33.5 -15t32.5 -15t31 -7q17 1 26.5 10.5t17.5 22.5l41 -27q-5 -9 -12.5 -20.5t-17.5 -22t-23 -17.5t-30 -7q-20 0 -37.5 7
t-33.5 15t-31.5 15t-33.5 7z" />
    <glyph glyph-name="Ograve" unicode="&#xd2;" horiz-adv-x="650" 
d="M334 690q50 0 96.5 -15t83 -42.5t58.5 -67t22 -89.5v-272q0 -52 -21.5 -92t-57.5 -67t-83 -41t-98 -14h-16q-52 0 -99.5 13.5t-83.5 40.5t-57.5 67t-21.5 93v272q0 50 22 89.5t58.5 67.5t83.5 42.5t97 14.5h17v0zM518 475q0 34 -16 61t-42 45.5t-59 28.5t-67 10h-17
q-34 0 -67.5 -10t-59.5 -28.5t-42 -45t-16 -60.5v-272q0 -36 15.5 -63t41 -45t59.5 -27t70 -9h16q35 0 68.5 9t59 27t41 45t15.5 63v271zM274 927l95 -149l-44 -31l-108 138z" />
    <glyph glyph-name="Oacute" unicode="&#xd3;" horiz-adv-x="650" 
d="M334 690q50 0 96.5 -15t83 -42.5t58.5 -67t22 -89.5v-272q0 -52 -21.5 -92t-57.5 -67t-83 -41t-98 -14h-16q-52 0 -99.5 13.5t-83.5 40.5t-57.5 67t-21.5 93v272q0 50 22 89.5t58.5 67.5t83.5 42.5t97 14.5h17v0zM518 475q0 34 -16 61t-42 45.5t-59 28.5t-67 10h-17
q-34 0 -67.5 -10t-59.5 -28.5t-42 -45t-16 -60.5v-272q0 -36 15.5 -63t41 -45t59.5 -27t70 -9h16q35 0 68.5 9t59 27t41 45t15.5 63v271zM378 923l54 -40l-107 -134l-45 27z" />
    <glyph glyph-name="Ocircumflex" unicode="&#xd4;" horiz-adv-x="650" 
d="M334 690q50 0 96.5 -15t83 -42.5t58.5 -67t22 -89.5v-272q0 -52 -21.5 -92t-57.5 -67t-83 -41t-98 -14h-16q-52 0 -99.5 13.5t-83.5 40.5t-57.5 67t-21.5 93v272q0 50 22 89.5t58.5 67.5t83.5 42.5t97 14.5h17v0zM518 475q0 34 -16 61t-42 45.5t-59 28.5t-67 10h-17
q-34 0 -67.5 -10t-59.5 -28.5t-42 -45t-16 -60.5v-272q0 -36 15.5 -63t41 -45t59.5 -27t70 -9h16q35 0 68.5 9t59 27t41 45t15.5 63v271zM324 880l125 -88l-32 -41l-92 61l-94 -60l-31 42z" />
    <glyph glyph-name="Otilde" unicode="&#xd5;" horiz-adv-x="650" 
d="M334 690q50 0 96.5 -15t83 -42.5t58.5 -67t22 -89.5v-272q0 -52 -21.5 -92t-57.5 -67t-83 -41t-98 -14h-16q-52 0 -99.5 13.5t-83.5 40.5t-57.5 67t-21.5 93v272q0 50 22 89.5t58.5 67.5t83.5 42.5t97 14.5h17v0zM518 475q0 34 -16 61t-42 45.5t-59 28.5t-67 10h-17
q-34 0 -67.5 -10t-59.5 -28.5t-42 -45t-16 -60.5v-272q0 -36 15.5 -63t41 -45t59.5 -27t70 -9h16q35 0 68.5 9t59 27t41 45t15.5 63v271zM259 799q-18 0 -30 -12t-19 -23l-39 31q19 31 40.5 48t50.5 17q17 0 34 -7t33.5 -15t32.5 -15t31 -7q17 1 26.5 10.5t17.5 22.5l41 -27
q-5 -9 -12.5 -20.5t-17.5 -22t-23 -17.5t-30 -7q-20 0 -37.5 7t-33.5 15t-31.5 15t-33.5 7z" />
    <glyph glyph-name="Odieresis" unicode="&#xd6;" horiz-adv-x="650" 
d="M334 690q50 0 96.5 -15t83 -42.5t58.5 -67t22 -89.5v-272q0 -52 -21.5 -92t-57.5 -67t-83 -41t-98 -14h-16q-52 0 -99.5 13.5t-83.5 40.5t-57.5 67t-21.5 93v272q0 50 22 89.5t58.5 67.5t83.5 42.5t97 14.5h17v0zM518 475q0 34 -16 61t-42 45.5t-59 28.5t-67 10h-17
q-34 0 -67.5 -10t-59.5 -28.5t-42 -45t-16 -60.5v-272q0 -36 15.5 -63t41 -45t59.5 -27t70 -9h16q35 0 68.5 9t59 27t41 45t15.5 63v271zM275 753h-80v83h80v-83zM454 753h-79v83h79v-83z" />
    <glyph glyph-name="multiply" unicode="&#xd7;" horiz-adv-x="552" 
d="M495 490l-182 -238l193 -252h-77l-154 204l-153 -204h-75l192 252l-182 238h72l146 -190l149 190h71z" />
    <glyph glyph-name="Oslash" unicode="&#xd8;" horiz-adv-x="624" 
d="M334 690q58 0 110 -20l42 92h61l-53 -117q45 -27 72.5 -70t27.5 -99v-272q0 -52 -21.5 -92t-57.5 -67t-83 -41t-98 -14h-16q-30 0 -58.5 5t-54.5 13l-36 -82h-64l48 106q-44 26 -70.5 69t-26.5 103v272q0 50 22 89.5t58.5 67.5t83.5 42.5t97 14.5h17v0zM132 204
q0 -35 15 -60.5t40 -42.5l227 504q-39 15 -80 15h-17q-34 0 -67.5 -10t-59.5 -28.5t-42 -45t-16 -60.5v-272v0zM518 475q0 32 -16 57.5t-41 42.5l-225 -503q38 -12 82 -12h16q35 0 68.5 9t59 27t41 45t15.5 63v271z" />
    <glyph glyph-name="Ugrave" unicode="&#xd9;" horiz-adv-x="682" 
d="M524 680h76v-472q0 -54 -20 -95t-55 -68.5t-81.5 -41t-100.5 -13.5q-55 0 -102.5 13.5t-83 40.5t-55.5 68t-20 96v472h76v-472q0 -38 14.5 -66t39.5 -46t58.5 -27t71.5 -9q36 0 69 9.5t58 28t40 46.5t15 64v472zM290 897l95 -149l-44 -31l-108 138z" />
    <glyph glyph-name="Uacute" unicode="&#xda;" horiz-adv-x="682" 
d="M524 680h76v-472q0 -54 -20 -95t-55 -68.5t-81.5 -41t-100.5 -13.5q-55 0 -102.5 13.5t-83 40.5t-55.5 68t-20 96v472h76v-472q0 -38 14.5 -66t39.5 -46t58.5 -27t71.5 -9q36 0 69 9.5t58 28t40 46.5t15 64v472zM393 893l54 -40l-107 -134l-45 27z" />
    <glyph glyph-name="Ucircumflex" unicode="&#xdb;" horiz-adv-x="682" 
d="M524 680h76v-472q0 -54 -20 -95t-55 -68.5t-81.5 -41t-100.5 -13.5q-55 0 -102.5 13.5t-83 40.5t-55.5 68t-20 96v472h76v-472q0 -38 14.5 -66t39.5 -46t58.5 -27t71.5 -9q36 0 69 9.5t58 28t40 46.5t15 64v472zM340 873l125 -88l-32 -41l-92 61l-94 -60l-31 42z" />
    <glyph glyph-name="Udieresis" unicode="&#xdc;" horiz-adv-x="682" 
d="M524 680h76v-472q0 -54 -20 -95t-55 -68.5t-81.5 -41t-100.5 -13.5q-55 0 -102.5 13.5t-83 40.5t-55.5 68t-20 96v472h76v-472q0 -38 14.5 -66t39.5 -46t58.5 -27t71.5 -9q36 0 69 9.5t58 28t40 46.5t15 64v472zM291 754h-80v83h80v-83zM470 754h-79v83h79v-83z" />
    <glyph glyph-name="Yacute" unicode="&#xdd;" horiz-adv-x="633" 
d="M272 273l-251 407h89l201 -335l203 335h90l-256 -407v-273h-76v273zM365 894l54 -40l-107 -134l-45 27z" />
    <glyph glyph-name="Thorn" unicode="&#xde;" horiz-adv-x="500" 
d="M271 545q41 0 74.5 -13.5t57.5 -37t37.5 -56t13.5 -71.5v-19q0 -77 -49 -121t-134 -44h-148v-184h-76v681h76v-135h148zM377 367q0 21 -7.5 40.5t-22 34.5t-34.5 24.5t-45 9.5h-145v-224h145q48 0 78.5 27t30.5 69v19z" />
    <glyph glyph-name="agrave" unicode="&#xe0;" horiz-adv-x="495" 
d="M255 500q82 0 129.5 -44t47.5 -127v-329h-65l-10 66q-27 -44 -65 -59.5t-86 -15.5q-71 0 -114.5 40.5t-43.5 112.5v96l307 54v35q0 53 -27.5 78t-80.5 25q-21 0 -44 -5t-44 -12t-38.5 -15t-28.5 -15l-26 55q16 10 38 20.5t47 19.5t52 14.5t52 5.5zM354 236l-230 -40v-49
q0 -42 28.5 -65t70.5 -23q23 0 46 6.5t42 19.5t31 31t12 41v79zM188 728l95 -149l-44 -31l-108 138z" />
    <glyph glyph-name="aacute" unicode="&#xe1;" horiz-adv-x="495" 
d="M255 500q82 0 129.5 -44t47.5 -127v-329h-65l-10 66q-27 -44 -65 -59.5t-86 -15.5q-71 0 -114.5 40.5t-43.5 112.5v96l307 54v35q0 53 -27.5 78t-80.5 25q-21 0 -44 -5t-44 -12t-38.5 -15t-28.5 -15l-26 55q16 10 38 20.5t47 19.5t52 14.5t52 5.5zM354 236l-230 -40v-49
q0 -42 28.5 -65t70.5 -23q23 0 46 6.5t42 19.5t31 31t12 41v79zM291 723l54 -40l-107 -134l-45 27z" />
    <glyph glyph-name="acircumflex" unicode="&#xe2;" horiz-adv-x="495" 
d="M255 500q82 0 129.5 -44t47.5 -127v-329h-65l-10 66q-27 -44 -65 -59.5t-86 -15.5q-71 0 -114.5 40.5t-43.5 112.5v96l307 54v35q0 53 -27.5 78t-80.5 25q-21 0 -44 -5t-44 -12t-38.5 -15t-28.5 -15l-26 55q16 10 38 20.5t47 19.5t52 14.5t52 5.5zM354 236l-230 -40v-49
q0 -42 28.5 -65t70.5 -23q23 0 46 6.5t42 19.5t31 31t12 41v79zM238 692l125 -88l-32 -41l-92 61l-94 -60l-31 42z" />
    <glyph glyph-name="atilde" unicode="&#xe3;" horiz-adv-x="495" 
d="M255 500q82 0 129.5 -44t47.5 -127v-329h-65l-10 66q-27 -44 -65 -59.5t-86 -15.5q-71 0 -114.5 40.5t-43.5 112.5v96l307 54v35q0 53 -27.5 78t-80.5 25q-21 0 -44 -5t-44 -12t-38.5 -15t-28.5 -15l-26 55q16 10 38 20.5t47 19.5t52 14.5t52 5.5zM354 236l-230 -40v-49
q0 -42 28.5 -65t70.5 -23q23 0 46 6.5t42 19.5t31 31t12 41v79zM173 629q-18 0 -30 -12t-19 -23l-39 31q19 31 40.5 48t50.5 17q17 0 34 -7t33.5 -15t32.5 -15t31 -7q17 1 26.5 10.5t17.5 22.5l41 -27q-5 -9 -12.5 -20.5t-17.5 -22t-23 -17.5t-30 -7q-20 0 -37.5 7t-33.5 15
t-31.5 15t-33.5 7z" />
    <glyph glyph-name="adieresis" unicode="&#xe4;" horiz-adv-x="495" 
d="M255 500q82 0 129.5 -44t47.5 -127v-329h-65l-10 66q-27 -44 -65 -59.5t-86 -15.5q-71 0 -114.5 40.5t-43.5 112.5v96l307 54v35q0 53 -27.5 78t-80.5 25q-21 0 -44 -5t-44 -12t-38.5 -15t-28.5 -15l-26 55q16 10 38 20.5t47 19.5t52 14.5t52 5.5zM354 236l-230 -40v-49
q0 -42 28.5 -65t70.5 -23q23 0 46 6.5t42 19.5t31 31t12 41v79zM189 575h-80v83h80v-83zM368 575h-79v83h79v-83z" />
    <glyph glyph-name="aring" unicode="&#xe5;" horiz-adv-x="495" 
d="M255 500q82 0 129.5 -44t47.5 -127v-329h-65l-10 66q-27 -44 -65 -59.5t-86 -15.5q-71 0 -114.5 40.5t-43.5 112.5v96l307 54v35q0 53 -27.5 78t-80.5 25q-21 0 -44 -5t-44 -12t-38.5 -15t-28.5 -15l-26 55q16 10 38 20.5t47 19.5t52 14.5t52 5.5zM354 236l-230 -40v-49
q0 -42 28.5 -65t70.5 -23q23 0 46 6.5t42 19.5t31 31t12 41v79zM237 557q-16 0 -30 6t-24.5 16.5t-17 25t-6.5 30.5q0 33 23 55t55 22t56 -22t24 -55q0 -32 -24 -55t-56 -23zM198 634q0 -17 11.5 -28t28.5 -11t28.5 11t11.5 28t-11.5 29.5t-28.5 12.5t-28.5 -12.5
t-11.5 -29.5z" />
    <glyph glyph-name="ae" unicode="&#xe6;" horiz-adv-x="807" 
d="M577 60q25 0 48 5t42 13t33.5 17t23.5 16l36 -51q-38 -34 -86.5 -50.5t-99.5 -16.5q-66 0 -117.5 22t-77.5 70q-27 -51 -73.5 -71.5t-95.5 -20.5q-35 0 -65 10.5t-51.5 30t-34 48t-12.5 63.5v91l308 46v48q0 53 -27.5 78.5t-80.5 25.5q-19 0 -42 -5t-44.5 -12.5
t-40 -15.5t-29.5 -15l-25 55q15 11 36.5 21.5t46 19t50.5 14t51 5.5q55 0 91.5 -21.5t53.5 -56.5q23 36 66 57.5t97 21.5q41 0 76 -12.5t61 -35t40.5 -55t14.5 -72.5v-59l-322 -41v-56q0 -28 13 -48.5t34 -34.5t47.5 -21t54.5 -7zM556 433q-26 0 -49 -8t-40.5 -22.5
t-28 -33.5t-10.5 -42v-43l244 29v20q0 51 -32.5 75.5t-83.5 24.5zM356 225l-232 -32v-45q0 -42 28.5 -65t70.5 -23q23 0 46.5 5.5t42.5 16.5t31.5 27.5t12.5 39.5v76z" />
    <glyph glyph-name="ccedilla" unicode="&#xe7;" horiz-adv-x="453" 
d="M243 430q-51 0 -85.5 -27.5t-34.5 -77.5v-160q0 -55 35.5 -80t89.5 -25q35 0 67 10t64 36l32 -58q-39 -35 -78.5 -46.5t-88.5 -11.5q-43 0 -79.5 11t-62.5 32.5t-40.5 54.5t-14.5 77v160q0 41 15 73.5t41.5 55t62 34.5t77.5 12q58 0 96 -16.5t75 -53.5l-44 -54
q-26 26 -59 40t-68 14zM266 14l-14 -56q4 -2 15.5 -7t24 -16t22.5 -28.5t10 -42.5q0 -40 -31 -67t-82 -42l-23 44q7 3 18.5 8t23 12.5t19.5 18t8 22.5q0 17 -8 28.5t-19 19t-23 11.5t-21 6l20 89h60z" />
    <glyph glyph-name="egrave" unicode="&#xe8;" horiz-adv-x="493" 
d="M272 60q50 0 89 16t58 32l36 -54q-38 -34 -87 -49t-100 -15q-45 0 -85 11t-70.5 33t-48 55.5t-17.5 79.5v161q0 39 16 70.5t43.5 53.5t65 34t80.5 12q41 0 76 -12t61 -34t41 -53t15 -69v-71l-322 -46v-46q0 -28 12.5 -48.5t33.5 -34t48 -20t55 -6.5zM251 431
q-26 0 -49 -7.5t-40.5 -20.5t-28 -31.5t-10.5 -41.5v-58l244 35v28q0 44 -32.5 70t-83.5 26zM200 717l95 -149l-44 -31l-108 138z" />
    <glyph glyph-name="eacute" unicode="&#xe9;" horiz-adv-x="493" 
d="M272 60q50 0 89 16t58 32l36 -54q-38 -34 -87 -49t-100 -15q-45 0 -85 11t-70.5 33t-48 55.5t-17.5 79.5v161q0 39 16 70.5t43.5 53.5t65 34t80.5 12q41 0 76 -12t61 -34t41 -53t15 -69v-71l-322 -46v-46q0 -28 12.5 -48.5t33.5 -34t48 -20t55 -6.5zM251 431
q-26 0 -49 -7.5t-40.5 -20.5t-28 -31.5t-10.5 -41.5v-58l244 35v28q0 44 -32.5 70t-83.5 26zM303 723l54 -40l-107 -134l-45 27z" />
    <glyph glyph-name="ecircumflex" unicode="&#xea;" horiz-adv-x="493" 
d="M272 60q50 0 89 16t58 32l36 -54q-38 -34 -87 -49t-100 -15q-45 0 -85 11t-70.5 33t-48 55.5t-17.5 79.5v161q0 39 16 70.5t43.5 53.5t65 34t80.5 12q41 0 76 -12t61 -34t41 -53t15 -69v-71l-322 -46v-46q0 -28 12.5 -48.5t33.5 -34t48 -20t55 -6.5zM251 431
q-26 0 -49 -7.5t-40.5 -20.5t-28 -31.5t-10.5 -41.5v-58l244 35v28q0 44 -32.5 70t-83.5 26zM250 691l125 -88l-32 -41l-92 61l-94 -60l-31 42z" />
    <glyph glyph-name="edieresis" unicode="&#xeb;" horiz-adv-x="493" 
d="M272 60q50 0 89 16t58 32l36 -54q-38 -34 -87 -49t-100 -15q-45 0 -85 11t-70.5 33t-48 55.5t-17.5 79.5v161q0 39 16 70.5t43.5 53.5t65 34t80.5 12q41 0 76 -12t61 -34t41 -53t15 -69v-71l-322 -46v-46q0 -28 12.5 -48.5t33.5 -34t48 -20t55 -6.5zM251 431
q-26 0 -49 -7.5t-40.5 -20.5t-28 -31.5t-10.5 -41.5v-58l244 35v28q0 44 -32.5 70t-83.5 26zM201 567h-80v83h80v-83zM380 567h-79v83h79v-83z" />
    <glyph glyph-name="igrave" unicode="&#xec;" horiz-adv-x="247" 
d="M94 490h76v-490h-76v490zM82 727l95 -149l-44 -31l-108 138z" />
    <glyph glyph-name="iacute" unicode="&#xed;" horiz-adv-x="247" 
d="M94 490h76v-490h-76v490zM184 723l54 -40l-107 -134l-45 27z" />
    <glyph glyph-name="icircumflex" unicode="&#xee;" horiz-adv-x="247" 
d="M92 490h76v-490h-76v490zM130 700l125 -88l-32 -41l-92 61l-94 -60l-31 42z" />
    <glyph glyph-name="idieresis" unicode="&#xef;" horiz-adv-x="247" 
d="M90 490h76v-490h-76v490zM79 575h-80v83h80v-83zM258 575h-79v83h79v-83z" />
    <glyph glyph-name="eth" unicode="&#xf0;" horiz-adv-x="514" 
d="M434 721l25 -48l-116 -52q54 -55 84.5 -125.5t30.5 -157.5v-173q0 -38 -16.5 -70t-44.5 -55.5t-66 -36.5t-82 -13q-42 0 -79 13t-64 36t-43 55t-16 71v142q0 37 13 69t37 55t57 36.5t73 13.5q38 0 76.5 -10.5t64.5 -38.5q-11 45 -37.5 83.5t-60.5 72.5l-146 -66l-23 48
l122 55q-29 22 -58 36.5t-64 22.5l19 68q104 -27 181 -91zM382 304q0 24 -11 43.5t-29 34t-42.5 22t-51.5 7.5q-25 0 -48 -8t-40 -21.5t-27 -32.5t-10 -42v-142q0 -23 10 -42t27.5 -33t40.5 -22t49 -8t50 8t42 22t29 33t11 42v139z" />
    <glyph glyph-name="ntilde" unicode="&#xf1;" horiz-adv-x="550" 
d="M316 501q84 0 126.5 -45.5t42.5 -128.5v-327h-76v317q0 53 -28.5 83.5t-80.5 30.5q-26 0 -53 -10.5t-48.5 -28.5t-35 -41.5t-13.5 -49.5v-301h-77v490h69l8 -89q29 45 70 72.5t96 27.5zM214 629q-18 0 -30 -12t-19 -23l-39 31q19 31 40.5 48t50.5 17q17 0 34 -7t33.5 -15
t32.5 -15t31 -7q17 1 26.5 10.5t17.5 22.5l41 -27q-5 -9 -12.5 -20.5t-17.5 -22t-23 -17.5t-30 -7q-20 0 -37.5 7t-33.5 15t-31.5 15t-33.5 7z" />
    <glyph glyph-name="ograve" unicode="&#xf2;" horiz-adv-x="506" 
d="M254 501q44 0 81 -12t65 -35t43.5 -55t15.5 -73v-159q0 -41 -17 -73.5t-45 -55.5t-65 -35t-78 -12t-78.5 12t-66 35t-45.5 55.5t-17 73.5v159q0 41 16.5 73t44.5 55t66 35t80 12zM383 326q0 25 -11 44.5t-29 33t-41 20.5t-48 7t-48.5 -7t-42 -20.5t-29.5 -33t-11 -44.5
v-159q0 -25 11 -45t29 -33.5t42 -20.5t49 -7t48 7t41 20.5t29 33.5t11 45v159zM202 717l95 -149l-44 -31l-108 138z" />
    <glyph glyph-name="oacute" unicode="&#xf3;" horiz-adv-x="506" 
d="M254 501q44 0 81 -12t65 -35t43.5 -55t15.5 -73v-159q0 -41 -17 -73.5t-45 -55.5t-65 -35t-78 -12t-78.5 12t-66 35t-45.5 55.5t-17 73.5v159q0 41 16.5 73t44.5 55t66 35t80 12zM383 326q0 25 -11 44.5t-29 33t-41 20.5t-48 7t-48.5 -7t-42 -20.5t-29.5 -33t-11 -44.5
v-159q0 -25 11 -45t29 -33.5t42 -20.5t49 -7t48 7t41 20.5t29 33.5t11 45v159zM305 723l54 -40l-107 -134l-45 27z" />
    <glyph glyph-name="ocircumflex" unicode="&#xf4;" horiz-adv-x="506" 
d="M254 501q44 0 81 -12t65 -35t43.5 -55t15.5 -73v-159q0 -41 -17 -73.5t-45 -55.5t-65 -35t-78 -12t-78.5 12t-66 35t-45.5 55.5t-17 73.5v159q0 41 16.5 73t44.5 55t66 35t80 12zM383 326q0 25 -11 44.5t-29 33t-41 20.5t-48 7t-48.5 -7t-42 -20.5t-29.5 -33t-11 -44.5
v-159q0 -25 11 -45t29 -33.5t42 -20.5t49 -7t48 7t41 20.5t29 33.5t11 45v159zM252 691l125 -88l-32 -41l-92 61l-94 -60l-31 42z" />
    <glyph glyph-name="otilde" unicode="&#xf5;" horiz-adv-x="506" 
d="M254 501q44 0 81 -12t65 -35t43.5 -55t15.5 -73v-159q0 -41 -17 -73.5t-45 -55.5t-65 -35t-78 -12t-78.5 12t-66 35t-45.5 55.5t-17 73.5v159q0 41 16.5 73t44.5 55t66 35t80 12zM383 326q0 25 -11 44.5t-29 33t-41 20.5t-48 7t-48.5 -7t-42 -20.5t-29.5 -33t-11 -44.5
v-159q0 -25 11 -45t29 -33.5t42 -20.5t49 -7t48 7t41 20.5t29 33.5t11 45v159zM187 610q-18 0 -30 -12t-19 -23l-39 31q19 31 40.5 48t50.5 17q17 0 34 -7t33.5 -15t32.5 -15t31 -7q17 1 26.5 10.5t17.5 22.5l41 -27q-5 -9 -12.5 -20.5t-17.5 -22t-23 -17.5t-30 -7
q-20 0 -37.5 7t-33.5 15t-31.5 15t-33.5 7z" />
    <glyph glyph-name="odieresis" unicode="&#xf6;" horiz-adv-x="506" 
d="M254 501q44 0 81 -12t65 -35t43.5 -55t15.5 -73v-159q0 -41 -17 -73.5t-45 -55.5t-65 -35t-78 -12t-78.5 12t-66 35t-45.5 55.5t-17 73.5v159q0 41 16.5 73t44.5 55t66 35t80 12zM383 326q0 25 -11 44.5t-29 33t-41 20.5t-48 7t-48.5 -7t-42 -20.5t-29.5 -33t-11 -44.5
v-159q0 -25 11 -45t29 -33.5t42 -20.5t49 -7t48 7t41 20.5t29 33.5t11 45v159zM203 565h-80v83h80v-83zM382 565h-79v83h79v-83z" />
    <glyph glyph-name="divide" unicode="&#xf7;" horiz-adv-x="674" 
d="M47 312h580v-61h-580v61zM283 174h106v-103h-106v103zM389 385h-106v103h106v-103z" />
    <glyph glyph-name="oslash" unicode="&#xf8;" horiz-adv-x="503" 
d="M44 -64l61 106q-27 22 -42.5 53.5t-15.5 71.5v159q0 41 16.5 73t44.5 55t66 35t80 12q29 0 55.5 -6t49.5 -17l37 62h54l-50 -86q28 -23 43.5 -55t15.5 -73v-159q0 -41 -17 -73.5t-45 -55.5t-65 -35t-78 -12q-58 0 -108 25l-46 -80h-56zM123 167q0 -34 20 -59l181 307
q-34 16 -70 16q-25 0 -48.5 -7t-42 -20.5t-29.5 -33t-11 -44.5v-159v0zM383 326q0 17 -6.5 30.5t-17.5 24.5l-177 -302q15 -9 33.5 -13.5t38.5 -4.5q25 0 48 7t41 20.5t29 33.5t11 45v159z" />
    <glyph glyph-name="ugrave" unicode="&#xf9;" horiz-adv-x="543" 
d="M402 490h76v-325q0 -41 -16.5 -73.5t-44 -55t-64.5 -34.5t-78 -12t-78 12t-64.5 34.5t-44 55t-16.5 73.5v325h77v-325q0 -25 10.5 -44.5t27.5 -33t40 -20.5t48 -7q24 0 47 7t41 20.5t28.5 33t10.5 44.5v325zM225 717l95 -149l-44 -31l-108 138z" />
    <glyph glyph-name="uacute" unicode="&#xfa;" horiz-adv-x="543" 
d="M402 490h76v-325q0 -41 -16.5 -73.5t-44 -55t-64.5 -34.5t-78 -12t-78 12t-64.5 34.5t-44 55t-16.5 73.5v325h77v-325q0 -25 10.5 -44.5t27.5 -33t40 -20.5t48 -7q24 0 47 7t41 20.5t28.5 33t10.5 44.5v325zM328 713l54 -40l-107 -134l-45 27z" />
    <glyph glyph-name="ucircumflex" unicode="&#xfb;" horiz-adv-x="543" 
d="M402 490h76v-325q0 -41 -16.5 -73.5t-44 -55t-64.5 -34.5t-78 -12t-78 12t-64.5 34.5t-44 55t-16.5 73.5v325h77v-325q0 -25 10.5 -44.5t27.5 -33t40 -20.5t48 -7q24 0 47 7t41 20.5t28.5 33t10.5 44.5v325zM275 700l125 -88l-32 -41l-92 61l-94 -60l-31 42z" />
    <glyph glyph-name="udieresis" unicode="&#xfc;" horiz-adv-x="543" 
d="M402 490h76v-325q0 -41 -16.5 -73.5t-44 -55t-64.5 -34.5t-78 -12t-78 12t-64.5 34.5t-44 55t-16.5 73.5v325h77v-325q0 -25 10.5 -44.5t27.5 -33t40 -20.5t48 -7q24 0 47 7t41 20.5t28.5 33t10.5 44.5v325zM226 584h-80v83h80v-83zM405 584h-79v83h79v-83z" />
    <glyph glyph-name="yacute" unicode="&#xfd;" horiz-adv-x="460" 
d="M191 -14l-172 504h81l132 -413l132 413h81l-192 -549q-27 -79 -87.5 -116t-135.5 -38l-7 62q49 1 94 28t64 77zM279 713l54 -40l-107 -134l-45 27z" />
    <glyph glyph-name="thorn" unicode="&#xfe;" horiz-adv-x="538" 
d="M303 501q42 0 76.5 -12t59 -34.5t38.5 -54t14 -70.5v-166q0 -39 -14 -71t-39 -55.5t-59.5 -36t-76.5 -12.5q-48 0 -89 19t-64 53v-317h-76v969h76v-282q24 32 66.5 51t87.5 19zM415 330q0 23 -10 41.5t-27.5 32t-40 20.5t-48.5 7q-27 0 -51 -7.5t-43 -21t-30 -32
t-11 -40.5v-170q0 -23 11 -41.5t30 -32t43 -20.5t51 -7q26 0 49 7t40 20t27 32t10 42v170z" />
    <glyph glyph-name="ydieresis" unicode="&#xff;" horiz-adv-x="460" 
d="M191 -14l-172 504h81l132 -413l132 413h81l-192 -549q-27 -79 -87.5 -116t-135.5 -38l-7 62q49 1 94 28t64 77zM177 584h-80v83h80v-83zM356 584h-79v83h79v-83z" />
    <glyph glyph-name="dotlessi" unicode="&#x131;" horiz-adv-x="248" 
d="M82 490h76v-490h-76v490z" />
    <glyph glyph-name="Lslash" unicode="&#x141;" horiz-adv-x="562" 
d="M222 680v-276l127 68l22 -44l-149 -80v-278h328v-70h-404v310l-112 -60l-22 44l134 71v315h76z" />
    <glyph glyph-name="lslash" unicode="&#x142;" horiz-adv-x="376" 
d="M44 267l-23 43l130 71v349h76v-312l114 62l23 -44l-137 -73v-363h-76v325z" />
    <glyph glyph-name="OE" unicode="&#x152;" horiz-adv-x="889" 
d="M538 317v-247h304v-70h-525q-54 0 -102 17t-83 46t-55.5 68t-20.5 84v251q0 42 21 80.5t57 68t83 47t99 17.5h502v-69h-280v-225h236v-68h-236zM132 215q1 -31 15.5 -58t39.5 -46t58.5 -30t71.5 -11h144v540h-145q-34 0 -67 -12t-59 -32t-42 -46t-16 -54v-251v0z" />
    <glyph glyph-name="oe" unicode="&#x153;" horiz-adv-x="835" 
d="M608 63q18 0 37.5 4t38.5 10.5t35 15.5t27 19l42 -49q-35 -32 -85.5 -49t-98.5 -17q-29 0 -57.5 4.5t-53.5 15t-45.5 27t-35.5 40.5q-24 -45 -71 -67t-101 -22q-42 0 -77.5 13t-61 36t-40 55t-14.5 71v153q0 38 14 69.5t39.5 54t60.5 35t77 12.5q26 0 52 -5t49.5 -15.5
t42.5 -27t31 -38.5q24 36 66 61.5t101 25.5q40 0 76 -10.5t63.5 -32t44 -53.5t16.5 -76v-62l-321 -46v-49q0 -26 13.5 -45.5t34.5 -32t47.5 -19t53.5 -6.5zM252 65q25 0 48 7.5t41 21t29 31.5t12 40v162q-1 22 -12 40t-29 31.5t-41 21t-49 7.5t-49.5 -8t-41 -21.5
t-27.5 -32.5t-10 -42v-153q0 -23 10.5 -42t28 -33t41 -22t49.5 -8zM588 427q-25 0 -48 -8t-40.5 -21.5t-28.5 -32t-12 -39.5v-51l244 34v17q0 23 -9.5 41.5t-25 31.5t-36.5 20.5t-44 7.5z" />
    <glyph glyph-name="Scaron" unicode="&#x160;" horiz-adv-x="558" 
d="M533 303v-122q0 -49 -18.5 -85t-50 -59t-74 -34.5t-90.5 -11.5q-76 0 -142.5 29.5t-107.5 89.5l53 47q32 -45 86 -70.5t108 -25.5q32 0 61 7t51 22t35 37.5t13 53.5v74l-373 125v132q0 47 17.5 80.5t48 55.5t72 32t88.5 10q72 0 125 -24.5t92 -63.5l-45 -58
q-13 15 -32.5 28.5t-42 24t-47.5 17t-51 6.5q-30 0 -57 -6t-47.5 -18.5t-32.5 -33t-12 -50.5v-85zM290 700l-110 108l37 34l73 -73l71 73l36 -34z" />
    <glyph glyph-name="scaron" unicode="&#x161;" horiz-adv-x="440" 
d="M409 226v-85q0 -40 -14.5 -68.5t-40 -46.5t-60 -26.5t-73.5 -8.5q-53 0 -103 21.5t-87 57.5l42 55q14 -13 31.5 -25t38 -21.5t41.5 -15t41 -5.5q23 0 43 4t35 13t24 24.5t9 37.5v46l-278 88v87q0 36 13.5 63t37 44.5t55.5 26t69 8.5q44 0 88 -17t76 -43l-38 -56
q-25 19 -61 33.5t-70 14.5q-41 0 -69 -16.5t-28 -57.5v-46zM223 500l-110 108l37 34l73 -73l71 73l36 -34z" />
    <glyph glyph-name="Ydieresis" unicode="&#x178;" horiz-adv-x="633" 
d="M272 273l-251 407h89l201 -335l203 335h90l-256 -407v-273h-76v273zM262 734h-80v83h80v-83zM441 734h-79v83h79v-83z" />
    <glyph glyph-name="Zcaron" unicode="&#x17d;" horiz-adv-x="579" 
d="M524 680v-42l-361 -568h366v-70h-482v36l368 574h-357v70h466zM290 700l-110 108l37 34l73 -73l71 73l36 -34z" />
    <glyph glyph-name="zcaron" unicode="&#x17e;" horiz-adv-x="434" 
d="M375 490v-41l-244 -383h261v-66h-350v49l245 380h-240v61h328zM218 490l-110 108l37 34l73 -73l71 73l36 -34z" />
    <glyph glyph-name="florin" unicode="&#x192;" horiz-adv-x="558" 
d="M416 759q38 0 74 -10.5t56 -31.5l-37 -53q-21 17 -45.5 24.5t-47.5 7.5q-41 0 -73 -26.5t-38 -64.5l-17 -121h109l-2 -59h-114q-6 -42 -13 -93.5t-13.5 -104t-13 -103t-11.5 -91.5q-5 -36 -25 -63t-50 -45t-67 -27t-76 -9v66q27 0 51 6t43.5 18t32 30t15.5 41l49 375h-97
l2 59h103l17 129q4 32 20.5 58.5t42 46t57.5 30.5t68 11z" />
    <glyph glyph-name="circumflex" unicode="&#x2c6;" horiz-adv-x="349" 
d="M174 700l125 -88l-32 -41l-92 61l-94 -60l-31 42z" />
    <glyph glyph-name="caron" unicode="&#x2c7;" horiz-adv-x="317" 
d="M160 490l-110 108l37 34l73 -73l71 73l36 -34z" />
    <glyph glyph-name="breve" unicode="&#x2d8;" horiz-adv-x="350" 
d="M175 595q-42 0 -75.5 22.5t-49.5 60.5l49 15q20 -52 76 -52q26 0 45.5 14t29.5 38l50 -15q-16 -39 -50 -61t-75 -22z" />
    <glyph glyph-name="dotaccent" unicode="&#x2d9;" horiz-adv-x="163" 
d="M50 702h63v-70h-63v70z" />
    <glyph glyph-name="ring" unicode="&#x2da;" horiz-adv-x="227" 
d="M113 557q-16 0 -30 6t-24.5 16.5t-17 25t-6.5 30.5q0 33 23 55t55 22t56 -22t24 -55q0 -32 -24 -55t-56 -23zM74 634q0 -17 11.5 -28t28.5 -11t28.5 11t11.5 28t-11.5 29.5t-28.5 12.5t-28.5 -12.5t-11.5 -29.5z" />
    <glyph glyph-name="ogonek" unicode="&#x2db;" horiz-adv-x="290" 
d="M196 0l15 -90q-10 -2 -24.5 -8t-28 -16.5t-23 -25t-10.5 -33.5v-12h115v-51h-186q-2 10 -3 19.5t-1 17.5q2 36 16 62t31 43.5t32 26.5t19 10l-10 57h58z" />
    <glyph glyph-name="tilde" unicode="&#x2dc;" horiz-adv-x="407" 
d="M138 629q-18 0 -30 -12t-19 -23l-39 31q19 31 40.5 48t50.5 17q17 0 34 -7t33.5 -15t32.5 -15t31 -7q17 1 26.5 10.5t17.5 22.5l41 -27q-5 -9 -12.5 -20.5t-17.5 -22t-23 -17.5t-30 -7q-20 0 -37.5 7t-33.5 15t-31.5 15t-33.5 7z" />
    <glyph glyph-name="hungarumlaut" unicode="&#x2dd;" horiz-adv-x="510" 
d="M287 696l-199 -158l-38 43l195 162zM460 691l-199 -157l-38 42l195 163z" />
    <glyph glyph-name="endash" unicode="&#x2013;" horiz-adv-x="567" 
d="M2 324h559v-62h-559v62z" />
    <glyph glyph-name="emdash" unicode="&#x2014;" horiz-adv-x="780" 
d="M3 324h773v-62h-773v62z" />
    <glyph glyph-name="quoteleft" unicode="&#x2018;" horiz-adv-x="129" 
d="M30 479v27q0 73 14.5 116t38.5 68l41 -26q-14 -23 -19.5 -54.5t-5.5 -71.5v-59h-69z" />
    <glyph glyph-name="quoteright" unicode="&#x2019;" horiz-adv-x="134" 
d="M105 676v-26q0 -40 -6.5 -69t-16 -50.5t-22 -37t-24.5 -28.5l-37 28q17 23 27 49.5t10 75.5v58h69z" />
    <glyph glyph-name="quotesinglbase" unicode="&#x201a;" horiz-adv-x="221" 
d="M187 83v-26q0 -40 -6.5 -69t-16 -50.5t-22 -37t-24.5 -28.5l-37 28q17 23 27 49.5t10 75.5v58h69z" />
    <glyph glyph-name="quotedblleft" unicode="&#x201c;" horiz-adv-x="264" 
d="M166 479v27q0 73 14.5 116t38.5 68l41 -26q-14 -23 -19.5 -54.5t-5.5 -71.5v-59h-69zM30 479v27q0 73 14.5 116t38.5 68l41 -26q-14 -23 -19.5 -54.5t-5.5 -71.5v-59h-69z" />
    <glyph glyph-name="quotedblright" unicode="&#x201d;" horiz-adv-x="273" 
d="M105 680v-26q0 -40 -6.5 -69t-16 -50.5t-22 -37t-24.5 -28.5l-37 28q17 23 27 49.5t10 75.5v58h69zM243 680v-26q0 -40 -6.5 -69t-16 -50.5t-22 -37t-24.5 -28.5l-37 28q17 23 27 49.5t10 75.5v58h69z" />
    <glyph glyph-name="quotedblbase" unicode="&#x201e;" horiz-adv-x="395" 
d="M187 84v-26q0 -40 -6.5 -69t-16 -50.5t-22 -37t-24.5 -28.5l-37 28q17 23 27 49.5t10 75.5v58h69zM349 85v-26q0 -40 -6.5 -69t-16 -50.5t-22 -37t-24.5 -28.5l-37 28q17 23 27 49.5t10 75.5v58h69z" />
    <glyph glyph-name="dagger" unicode="&#x2020;" horiz-adv-x="497" 
d="M291 490h157v-65h-157v-422h-76v422h-162v65h162v190h76v-190z" />
    <glyph glyph-name="daggerdbl" unicode="&#x2021;" horiz-adv-x="528" 
d="M305 490h185v-65h-185v-360h185v-65h-185v-187h-77v187h-190v65h190v360h-190v65h190v190h77v-190z" />
    <glyph glyph-name="bullet" unicode="&#x2022;" horiz-adv-x="332" 
d="M73 357h186v-184h-186v184z" />
    <glyph glyph-name="ellipsis" unicode="&#x2026;" horiz-adv-x="746" 
d="M320 109h106v-109h-106v109zM567 109h106v-109h-106v109zM73 109h106v-109h-106v109z" />
    <glyph glyph-name="perthousand" unicode="&#x2030;" horiz-adv-x="1030" 
d="M538 698l62 -10l-420 -691l-64 10zM326 510q0 -24 -10.5 -44.5t-28 -34.5t-41 -22t-50.5 -8t-51 8t-42 22t-28.5 34.5t-10.5 44.5v91q0 24 10.5 44t28.5 34.5t42 22t51 7.5t50.5 -8t41 -22t28 -34t10.5 -44v-91zM520 303q26 0 49.5 -7.5t41.5 -21.5t29 -33t11 -43v-93
q0 -25 -10 -45.5t-27.5 -34.5t-41.5 -21.5t-52 -7.5q-26 0 -50 7.5t-42 21.5t-29 33.5t-11 43.5v93q0 24 10.5 44t28.5 34.5t42 22t51 7.5zM129 514q0 -25 19 -38.5t48 -13.5q28 0 47 13.5t19 37.5v84q0 24 -18.5 38t-47.5 14q-28 0 -47.5 -15t-19.5 -38v-82zM586 192
q0 23 -18.5 37t-47.5 14t-47.5 -14.5t-18.5 -37.5v-83q0 -23 19 -37.5t47 -14.5q26 0 46 14t20 36v86zM834 303q26 0 50 -7.5t42 -21.5t28.5 -33t10.5 -43v-94q0 -25 -10.5 -45t-28 -34t-41.5 -21.5t-51 -7.5t-51 7.5t-41.5 21t-28 33t-10.5 43.5v94q0 24 10.5 44t28 34.5
t41.5 22t51 7.5zM901 191q0 24 -19 38t-48 14q-26 0 -46 -13.5t-20 -34.5v-88q0 -23 20 -37t46 -14q27 0 47 14t20 36v85z" />
    <glyph glyph-name="guilsinglleft" unicode="&#x2039;" horiz-adv-x="284" 
d="M201 0l-159 174l159 181l36 -37l-109 -142l109 -138z" />
    <glyph glyph-name="guilsinglright" unicode="&#x203a;" horiz-adv-x="284" 
d="M156 176l-109 142l37 37l158 -181l-158 -174l-37 38z" />
    <glyph glyph-name="fraction" unicode="&#x2044;" horiz-adv-x="526" 
d="M5 0l447 680h71l-443 -680h-75z" />
    <glyph glyph-name="foursuperior" unicode="&#x2074;" horiz-adv-x="406" 
d="M300 470h72v-51h-72v-95h-63v95h-186v40l156 221h93v-210zM237 631h-6l-110 -161h116v161z" />
    <glyph glyph-name="Euro" unicode="&#x20ac;" horiz-adv-x="653" 
d="M404 631q-70 0 -107 -38t-37 -98v-56h239v-51h-239v-75h239v-52h-239v-63q0 -29 11.5 -54t32 -43.5t47.5 -29t57 -10.5q44 0 83 14t69 39l37 -55q-80 -68 -189 -68q-50 0 -91.5 15t-71 42t-46 64.5t-16.5 83.5v65h-147v52h147v75h-147v51h147v70q0 43 16.5 78t46 60
t70 39t88.5 14q110 0 193 -68l-35 -55q-30 25 -74 39.5t-84 14.5z" />
    <glyph glyph-name="trademark" unicode="&#x2122;" horiz-adv-x="545" 
d="M311 700l57 -97l60 97h47v-210h-46v135l-50 -83h-21l-48 85v-137h-46v210h47zM36 701h186v-44h-69v-168h-46v168h-71v44z" />
    <glyph glyph-name="onethird" unicode="&#x2153;" horiz-adv-x="715" 
d="M138 612h-108v68h173v-341h-65v273zM45 0l447 680h71l-443 -680h-75zM652 262q0 -19 -6.5 -32.5t-16 -22.5t-21.5 -14.5t-24 -8.5q12 -3 24.5 -9t23 -15.5t17.5 -23t7 -32.5v-15q0 -27 -11.5 -45t-31 -29t-45 -16t-53.5 -5q-51 0 -91 22.5t-51 65.5l48 21q6 -26 33 -40
t59 -14q14 0 28.5 2t26 7t19 13t7.5 20v13q0 14 -7 24t-18.5 16.5t-25 10t-27.5 3.5h-64v53h59q13 0 27 2t25 7t18.5 14t7.5 24v9q0 14 -6.5 22.5t-17 14t-23.5 7.5t-26 2q-34 0 -60.5 -14.5t-33.5 -37.5l-42 24q5 18 18 33t31.5 26.5t40.5 17.5t45 6q28 0 53 -4t43.5 -15
t29.5 -30t11 -49v-8z" />
    <glyph glyph-name="twothirds" unicode="&#x2154;" horiz-adv-x="804" 
d="M178 0l447 680h71l-443 -680h-75zM753 269q0 -19 -6.5 -32.5t-16 -22.5t-21.5 -14.5t-24 -8.5q12 -3 24.5 -9t23 -15.5t17.5 -23t7 -32.5v-15q0 -27 -11.5 -45t-31 -29t-45 -16t-53.5 -5q-51 0 -91 22.5t-51 65.5l48 21q6 -26 33 -40t59 -14q14 0 28.5 2t26 7t19 13
t7.5 20v13q0 14 -7 24t-18.5 16.5t-25 10t-27.5 3.5h-64v53h59q13 0 27 2t25 7t18.5 14t7.5 24v9q0 14 -6.5 22.5t-17 14t-23.5 7.5t-26 2q-34 0 -60.5 -14.5t-33.5 -37.5l-42 24q5 18 18 33t31.5 26.5t40.5 17.5t45 6q28 0 53 -4t43.5 -15t29.5 -30t11 -49v-8zM237 696
q70 0 101 -27t31 -76q0 -21 -7.5 -36.5t-20.5 -28t-29.5 -22t-34.5 -17.5q-20 -9 -40 -17t-36 -18t-26 -22t-12 -29h205v-57h-276v43q0 26 9.5 46.5t27 36.5t40.5 29t50 23q14 6 29.5 12t28 14t20.5 18t8 23q0 22 -13 35t-58 13q-32 0 -54 -12t-41 -34l-36 43q20 26 54.5 43
t79.5 17z" />
    <glyph glyph-name="minus" unicode="&#x2212;" horiz-adv-x="525" 
d="M479 372v-70h-432v70h432z" />
    <glyph glyph-name="asteriskmath" unicode="&#x2217;" horiz-adv-x="498" 
d="M397 437l16 -50l-125 -40l77 -105l-43 -31l-77 105l-80 -106l-43 31l80 106l-125 40l15 50l126 -41v129h54v-129z" />
    <glyph glyph-name="notequal" unicode="&#x2260;" horiz-adv-x="665" 
d="M456 443h162v-63h-196l-83 -138h279v-62h-313l-78 -134l-49 25l65 109h-196v62h230l83 138h-313v63h347l71 120l47 -26z" />
    <glyph glyph-name="lessequal" unicode="&#x2264;" horiz-adv-x="615" 
d="M550 108l-503 205l503 206v-66l-342 -140l342 -140v-65zM62 59h488v-59h-488v59z" />
    <glyph glyph-name="greaterequal" unicode="&#x2265;" horiz-adv-x="605" 
d="M545 0h-498v59h498v-59zM552 314l-505 -207v64l351 143l-351 144v67z" />
    <glyph glyph-name="Scaronsmall" unicode="&#xf6fd;" horiz-adv-x="514" 
d="M464 242v-91q0 -41 -15.5 -71.5t-43 -50t-64.5 -29t-81 -9.5q-34 0 -66.5 7.5t-60.5 21t-50 32t-35 39.5l55 46q10 -16 26.5 -30t37 -24.5t43.5 -17t45 -6.5q29 0 53 4t42 14t28 27.5t10 43.5v52l-316 104v93q0 48 20.5 77.5t51 45.5t66.5 21.5t67 5.5q59 0 107.5 -21.5
t77.5 -62.5l-54 -44q-24 30 -58 44t-72 14q-15 0 -37.5 -2t-43 -9.5t-35 -23.5t-14.5 -45v-49zM259 540l-110 108l37 34l73 -73l71 73l36 -34z" />
    <glyph glyph-name="Zcaronsmall" unicode="&#xf6ff;" horiz-adv-x="542" 
d="M482 70v-70h-417l-5 50l307 419h-291v69h400l1 -50l-306 -418h311zM272 540l-110 108l37 34l73 -73l71 73l36 -34z" />
    <glyph glyph-name="zerooldstyle" unicode="&#xf730;" horiz-adv-x="556" 
d="M278 500q51 0 93 -15.5t73 -43.5t48 -67t17 -85v-91q0 -46 -17 -84t-48 -65.5t-73.5 -43t-92.5 -15.5t-92.5 15.5t-73 43t-48 66t-17.5 83.5v91q0 46 17.5 84.5t48 66t73 43.5t92.5 17zM433 289q0 30 -11 56t-31 45t-49 29.5t-64 10.5t-63.5 -10.5t-49 -29.5t-31.5 -45
t-11 -56v-91q0 -30 11.5 -55.5t31.5 -44t49 -29t63 -10.5q35 0 63.5 10t48.5 28.5t31.5 44t11.5 56.5v91z" />
    <glyph glyph-name="oneoldstyle" unicode="&#xf731;" horiz-adv-x="428" 
d="M70 62h124v369h-116v61l192 7v-437h114v-62h-314v62z" />
    <glyph glyph-name="twooldstyle" unicode="&#xf732;" horiz-adv-x="540" 
d="M335 199q-42 -19 -75 -33.5t-56.5 -28.5t-35.5 -30t-12 -37h328v-70h-404v42q0 32 9.5 60t30.5 53t55 47t84 43q24 10 48.5 20.5t44.5 24t32.5 30t12.5 37.5q0 35 -26 54.5t-87 19.5q-22 0 -46 -6t-45.5 -16.5t-39.5 -24t-30 -28.5l-44 55q15 18 37.5 34t49.5 28
t57.5 19.5t62.5 7.5q91 0 139 -35t48 -102q0 -27 -7 -49.5t-23 -42t-42.5 -37t-65.5 -35.5z" />
    <glyph glyph-name="threeoldstyle" unicode="&#xf733;" horiz-adv-x="495" 
d="M408 303q0 -42 -26.5 -77t-66.5 -52q52 -11 83.5 -45.5t31.5 -91.5v-23q0 -62 -32.5 -106.5t-86 -73t-121 -41.5t-137.5 -13l-8 65q54 0 109 9t99.5 29.5t72.5 52.5t28 77v23q0 26 -12 44.5t-32 30.5t-44.5 18t-50.5 8h-63v68h54q25 0 48 7t40 19.5t27.5 30t10.5 38.5v43
q0 44 -34.5 65.5t-85.5 21.5q-40 0 -78.5 -16t-60.5 -38l-36 53q30 32 78 51.5t100 19.5q42 0 77.5 -10.5t61 -30.5t40 -49t14.5 -67v-40z" />
    <glyph glyph-name="fouroldstyle" unicode="&#xf734;" horiz-adv-x="565" 
d="M435 68h115v-68h-115v-220h-76v220h-313v49l262 441h127v-422zM359 429h-13l-211 -361h224v361z" />
    <glyph glyph-name="fiveoldstyle" unicode="&#xf735;" horiz-adv-x="521" 
d="M239 260q48 0 88 -12.5t69 -36.5t45.5 -60t16.5 -83v-25q0 -50 -17 -89t-46 -68t-66.5 -49t-78.5 -32.5t-82.5 -18t-77.5 -5.5l-9 64q22 0 52.5 3t64 11t66.5 22t59 36t42.5 53t16.5 73v25q0 55 -38.5 89t-104.5 34h-168l39 299h308v-71h-238l-24 -159h83v0z" />
    <glyph glyph-name="sixoldstyle" unicode="&#xf736;" horiz-adv-x="568" 
d="M301 435q44 0 81 -12t64 -34t42.5 -54t15.5 -71v-97q0 -39 -17.5 -71t-47.5 -55.5t-69 -36t-82 -12.5t-82 13t-68.5 36t-47 55t-17.5 71v359q0 36 17 65.5t46 51.5t68 34t84 12q108 0 174 -73l-45 -48q-23 26 -56.5 39t-72.5 13q-28 0 -53 -7.5t-44 -20.5t-30 -30
t-11 -36v-157q26 31 65 48.5t86 17.5zM428 256q0 24 -11 44t-30.5 34t-44.5 21.5t-54 7.5q-28 0 -53 -8t-44 -22t-30 -34t-11 -43v-89q0 -23 11 -42.5t30 -33.5t44 -21.5t53 -7.5t53 7.5t44.5 21.5t31 33t11.5 43v89z" />
    <glyph glyph-name="sevenoldstyle" unicode="&#xf737;" horiz-adv-x="500" 
d="M15 490h456l-246 -706h-84l227 636h-353v70z" />
    <glyph glyph-name="eightoldstyle" unicode="&#xf738;" horiz-adv-x="577" 
d="M490 484q0 -19 -7.5 -39t-20.5 -37t-30 -30.5t-36 -21.5q21 -7 40.5 -20t34.5 -30.5t24 -38.5t9 -43v-68q0 -38 -17.5 -69t-47 -52.5t-68.5 -33t-83 -11.5t-83 11.5t-68.5 33t-46.5 52.5t-17 69v68q0 21 8.5 41.5t23 38.5t34 31.5t41.5 20.5q-43 17 -68.5 54.5
t-25.5 80.5v34q0 37 16 67.5t43.5 52t64.5 33.5t78 12t77.5 -12t64.5 -33.5t44 -52t16 -67.5v-41v0zM427 224q0 20 -10.5 37.5t-27.5 30.5t-40 20t-48 7h-22q-26 0 -49.5 -7t-41.5 -20t-28.5 -30t-10.5 -38v-67q0 -22 11 -40t30 -31t44.5 -19.5t53.5 -6.5q27 0 52.5 6.5
t44.5 19t30.5 30.5t11.5 40v68zM162 484q0 -41 34 -67t82 -28h18q24 1 45 8t37.5 19.5t26 29.5t9.5 38v41q0 21 -10 38.5t-27.5 30t-40 19.5t-48.5 7q-25 0 -48 -7t-40.5 -19.5t-27.5 -30t-10 -38.5v-41v0z" />
    <glyph glyph-name="nineoldstyle" unicode="&#xf739;" horiz-adv-x="567" 
d="M279 491q43 0 82 -12.5t68.5 -35.5t47 -55t17.5 -71v-253q0 -72 -30 -125.5t-78.5 -89.5t-109 -53.5t-121.5 -17.5l-7 61q38 0 85 10.5t88 35.5t69 66.5t28 104.5v32q-25 -30 -66 -46t-84 -16t-80.5 13t-65 36t-43 55t-15.5 71v116q0 38 17.5 70t46.5 55t68.5 36t82.5 13
zM418 317q0 23 -11.5 42.5t-30.5 33.5t-44 21.5t-53 7.5t-53 -7.5t-44 -21.5t-30.5 -33.5t-11.5 -42.5v-116q0 -23 11.5 -42.5t30.5 -33.5t44 -21.5t53 -7.5t53 7.5t44 21.5t30.5 33.5t11.5 42.5v116z" />
    <glyph glyph-name="Asmall" unicode="&#xf761;" 
d="M327 543l216 -543h-83l-61 147h-228l-62 -147h-84l220 543h82zM379 211l-93 249l-94 -249h187z" />
    <glyph glyph-name="Bsmall" unicode="&#xf762;" horiz-adv-x="522" 
d="M450 381q0 -16 -4.5 -32t-13 -30t-19.5 -24.5t-25 -16.5q37 -14 60 -48t23 -72v-20q0 -30 -11.5 -55.5t-32.5 -43.5t-50 -28.5t-64 -10.5h-227v537h206q37 0 66 -10.5t49.5 -29.5t31.5 -44.5t11 -55.5v-16zM395 161q0 31 -22 55.5t-63 24.5h-148v-173h142q38 0 64.5 22
t26.5 56v15zM162 300h135q32 2 54.5 22.5t22.5 52.5v15q-1 32 -25 55.5t-62 23.5h-125v-169z" />
    <glyph glyph-name="Csmall" unicode="&#xf763;" horiz-adv-x="508" 
d="M273 473q-30 0 -56.5 -11.5t-46.5 -30.5t-31.5 -43.5t-11.5 -50.5v-137q0 -27 12 -51.5t32 -43t47.5 -29.5t58.5 -11q38 0 78 13t68 39l34 -57q-38 -32 -83.5 -48.5t-96.5 -16.5q-47 0 -88 16t-72 44t-48.5 65t-17.5 80v137q0 41 17.5 78.5t47.5 66t70.5 45t86.5 16.5
q52 0 99.5 -18.5t82.5 -56.5l-43 -53q-12 14 -28 24.5t-35 18t-38.5 11.5t-37.5 4z" />
    <glyph glyph-name="Dsmall" unicode="&#xf764;" horiz-adv-x="550" 
d="M268 538q46 0 87.5 -15t73.5 -41.5t51 -62t19 -77.5v-147q0 -43 -18.5 -79t-50 -61.5t-73.5 -40t-89 -14.5h-182v538h182zM422 342q0 26 -13 49t-34 40t-49 27t-58 10h-106v-398h106q32 0 60 9.5t49 26t33 39.5t12 50v147z" />
    <glyph glyph-name="Esmall" unicode="&#xf765;" horiz-adv-x="473" 
d="M163 240v-170h259v-70h-335v538h314v-69h-238v-164h200v-65h-200z" />
    <glyph glyph-name="Fsmall" unicode="&#xf766;" horiz-adv-x="435" 
d="M401 468h-239v-167h201v-65h-200v-236h-77v538h315v-70z" />
    <glyph glyph-name="Gsmall" unicode="&#xf767;" horiz-adv-x="554" 
d="M274 283h211v-219q-44 -32 -93.5 -52t-119.5 -20q-47 0 -87.5 15.5t-70 43.5t-46.5 65.5t-17 81.5v145q0 41 19 78.5t50.5 65.5t73.5 44.5t87 16.5q56 0 105.5 -20.5t84.5 -59.5l-49 -48q-23 28 -62 43t-79 15q-30 0 -57.5 -11.5t-49 -30t-34.5 -43t-13 -50.5v-145
q0 -28 11.5 -53t31 -43.5t46 -29t56.5 -10.5q46 0 78 10.5t58 26.5v126h-134v58z" />
    <glyph glyph-name="Hsmall" unicode="&#xf768;" horiz-adv-x="623" 
d="M462 538h76v-538h-76v242h-300v-242h-76v538h76v-226h300v226z" />
    <glyph glyph-name="Ismall" unicode="&#xf769;" horiz-adv-x="264" 
d="M94 538h76v-538h-76v538z" />
    <glyph glyph-name="Jsmall" unicode="&#xf76a;" horiz-adv-x="455" 
d="M293 538h76v-401q0 -32 -13 -59t-35.5 -46.5t-53 -30.5t-65.5 -11q-39 0 -71.5 11t-56 30.5t-36.5 47.5t-13 62l73 9q2 -38 29 -64.5t71 -26.5q19 0 36.5 5.5t30.5 16t20.5 25t7.5 31.5v401z" />
    <glyph glyph-name="Ksmall" unicode="&#xf76b;" horiz-adv-x="560" 
d="M162 292l262 246h106l-260 -242l282 -296h-107l-233 247l-50 -41v-206h-76v538h76v-246z" />
    <glyph glyph-name="Lsmall" unicode="&#xf76c;" horiz-adv-x="451" 
d="M163 538v-468h280v-70h-356v538h76z" />
    <glyph glyph-name="Msmall" unicode="&#xf76d;" horiz-adv-x="710" 
d="M171 538l184 -278l183 278h86v-538h-77v423l-178 -268h-30l-177 268v-423h-76v538h85z" />
    <glyph glyph-name="Nsmall" unicode="&#xf76e;" horiz-adv-x="644" 
d="M486 538h72v-538h-93l-308 431v-431h-71v538h88l312 -434v434z" />
    <glyph glyph-name="Osmall" unicode="&#xf76f;" horiz-adv-x="595" 
d="M305 548q45 0 86.5 -16.5t74 -45t51.5 -65.5t19 -78v-149q0 -43 -18.5 -80.5t-50.5 -65.5t-74 -44t-89 -16h-13q-46 0 -88 16t-74 44t-50.5 65.5t-18.5 80.5v149q0 41 19 78.5t51 65.5t74 44.5t87 16.5h14v0zM460 343q0 26 -13 50t-35 43t-49.5 30.5t-57.5 11.5h-14
q-30 0 -57.5 -11.5t-49.5 -30t-35 -43t-13 -50.5v-149q0 -27 12.5 -52t34 -43.5t49.5 -29.5t59 -11h13q32 0 60 11t49.5 29.5t34 43.5t12.5 52v149z" />
    <glyph glyph-name="Psmall" unicode="&#xf770;" horiz-adv-x="502" 
d="M86 538h196q35 0 66 -12t54 -33t36.5 -49.5t13.5 -61.5v-22q0 -33 -13.5 -60t-36.5 -46.5t-54.5 -30.5t-66.5 -11h-119v-212h-76v538zM374 383q0 37 -26 61.5t-66 24.5h-120v-191h120q19 0 36 6t29.5 17t19.5 25.5t7 31.5v25z" />
    <glyph glyph-name="Qsmall" unicode="&#xf771;" horiz-adv-x="611" 
d="M487 24q13 -11 25 -18t24 -7h32v-59h-34q-31 1 -56.5 11t-45.5 33l-25 33q-23 -11 -50 -16t-53 -5h-13q-47 0 -89 16t-73.5 44t-50 65.5t-18.5 80.5v142q0 41 19 78t51 64.5t74 43.5t87 16h13q45 0 86.5 -15t73.5 -40.5t51 -60.5t19 -76v-156q0 -42 -17 -81t-53 -67z
M304 61q16 1 31 2.5t32 9.5l-67 95l53 35l69 -100q19 14 30 42t11 52v150q0 27 -13.5 51t-36 41t-51 27t-58.5 10h-13q-30 0 -58 -11t-49.5 -29t-34.5 -42t-13 -50v-142q0 -27 12.5 -52.5t33.5 -45t49.5 -31t59.5 -11.5z" />
    <glyph glyph-name="Rsmall" unicode="&#xf772;" horiz-adv-x="562" 
d="M478 363q0 -26 -9 -49t-25.5 -42t-39 -32t-49.5 -19l139 -221h-87l-135 213h-110v-213h-76v538h230q34 0 63.5 -11t51.5 -31.5t34.5 -48t12.5 -60.5v-24v0zM162 276h151q36 0 63 23t27 58v28q0 18 -8 33.5t-21.5 26.5t-30.5 17.5t-35 6.5h-146v-193z" />
    <glyph glyph-name="Ssmall" unicode="&#xf773;" horiz-adv-x="514" 
d="M279 310q33 -9 66 -18.5t59.5 -26.5t42.5 -44t16 -70q0 -41 -15.5 -71.5t-43 -50t-64.5 -29t-81 -9.5q-34 0 -66.5 7t-60.5 20t-50 30t-35 38l55 46q10 -15 26.5 -28.5t37 -23t43.5 -15.5t45 -6q29 0 53 4t42 14t28 27.5t10 43.5q0 20 -8 34t-24 24.5t-39.5 18.5
t-54.5 15q-33 8 -68 18.5t-63 28t-46 44t-18 66.5q0 48 20 77.5t51 45.5t67 21.5t67 5.5q58 0 106.5 -21.5t72.5 -58.5l-54 -45q-20 26 -53.5 40.5t-71.5 14.5q-15 0 -37.5 -2t-43 -9.5t-35 -23.5t-14.5 -45q0 -18 10.5 -31t28.5 -23t43.5 -17.5t55.5 -15.5z" />
    <glyph glyph-name="Tsmall" unicode="&#xf774;" horiz-adv-x="482" 
d="M16 538h450v-70h-188v-468h-76v468h-186v70z" />
    <glyph glyph-name="Usmall" unicode="&#xf775;" horiz-adv-x="626" 
d="M465 538h75v-339q0 -44 -16 -82t-45.5 -65.5t-71.5 -43t-94 -15.5q-48 0 -89.5 15t-72 42t-48 65t-17.5 84v339h76v-339q0 -26 10 -50.5t29.5 -43.5t47.5 -30.5t64 -11.5q32 0 59.5 10.5t48 29t32.5 43.5t12 53v339z" />
    <glyph glyph-name="Vsmall" unicode="&#xf776;" 
d="M108 538l176 -444l179 444h82l-223 -538h-78l-219 538h83z" />
    <glyph glyph-name="Wsmall" unicode="&#xf777;" horiz-adv-x="763" 
d="M419 536l123 -412l116 414h80l-155 -538h-77l-124 430l-127 -430h-78l-152 538h80l115 -413l125 411h74z" />
    <glyph glyph-name="Xsmall" unicode="&#xf778;" horiz-adv-x="635" 
d="M155 538l164 -209l168 209h95l-215 -264l217 -274h-95l-170 214l-173 -214h-95l221 273l-211 265h94z" />
    <glyph glyph-name="Ysmall" unicode="&#xf779;" horiz-adv-x="568" 
d="M118 537l160 -238l165 238h91l-218 -311v-226h-76v226l-215 311h93z" />
    <glyph glyph-name="Zsmall" unicode="&#xf77a;" horiz-adv-x="542" 
d="M482 70v-70h-417l-5 50l307 419h-291v69h400l1 -50l-306 -418h311z" />
    <glyph glyph-name="Agravesmall" unicode="&#xf7e0;" 
d="M327 543l216 -543h-83l-61 147h-228l-62 -147h-84l220 543h82zM379 211l-93 249l-94 -249h187zM234 767l95 -149l-44 -31l-108 138z" />
    <glyph glyph-name="Aacutesmall" unicode="&#xf7e1;" 
d="M327 543l216 -543h-83l-61 147h-228l-62 -147h-84l220 543h82zM379 211l-93 249l-94 -249h187zM337 763l54 -40l-107 -134l-45 27z" />
    <glyph glyph-name="Acircumflexsmall" unicode="&#xf7e2;" 
d="M327 543l216 -543h-83l-61 147h-228l-62 -147h-84l220 543h82zM379 211l-93 249l-94 -249h187zM284 740l125 -88l-32 -41l-92 61l-94 -60l-31 42z" />
    <glyph glyph-name="Atildesmall" unicode="&#xf7e3;" 
d="M327 543l216 -543h-83l-61 147h-228l-62 -147h-84l220 543h82zM379 211l-93 249l-94 -249h187zM219 669q-18 0 -30 -12t-19 -23l-39 31q19 31 40.5 48t50.5 17q17 0 34 -7t33.5 -15t32.5 -15t31 -7q17 1 26.5 10.5t17.5 22.5l41 -27q-5 -9 -12.5 -20.5t-17.5 -22
t-23 -17.5t-30 -7q-20 0 -37.5 7t-33.5 15t-31.5 15t-33.5 7z" />
    <glyph glyph-name="Adieresissmall" unicode="&#xf7e4;" 
d="M327 543l216 -543h-83l-61 147h-228l-62 -147h-84l220 543h82zM379 211l-93 249l-94 -249h187zM235 624h-80v83h80v-83zM414 624h-79v83h79v-83z" />
    <glyph glyph-name="Aringsmall" unicode="&#xf7e5;" 
d="M327 543l216 -543h-83l-61 147h-228l-62 -147h-84l220 543h82zM379 211l-93 249l-94 -249h187zM283 597q-16 0 -30 6t-24.5 16.5t-17 25t-6.5 30.5q0 33 23 55t55 22t56 -22t24 -55q0 -32 -24 -55t-56 -23zM244 674q0 -17 11.5 -28t28.5 -11t28.5 11t11.5 28t-11.5 29.5
t-28.5 12.5t-28.5 -12.5t-11.5 -29.5z" />
    <glyph glyph-name="Ccedillasmall" unicode="&#xf7e7;" horiz-adv-x="508" 
d="M273 473q-30 0 -56.5 -11.5t-46.5 -30.5t-31.5 -43.5t-11.5 -50.5v-137q0 -27 12 -51.5t32 -43t47.5 -29.5t58.5 -11q38 0 78 13t68 39l34 -57q-38 -32 -83.5 -48.5t-96.5 -16.5q-47 0 -88 16t-72 44t-48.5 65t-17.5 80v137q0 41 17.5 78.5t47.5 66t70.5 45t86.5 16.5
q52 0 99.5 -18.5t82.5 -56.5l-43 -53q-12 14 -28 24.5t-35 18t-38.5 11.5t-37.5 4zM303 0l-14 -56q4 -2 15.5 -7t24 -16t22.5 -28.5t10 -42.5q0 -40 -31 -67t-82 -42l-23 44q7 3 18.5 8t23 12.5t19.5 18t8 22.5q0 17 -8 28.5t-19 19t-23 11.5t-21 6l20 89h60z" />
    <glyph glyph-name="Egravesmall" unicode="&#xf7e8;" horiz-adv-x="473" 
d="M163 240v-170h259v-70h-335v538h314v-69h-238v-164h200v-65h-200zM203 767l95 -149l-44 -31l-108 138z" />
    <glyph glyph-name="Eacutesmall" unicode="&#xf7e9;" horiz-adv-x="473" 
d="M163 240v-170h259v-70h-335v538h314v-69h-238v-164h200v-65h-200zM306 763l54 -40l-107 -134l-45 27z" />
    <glyph glyph-name="Ecircumflexsmall" unicode="&#xf7ea;" horiz-adv-x="473" 
d="M163 240v-170h259v-70h-335v538h314v-69h-238v-164h200v-65h-200zM253 740l125 -88l-32 -41l-92 61l-94 -60l-31 42z" />
    <glyph glyph-name="Edieresissmall" unicode="&#xf7eb;" horiz-adv-x="473" 
d="M163 240v-170h259v-70h-335v538h314v-69h-238v-164h200v-65h-200zM205 624h-80v83h80v-83zM384 624h-79v83h79v-83z" />
    <glyph glyph-name="Igravesmall" unicode="&#xf7ec;" horiz-adv-x="264" 
d="M94 538h76v-538h-76v538zM83 767l95 -149l-44 -31l-108 138z" />
    <glyph glyph-name="Iacutesmall" unicode="&#xf7ed;" horiz-adv-x="264" 
d="M94 538h76v-538h-76v538zM184 763l54 -40l-107 -134l-45 27z" />
    <glyph glyph-name="Icircumflexsmall" unicode="&#xf7ee;" horiz-adv-x="264" 
d="M94 538h76v-538h-76v538zM133 740l125 -88l-32 -41l-92 61l-94 -60l-31 42z" />
    <glyph glyph-name="Idieresissmall" unicode="&#xf7ef;" horiz-adv-x="264" 
d="M94 538h76v-538h-76v538zM84 624h-80v83h80v-83zM263 624h-79v83h79v-83z" />
    <glyph glyph-name="Ntildesmall" unicode="&#xf7f1;" horiz-adv-x="644" 
d="M486 538h72v-538h-93l-308 431v-431h-71v538h88l312 -434v434zM256 669q-18 0 -30 -12t-19 -23l-39 31q19 31 40.5 48t50.5 17q17 0 34 -7t33.5 -15t32.5 -15t31 -7q17 1 26.5 10.5t17.5 22.5l41 -27q-5 -9 -12.5 -20.5t-17.5 -22t-23 -17.5t-30 -7q-20 0 -37.5 7
t-33.5 15t-31.5 15t-33.5 7z" />
    <glyph glyph-name="Ogravesmall" unicode="&#xf7f2;" horiz-adv-x="595" 
d="M305 548q45 0 86.5 -16.5t74 -45t51.5 -65.5t19 -78v-149q0 -43 -18.5 -80.5t-50.5 -65.5t-74 -44t-89 -16h-13q-46 0 -88 16t-74 44t-50.5 65.5t-18.5 80.5v149q0 41 19 78.5t51 65.5t74 44.5t87 16.5h14v0zM460 343q0 26 -13 50t-35 43t-49.5 30.5t-57.5 11.5h-14
q-30 0 -57.5 -11.5t-49.5 -30t-35 -43t-13 -50.5v-149q0 -27 12.5 -52t34 -43.5t49.5 -29.5t59 -11h13q32 0 60 11t49.5 29.5t34 43.5t12.5 52v149zM247 767l95 -149l-44 -31l-108 138z" />
    <glyph glyph-name="Oacutesmall" unicode="&#xf7f3;" horiz-adv-x="595" 
d="M305 548q45 0 86.5 -16.5t74 -45t51.5 -65.5t19 -78v-149q0 -43 -18.5 -80.5t-50.5 -65.5t-74 -44t-89 -16h-13q-46 0 -88 16t-74 44t-50.5 65.5t-18.5 80.5v149q0 41 19 78.5t51 65.5t74 44.5t87 16.5h14v0zM460 343q0 26 -13 50t-35 43t-49.5 30.5t-57.5 11.5h-14
q-30 0 -57.5 -11.5t-49.5 -30t-35 -43t-13 -50.5v-149q0 -27 12.5 -52t34 -43.5t49.5 -29.5t59 -11h13q32 0 60 11t49.5 29.5t34 43.5t12.5 52v149zM350 763l54 -40l-107 -134l-45 27z" />
    <glyph glyph-name="Ocircumflexsmall" unicode="&#xf7f4;" horiz-adv-x="595" 
d="M305 548q45 0 86.5 -16.5t74 -45t51.5 -65.5t19 -78v-149q0 -43 -18.5 -80.5t-50.5 -65.5t-74 -44t-89 -16h-13q-46 0 -88 16t-74 44t-50.5 65.5t-18.5 80.5v149q0 41 19 78.5t51 65.5t74 44.5t87 16.5h14v0zM460 343q0 26 -13 50t-35 43t-49.5 30.5t-57.5 11.5h-14
q-30 0 -57.5 -11.5t-49.5 -30t-35 -43t-13 -50.5v-149q0 -27 12.5 -52t34 -43.5t49.5 -29.5t59 -11h13q32 0 60 11t49.5 29.5t34 43.5t12.5 52v149zM297 740l125 -88l-32 -41l-92 61l-94 -60l-31 42z" />
    <glyph glyph-name="Otildesmall" unicode="&#xf7f5;" horiz-adv-x="595" 
d="M305 548q45 0 86.5 -16.5t74 -45t51.5 -65.5t19 -78v-149q0 -43 -18.5 -80.5t-50.5 -65.5t-74 -44t-89 -16h-13q-46 0 -88 16t-74 44t-50.5 65.5t-18.5 80.5v149q0 41 19 78.5t51 65.5t74 44.5t87 16.5h14v0zM460 343q0 26 -13 50t-35 43t-49.5 30.5t-57.5 11.5h-14
q-30 0 -57.5 -11.5t-49.5 -30t-35 -43t-13 -50.5v-149q0 -27 12.5 -52t34 -43.5t49.5 -29.5t59 -11h13q32 0 60 11t49.5 29.5t34 43.5t12.5 52v149zM232 669q-18 0 -30 -12t-19 -23l-39 31q19 31 40.5 48t50.5 17q17 0 34 -7t33.5 -15t32.5 -15t31 -7q17 1 26.5 10.5
t17.5 22.5l41 -27q-5 -9 -12.5 -20.5t-17.5 -22t-23 -17.5t-30 -7q-20 0 -37.5 7t-33.5 15t-31.5 15t-33.5 7z" />
    <glyph glyph-name="Odieresissmall" unicode="&#xf7f6;" horiz-adv-x="595" 
d="M305 548q45 0 86.5 -16.5t74 -45t51.5 -65.5t19 -78v-149q0 -43 -18.5 -80.5t-50.5 -65.5t-74 -44t-89 -16h-13q-46 0 -88 16t-74 44t-50.5 65.5t-18.5 80.5v149q0 41 19 78.5t51 65.5t74 44.5t87 16.5h14v0zM460 343q0 26 -13 50t-35 43t-49.5 30.5t-57.5 11.5h-14
q-30 0 -57.5 -11.5t-49.5 -30t-35 -43t-13 -50.5v-149q0 -27 12.5 -52t34 -43.5t49.5 -29.5t59 -11h13q32 0 60 11t49.5 29.5t34 43.5t12.5 52v149zM248 624h-80v83h80v-83zM427 624h-79v83h79v-83z" />
    <glyph glyph-name="Ugravesmall" unicode="&#xf7f9;" horiz-adv-x="626" 
d="M465 538h75v-339q0 -44 -16 -82t-45.5 -65.5t-71.5 -43t-94 -15.5q-48 0 -89.5 15t-72 42t-48 65t-17.5 84v339h76v-339q0 -26 10 -50.5t29.5 -43.5t47.5 -30.5t64 -11.5q32 0 59.5 10.5t48 29t32.5 43.5t12 53v339zM262 757l95 -149l-44 -31l-108 138z" />
    <glyph glyph-name="Uacutesmall" unicode="&#xf7fa;" horiz-adv-x="626" 
d="M465 538h75v-339q0 -44 -16 -82t-45.5 -65.5t-71.5 -43t-94 -15.5q-48 0 -89.5 15t-72 42t-48 65t-17.5 84v339h76v-339q0 -26 10 -50.5t29.5 -43.5t47.5 -30.5t64 -11.5q32 0 59.5 10.5t48 29t32.5 43.5t12 53v339zM365 753l54 -40l-107 -134l-45 27z" />
    <glyph glyph-name="Ucircumflexsmall" unicode="&#xf7fb;" horiz-adv-x="626" 
d="M465 538h75v-339q0 -44 -16 -82t-45.5 -65.5t-71.5 -43t-94 -15.5q-48 0 -89.5 15t-72 42t-48 65t-17.5 84v339h76v-339q0 -26 10 -50.5t29.5 -43.5t47.5 -30.5t64 -11.5q32 0 59.5 10.5t48 29t32.5 43.5t12 53v339zM312 740l125 -88l-32 -41l-92 61l-94 -60l-31 42z" />
    <glyph glyph-name="Udieresissmall" unicode="&#xf7fc;" horiz-adv-x="626" 
d="M465 538h75v-339q0 -44 -16 -82t-45.5 -65.5t-71.5 -43t-94 -15.5q-48 0 -89.5 15t-72 42t-48 65t-17.5 84v339h76v-339q0 -26 10 -50.5t29.5 -43.5t47.5 -30.5t64 -11.5q32 0 59.5 10.5t48 29t32.5 43.5t12 53v339zM263 624h-80v83h80v-83zM442 624h-79v83h79v-83z" />
    <glyph glyph-name="Yacutesmall" unicode="&#xf7fd;" horiz-adv-x="568" 
d="M118 537l160 -238l165 238h91l-218 -311v-226h-76v226l-215 311h93zM332 753l54 -40l-107 -134l-45 27z" />
    <glyph glyph-name="Ydieresissmall" unicode="&#xf7ff;" horiz-adv-x="568" 
d="M118 537l160 -238l165 238h91l-218 -311v-226h-76v226l-215 311h93zM230 624h-80v83h80v-83zM409 624h-79v83h79v-83z" />
    <glyph glyph-name="ffi" unicode="&#xfb03;" horiz-adv-x="839" 
d="M258 729q42 0 93 -15t94 -40q17 21 53 41t92 20q27 0 56.5 -7.5t56 -16.5t47.5 -18t30 -12l-27 -63q-3 1 -20 8t-41 15.5t-52 15t-54 6.5q-43 0 -70.5 -23t-27.5 -59v-91h108v-59h-109v-431h-76v431h-99v59h99v79q0 12 1 22t4 21q-31 17 -73.5 32.5t-84.5 15.5
q-45 0 -69 -24.5t-24 -57.5v-87h91v-59h-91v-432h-76v432h-99v59h99v83q0 33 12.5 61.5t35 49.5t53.5 32.5t68 11.5zM695 490h76v-490h-76v490z" />
    <glyph glyph-name="ffl" unicode="&#xfb04;" horiz-adv-x="853" 
d="M268 729q35 0 82 -12.5t90 -37.5q23 26 58 40t77 14q21 0 45.5 -4t48.5 -10.5t44.5 -14t33.5 -14.5h29v-690h-77v640q-25 11 -60.5 19t-63.5 8q-42 0 -70 -23.5t-28 -61.5v-92h113v-59h-113v-431h-74v431h-97v59h98v92q0 23 8 42q-33 14 -71 25t-73 11q-46 0 -70 -24.5
t-24 -57.5v-87h91v-59h-91v-432h-76v432h-99v59h99v83q0 33 12.5 61.5t35 49.5t54 32.5t68.5 11.5z" />
    <glyph glyph-name="glyph57" horiz-adv-x="675" 
d="M526 30q23 -28 46.5 -36.5t60.5 -9.5v-61q-30 0 -52.5 2.5t-42 10t-37 21.5t-36.5 37l-18 23q-34 -13 -64 -17.5t-65 -4.5q-52 0 -99.5 14.5t-83.5 42t-57.5 67.5t-21.5 91v265q0 51 23 91t60.5 67.5t86.5 42t100 14.5q53 0 101.5 -14t85.5 -41t59 -67t22 -93v-265
q0 -22 -6 -45.5t-17.5 -44.5t-27 -38.5t-34.5 -29.5zM318 65q20 0 43.5 3t43.5 11l-81 105l53 43l88 -115q26 19 39.5 41.5t13.5 56.5v265q0 38 -16 65t-42.5 45t-61 26.5t-72.5 8.5q-36 0 -70.5 -9.5t-62 -28t-44.5 -45.5t-17 -62v-265q0 -37 15.5 -64t41.5 -45t59.5 -27
t69.5 -9z" />
    <glyph glyph-name="Q.alt" horiz-adv-x="651" 
d="M358 -62l246 -50l-12 -67l-304 62v106q-54 3 -98 19.5t-76 45t-49.5 68t-17.5 87.5v273q0 45 21 83t57 66t83 43.5t99 15.5h17q51 0 98 -16t83.5 -44t58.5 -66t22 -82v-273q0 -45 -17.5 -83.5t-48 -67t-72 -47t-90.5 -22.5v-51zM123 209q0 -31 13.5 -58t37 -47.5
t55.5 -32.5t68 -12h41q35 2 66.5 13.5t54.5 31.5t36.5 47t13.5 58v269q0 28 -15.5 54t-41.5 45.5t-59 31t-69 11.5h-17q-36 0 -69 -12t-58.5 -31.5t-41 -45t-15.5 -53.5v-269v0z" />
    <glyph glyph-name="y.alt" horiz-adv-x="487" 
d="M244 126l142 364l80 -6l-288 -720l-71 26l95 231l-181 465l81 4z" />
    <glyph glyph-name="k.alt" horiz-adv-x="524" 
d="M146 710v-415l256 216l48 -55l-233 -188q45 -9 88.5 -39t79 -69t60 -82t32.5 -78h-83q-6 12 -14 30t-21.5 39.5t-33 44.5t-46.5 46q-16 14 -34.5 24t-36.5 16.5t-34 11.5t-28 8v-220h-73v710h73z" />
    <glyph glyph-name="g.alt" horiz-adv-x="538" 
d="M132 303q0 -19 10.5 -35.5t28 -28.5t40 -19t47.5 -7q50 0 84 23.5t34 62.5v47q-2 42 -36.5 66t-85.5 24q-25 0 -47 -7t-38.5 -19t-26.5 -28.5t-10 -35.5v-43v0zM144 21q-24 8 -45 29t-21 57q0 29 14.5 46t37.5 31q-32 23 -52 54t-20 70v36q0 34 14.5 63t40.5 50.5
t62 33.5t79 12q33 0 60 -7t50 -21l117 42l20 -58l-88 -27q16 -17 26.5 -37.5t10.5 -48.5v-42q0 -34 -14.5 -62.5t-40 -49.5t-61.5 -33t-79 -12q-23 0 -42.5 2.5t-30.5 5.5q-16 -5 -26.5 -14t-10.5 -26q0 -10 5 -17.5t12.5 -12t16.5 -7.5t16 -5l268 -85v-92
q0 -34 -15.5 -59.5t-41.5 -42t-60 -24.5t-72 -8h-33q-36 0 -70 8.5t-60.5 25.5t-43 43.5t-16.5 61.5q0 28 14 58l67 -16q-3 -9 -4.5 -18.5t-3.5 -18.5q0 -22 10.5 -36.5t28.5 -23.5t42 -13t51 -4h18q22 0 42.5 4.5t36 13t25 21.5t9.5 31v43z" />
    <glyph glyph-name="e.alt" horiz-adv-x="493" 
d="M269 62q18 0 38.5 3.5t40 10t36 15.5t27.5 19l36 -54q-34 -31 -83 -47t-96 -16q-42 0 -82 11t-71 33.5t-49.5 55.5t-18.5 76v162q0 36 17 67.5t45.5 54t65.5 35.5t77 13q39 0 74.5 -12.5t61.5 -35t41.5 -54t15.5 -68.5v-96h-322v-66q0 -27 12.5 -47t33.5 -33.5t47 -20
t53 -6.5zM252 431q-24 0 -47 -7t-41 -19.5t-29 -30t-11 -37.5v-44h246v43q0 21 -10 38t-26.5 30t-37.5 20t-44 7z" />
    <glyph glyph-name="germandbls.alt" horiz-adv-x="652" 
d="M187 0h-74v411h-71v69h71v80q0 88 52.5 133t144.5 45q47 0 86.5 -12t68 -35t44.5 -57t16 -78l-98 -150q16 -5 41.5 -18t50 -35.5t42.5 -55.5t18 -77v-80q0 -38 -13.5 -66.5t-37.5 -47.5t-57.5 -28.5t-72.5 -9.5q-51 0 -91.5 18t-64.5 46l41 56q15 -17 43.5 -34.5
t71.5 -17.5t74.5 21.5t31.5 63.5v80q0 41 -23.5 68t-54.5 43.5t-61.5 24t-45.5 7.5l125 200q0 46 -37.5 75t-94.5 29t-91 -27.5t-34 -80.5v-560z" />
    <glyph glyph-name="germandbls.alt2" horiz-adv-x="596" 
d="M155 0h-73v555q0 88 53 136t145 48q43 0 82.5 -12t69.5 -36t48 -60.5t18 -84.5q-42 -42 -69.5 -78.5t-27.5 -78.5q0 -20 6.5 -34t17.5 -25.5t24.5 -20.5t27.5 -20q17 -12 32 -26t26 -31t17 -38.5t6 -49.5q0 -38 -14 -67t-38.5 -48.5t-59 -29.5t-76.5 -10
q-45 0 -88.5 16.5t-66.5 45.5l42 56q16 -20 44.5 -35t72.5 -15q21 0 41.5 5.5t36 16.5t25.5 26.5t10 36.5q0 24 -8 41.5t-20.5 30.5t-28.5 23.5t-31 20.5q-34 23 -54.5 51.5t-20.5 79.5q0 45 21.5 87t72.5 84q0 28 -12 48t-31 33.5t-43 20.5t-48 7q-58 0 -93.5 -31
t-35.5 -83v-555z" />
    <glyph glyph-name="zero.small" horiz-adv-x="628" 
d="M314 545q51 0 95 -16.5t76.5 -45.5t51 -68.5t18.5 -85.5v-127q0 -46 -19 -85.5t-51.5 -68t-76.5 -44.5t-94 -16t-94 16.5t-76.5 45t-51.5 67.5t-19 85v127q0 46 19 85.5t51.5 68.5t76.5 45.5t94 16.5zM479 329q0 30 -12.5 57t-34.5 47t-52.5 31.5t-65.5 11.5t-65 -11.5
t-52.5 -31.5t-35 -47t-12.5 -57v-127q0 -30 13 -56.5t35 -46t52.5 -31t64.5 -11.5q35 0 65 11t52 30.5t35 46t13 57.5v127z" />
    <glyph glyph-name="one.small" horiz-adv-x="365" 
d="M198 470h-151v70h227v-540h-76v470z" />
    <glyph glyph-name="two.small" horiz-adv-x="553" 
d="M339 229q-84 -38 -127 -76t-45 -83h330v-70h-412v38q0 35 9.5 68.5t31 64t57.5 58t89 50.5q24 11 47 22t41.5 24.5t29.5 31t11 40.5q0 41 -25.5 62t-86.5 21q-25 0 -50 -7.5t-47 -19.5t-39.5 -26.5t-29.5 -28.5l-44 56q15 18 36.5 35.5t48.5 31t58.5 21.5t67.5 8
q91 0 139 -37.5t48 -112.5q0 -28 -7 -51.5t-23 -44t-42.5 -39t-65.5 -36.5z" />
    <glyph glyph-name="three.small" horiz-adv-x="560" 
d="M474 401q0 -41 -25 -72.5t-64 -48.5q42 -17 69 -47t27 -71v-27q0 -37 -16.5 -64.5t-44.5 -44.5t-66 -25.5t-80 -8.5q-37 0 -71.5 9t-61.5 25.5t-45 41t-23 55.5l62 23q3 -20 15 -36t30.5 -27.5t41.5 -17.5t48 -6q26 0 50 4.5t42.5 14.5t30 25t11.5 36v27q0 20 -10.5 35
t-28.5 25.5t-40.5 16t-46.5 5.5h-77v67h74q25 0 47.5 5t39 15.5t26 26t9.5 36.5v10q0 21 -9.5 36.5t-26 26t-38.5 15.5t-47 5q-51 0 -88 -23.5t-45 -62.5l-58 26q6 29 24 52.5t44 40t58 25.5t67 9q41 0 77 -9t62.5 -27t41.5 -45t15 -64v-12z" />
    <glyph glyph-name="four.small" horiz-adv-x="572" 
d="M423 210h105v-68h-105v-142h-75v142h-276v48l228 348h123v-328zM348 468h-14l-166 -258h180v258z" />
    <glyph glyph-name="five.small" horiz-adv-x="581" 
d="M305 344q88 0 141.5 -36.5t53.5 -111.5v-49q0 -39 -15 -69t-42 -50.5t-64.5 -30.5t-81.5 -10q-85 0 -137 39t-60 115l71 14q9 -100 126 -100q58 0 92.5 22t34.5 70v45q0 43 -35.5 63.5t-92.5 20.5h-167l28 262h307v-70h-240l-9 -124h90v0z" />
    <glyph glyph-name="six.small" horiz-adv-x="564" 
d="M304 360q85 0 136 -45t51 -121v-36q0 -39 -15 -70.5t-42 -54t-64 -35t-80 -12.5t-80 12.5t-63.5 35t-41.5 54t-15 70.5v225q0 36 14 67.5t39.5 55t60 37t76.5 13.5q54 0 100 -18t80 -54l-50 -51q-22 26 -55 40t-71 14q-28 0 -49.5 -9t-36.5 -24t-23 -33.5t-8 -37.5v-87
q9 12 23.5 23.5t32.5 20.5t39 14.5t42 5.5zM415 186q0 45 -35 74.5t-89 29.5q-56 0 -90 -28.5t-34 -75.5v-28q0 -45 34.5 -74t88.5 -29q27 0 49.5 7.5t39.5 21t26.5 32.5t9.5 42v28z" />
    <glyph glyph-name="seven.small" horiz-adv-x="453" 
d="M25 539h399l-212 -539h-83l182 470h-286v69z" />
    <glyph glyph-name="eight.small" horiz-adv-x="565" 
d="M470 396q0 -19 -8 -37.5t-21 -34t-30 -27t-35 -17.5q23 -6 42.5 -18t33.5 -29t22.5 -37.5t8.5 -41.5v-23q0 -75 -54 -111.5t-148 -36.5q-90 0 -144.5 37t-54.5 111v20q0 22 8 43t22.5 38.5t34 30t42.5 16.5q-41 13 -67.5 43.5t-26.5 71.5v20q0 36 13.5 63.5t38.5 45.5
t59 27.5t75 9.5t75.5 -9.5t59.5 -27.5t39.5 -45.5t14.5 -63.5v-18v0zM406 151q0 44 -30.5 69t-93.5 25q-57 0 -90.5 -25.5t-33.5 -68.5v-16q0 -44 34.5 -66.5t89.5 -22.5q54 0 89 22t35 67v16zM171 394q0 -41 27 -64t84 -23q48 0 79.5 22.5t31.5 64.5v12q0 43 -30 65t-81 22
t-81 -22.5t-30 -64.5v-12v0z" />
    <glyph glyph-name="nine.small" horiz-adv-x="564" 
d="M278 554q43 0 80.5 -12.5t65 -35.5t43.5 -55t16 -70v-226q0 -39 -16 -70t-43.5 -53t-65 -34t-80.5 -12q-25 0 -50.5 4t-49.5 12t-45.5 20.5t-37.5 28.5l40 58q12 -11 28.5 -21.5t35.5 -18t39.5 -12t38.5 -4.5q55 0 92 25.5t37 76.5v86q-15 -27 -53 -45t-81 -18
q-44 0 -80.5 12.5t-63 35t-41 54t-14.5 70.5v32q0 39 15.5 70.5t43.5 54t65.5 35t80.5 12.5zM406 382q0 47 -36 74.5t-92 27.5q-57 0 -93 -28t-36 -74v-34q0 -48 36 -75t93 -27q56 0 92 27t36 75v34z" />
    <glyph glyph-name="h.alt" horiz-adv-x="554" 
d="M464 492v-492h-76v423h-84q-27 0 -55 -11.5t-50 -30.5t-36 -42t-14 -46v-293h-76v710h76v-318q12 21 29 39t39 31.5t47 21.5t52 8h148z" />
    <glyph glyph-name="n.alt" horiz-adv-x="555" 
d="M465 491v-491h-77v421h-83q-27 0 -55 -11.5t-50 -30.5t-36 -42t-14 -46v-291h-77v490h69l8 -99q26 43 69 71t97 29h149z" />
    <glyph glyph-name="E.alt" horiz-adv-x="553" 
d="M158 488q0 -21 9.5 -39t25.5 -31.5t38 -21t47 -7.5h77v-68h-79q-26 -1 -50.5 -8.5t-43.5 -20.5t-30.5 -31t-11.5 -39v-56q0 -23 12 -42.5t32 -33.5t45 -22t50 -8h54q25 0 47.5 6.5t41 17t32.5 24t21 27.5l62 -29q-26 -54 -78 -85t-126 -31h-53q-43 0 -82 12.5t-69 35.5
t-47.5 55.5t-17.5 72.5v57q0 21 9 40.5t24.5 37t35.5 31.5t41 23q-19 8 -36 21.5t-29.5 31t-19.5 37t-7 38.5v43q0 38 15.5 68.5t43 51.5t64.5 32.5t79 11.5h28q27 -1 54.5 -7.5t52 -18.5t45.5 -28.5t34 -36.5l-54 -40q-10 12 -25 23t-33 19.5t-37.5 13.5t-36.5 5h-28
q-25 0 -48 -7t-40 -19t-27.5 -29.5t-10.5 -38.5v-38z" />
    <glyph glyph-name="a.alt" horiz-adv-x="494" 
d="M267 507q84 0 124 -44.5t40 -121.5v-341h-61l-9 89q-9 -17 -25.5 -34t-38.5 -31t-49.5 -23t-58.5 -9q-69 0 -105.5 32t-36.5 95v30q0 32 14.5 56t39 41t56.5 28t66 17.5t68 9t63 3.5v37q0 49 -20.5 73.5t-73.5 24.5q-18 0 -40 -3.5t-44 -9t-40.5 -12.5t-29.5 -14l-24 57
q15 10 37 19t47 16t51.5 11t49.5 4zM353 251q-37 -1 -77 -5.5t-74 -16t-56 -31t-22 -52.5v-24q0 -35 22 -48t62 -13q24 0 49.5 9.5t47 25t35 35t13.5 39.5v81z" />
    <glyph glyph-name="Ssmall.alt" horiz-adv-x="514" 
d="M466 242v-91q0 -41 -15.5 -71.5t-43 -50t-64.5 -29t-81 -9.5q-34 0 -66.5 7.5t-60.5 21t-50 32t-35 39.5l55 46q10 -16 26.5 -30t37 -24.5t43.5 -17t45 -6.5q29 0 53 4t42 14t28 27.5t10 43.5v52l-316 104v93q0 48 20.5 77.5t51 45.5t66.5 21.5t67 5.5q59 0 107.5 -21.5
t77.5 -62.5l-54 -44q-24 30 -58 44t-72 14q-15 0 -37.5 -2t-43 -9.5t-35 -23.5t-14.5 -45v-49z" />
    <glyph glyph-name="s.alt" horiz-adv-x="445" 
d="M401 226v-85q0 -40 -14.5 -68.5t-40 -46.5t-60 -26.5t-73.5 -8.5q-53 0 -103 21.5t-87 57.5l42 55q14 -13 31.5 -25t38 -21.5t41.5 -15t41 -5.5q23 0 43 4t35 13t24 24.5t9 37.5v46l-278 88v87q0 36 13.5 63t37 44.5t55.5 26t69 8.5q44 0 88 -17t76 -43l-38 -56
q-25 19 -61 33.5t-70 14.5q-41 0 -69 -16.5t-28 -57.5v-46z" />
    <glyph glyph-name="S.alt" horiz-adv-x="577" 
d="M520 303v-122q0 -49 -18.5 -85t-50 -59t-74 -34.5t-90.5 -11.5q-76 0 -142.5 29.5t-107.5 89.5l53 47q32 -45 86 -70.5t108 -25.5q32 0 61 7t51 22t35 37.5t13 53.5v74l-373 125v132q0 47 17.5 80.5t48 55.5t72 32t88.5 10q72 0 125 -24.5t92 -63.5l-45 -58
q-13 15 -32.5 28.5t-42 24t-47.5 17t-51 6.5q-30 0 -57 -6t-47.5 -18.5t-32.5 -33t-12 -50.5v-85z" />
    <glyph glyph-name="ft" horiz-adv-x="674" 
d="M548 65q12 0 27 2.5t29.5 5.5t26.5 6.5t17 5.5l19 -57q-1 -1 -14 -6t-31.5 -10.5t-39 -10t-37.5 -4.5q-28 0 -51.5 6.5t-41 21.5t-27.5 38.5t-10 56.5v312h-100v59h100v142q-31 13 -70.5 26.5t-76.5 13.5q-42 0 -68 -24.5t-26 -58.5v-99h92v-59h-92v-432h-76v432h-99v59
h99v96q0 33 13 61t35.5 48.5t53.5 32t68 11.5q33 0 68 -7t66 -16.5t54.5 -19.5t35.5 -17v-189h132v-59h-133v-307q0 -34 18.5 -47t38.5 -13z" />
    <glyph glyph-name="glyph330" horiz-adv-x="624" 
d="M105 -74l381 836h61l-378 -836h-64zM334 690q50 0 96.5 -15t83 -42.5t58.5 -67t22 -89.5v-272q0 -52 -21.5 -92t-57.5 -67t-83 -41t-98 -14h-16q-52 0 -99.5 13.5t-83.5 40.5t-57.5 67t-21.5 93v272q0 50 22 89.5t58.5 67.5t83.5 42.5t97 14.5h17v0zM518 475q0 34 -16 61
t-42 45.5t-59 28.5t-67 10h-17q-34 0 -67.5 -10t-59.5 -28.5t-42 -45t-16 -60.5v-272q0 -36 15.5 -63t41 -45t59.5 -27t70 -9h16q35 0 68.5 9t59 27t41 45t15.5 63v271z" />
    <glyph glyph-name="glyph331" horiz-adv-x="503" 
d="M254 501q44 0 81 -12t65 -35t43.5 -55t15.5 -73v-159q0 -41 -17 -73.5t-45 -55.5t-65 -35t-78 -12t-78.5 12t-66 35t-45.5 55.5t-17 73.5v159q0 41 16.5 73t44.5 55t66 35t80 12zM383 326q0 25 -11 44.5t-29 33t-41 20.5t-48 7t-48.5 -7t-42 -20.5t-29.5 -33t-11 -44.5
v-159q0 -25 11 -45t29 -33.5t42 -20.5t49 -7t48 7t41 20.5t29 33.5t11 45v159zM44 -64l352 604h54l-350 -604h-56z" />
    <glyph glyph-name="glyph333" horiz-adv-x="807" 
d="M250 501q41 0 71.5 -11.5t50.5 -31.5t30 -46.5t10 -56.5l-26 -258q-13 -29 -32.5 -49t-42.5 -32t-49 -17.5t-52 -5.5q-35 0 -65 10.5t-51.5 30t-34 48t-12.5 63.5v91l308 46v48q0 53 -27.5 78.5t-80.5 25.5q-19 0 -42 -5t-44.5 -12.5t-40 -15.5t-29.5 -15l-25 55
q15 11 36.5 21.5t46 19t50.5 14t51 5.5zM356 225l-232 -32v-45q0 -42 28.5 -65t70.5 -23q23 0 46.5 5.5t42.5 16.5t31.5 27.5t12.5 39.5v76zM577 60q25 0 48 5t42 13t33.5 17t23.5 16l36 -51q-38 -34 -86.5 -50.5t-99.5 -16.5q-45 0 -84.5 10.5t-68 32.5t-45 55.5
t-16.5 79.5l3 151q0 39 14.5 72t40 57t61.5 37.5t79 13.5q41 0 76 -12.5t61 -35t40.5 -55t14.5 -72.5v-59l-322 -41v-56q0 -28 13 -48.5t34 -34.5t47.5 -21t54.5 -7zM556 433q-26 0 -49 -8t-40.5 -22.5t-28 -33.5t-10.5 -42v-43l244 29v20q0 51 -32.5 75.5t-83.5 24.5z" />
    <glyph glyph-name="Qtounge" horiz-adv-x="675" 
d="M328 182l49 40l148 -192q13 -17 24.5 -27t24 -15.5t27 -7.5t32.5 -2v-55q-30 0 -52 2t-40.5 9.5t-35 21.5t-34.5 38z" />
    </font>
</defs>
</svg>
