<?xml version="1.0" encoding="UTF-8"?>
<svg xmlns="http://www.w3.org/2000/svg" xmlns:xlink="http://www.w3.org/1999/xlink" width="94pt" height="24pt" viewBox="0 0 94 24" version="1.1">
<g id="surface1">
<path style=" stroke:none;fill-rule:nonzero;fill:rgb(100%,100%,100%);fill-opacity:1;" d="M 39.9375 0.496094 L 86.992188 0.496094 C 89.265625 4.394531 91.539062 8.292969 93.910156 12.191406 L 87.089844 23.882812 L 39.9375 23.882812 Z M 91.339844 12.191406 C 89.363281 8.878906 87.484375 5.660156 85.609375 2.445312 L 42.113281 2.445312 L 42.113281 21.933594 L 85.609375 21.933594 C 87.484375 18.71875 89.363281 15.503906 91.339844 12.191406 Z M 2.472656 13.164062 C 0.296875 11.898438 0.0976562 9.949219 0.890625 7.902344 C 1.78125 5.566406 3.757812 5.757812 5.832031 5.855469 L 5.832031 17.648438 L 4.644531 17.648438 L 4.644531 12.96875 C 2.964844 14.433594 2.667969 16.378906 1.582031 17.648438 L 0 17.648438 C 0.890625 16.089844 1.679688 14.625 2.472656 13.164062 Z M 4.546875 6.929688 C 3.65625 6.832031 2.867188 6.929688 2.371094 7.804688 C 2.03125 8.363281 1.851562 9.003906 1.851562 9.65625 C 1.851562 10.308594 2.03125 10.949219 2.371094 11.507812 C 2.867188 12.191406 3.65625 12.386719 4.546875 12.191406 Z M 17.101562 19.207031 L 17.101562 17.746094 L 13.742188 17.746094 C 13.742188 18.230469 13.640625 18.621094 13.640625 19.207031 L 12.554688 19.207031 L 12.554688 17.160156 C 14.234375 14.820312 14.039062 12.289062 14.136719 9.851562 L 17.597656 9.851562 L 17.597656 16.476562 C 17.792969 16.574219 17.992188 16.574219 18.1875 16.671875 L 18.1875 19.109375 C 17.894531 19.207031 17.496094 19.207031 17.101562 19.207031 Z M 15.421875 10.828125 C 15.324219 12.871094 15.125 14.820312 14.136719 16.574219 L 16.3125 16.574219 L 16.3125 10.828125 Z M 11.664062 17.648438 L 10.480469 17.648438 L 10.480469 13.945312 L 8.699219 13.945312 L 8.699219 17.648438 L 7.511719 17.648438 L 7.511719 9.851562 L 8.699219 9.851562 L 8.699219 12.871094 L 10.480469 12.871094 L 10.480469 9.851562 L 11.664062 9.851562 Z M 29.558594 17.648438 L 28.074219 17.648438 L 26.097656 13.75 L 26.097656 17.648438 L 24.8125 17.648438 L 24.8125 9.851562 L 26 9.851562 L 26 13.359375 C 26.691406 11.898438 27.183594 10.925781 27.777344 9.851562 L 29.160156 9.851562 C 28.46875 11.019531 27.875 12.191406 27.285156 13.359375 C 27.976562 14.722656 28.667969 16.1875 29.558594 17.648438 Z M 23.429688 14.042969 L 20.265625 14.042969 C 19.871094 16.089844 20.859375 16.964844 23.230469 16.671875 C 23.328125 16.867188 23.328125 17.0625 23.429688 17.257812 C 23.132812 18.039062 20.957031 18.132812 20.066406 17.453125 C 18.386719 16.089844 18.386719 11.3125 20.265625 10.046875 C 21.253906 9.363281 22.242188 9.558594 22.933594 10.632812 C 23.527344 11.605469 23.527344 12.773438 23.429688 14.042969 Z M 21.253906 10.535156 C 20.363281 11.214844 20.363281 12.09375 20.265625 12.96875 L 22.242188 12.96875 C 22.042969 12.09375 22.242188 11.117188 21.253906 10.535156 Z M 21.253906 10.535156 "/>
<path style=" stroke:none;fill-rule:nonzero;fill:rgb(100%,100%,100%);fill-opacity:1;" d="M 34.003906 16.574219 C 34.105469 16.867188 34.105469 17.0625 34.203125 17.257812 C 33.214844 17.941406 32.324219 18.132812 31.238281 17.550781 C 29.457031 16.574219 29.0625 12.679688 30.546875 10.632812 C 31.4375 9.363281 32.820312 9.167969 34.003906 10.144531 L 33.414062 11.019531 C 32.820312 10.828125 32.226562 10.046875 31.730469 10.828125 C 30.742188 12.386719 30.742188 14.042969 31.335938 15.699219 C 31.832031 16.964844 32.917969 16.769531 34.003906 16.574219 Z M 49.128906 8.292969 L 53.578125 8.292969 L 53.578125 15.113281 C 53.875 15.113281 54.171875 15.210938 54.566406 15.210938 L 54.566406 17.84375 L 53.578125 17.84375 L 53.578125 16.1875 L 48.242188 16.1875 L 48.242188 17.84375 L 47.253906 17.84375 L 47.253906 15.210938 C 47.550781 15.210938 47.746094 15.210938 48.042969 15.113281 C 49.328125 13.066406 49.03125 10.632812 49.128906 8.292969 Z M 52.394531 9.265625 L 50.117188 9.265625 C 50.21875 11.3125 50.019531 13.261719 49.128906 15.113281 L 52.394531 15.113281 Z M 60.203125 13.75 L 56.445312 13.75 C 56.445312 14.433594 56.644531 14.917969 57.136719 15.210938 C 57.929688 15.601562 58.71875 15.40625 59.410156 14.917969 C 59.609375 15.113281 59.808594 15.308594 60.101562 15.503906 C 59.015625 16.476562 57.730469 16.671875 56.542969 15.992188 C 55.160156 15.113281 55.0625 13.75 55.554688 12.386719 C 56.050781 11.117188 57.136719 10.632812 58.523438 10.925781 C 59.90625 11.214844 60.101562 12.386719 60.203125 13.75 Z M 59.015625 12.871094 C 58.816406 12.09375 58.523438 11.703125 57.730469 11.703125 C 56.941406 11.703125 56.644531 12.191406 56.445312 12.871094 Z M 62.574219 13.847656 L 62.574219 16.1875 L 61.585938 16.1875 L 61.585938 11.019531 L 62.476562 11.019531 L 62.476562 12.871094 L 64.945312 12.871094 L 64.945312 10.925781 L 65.835938 10.925781 L 65.835938 16.1875 L 64.945312 16.1875 L 64.945312 13.847656 Z M 81.257812 12.582031 C 80.367188 13.945312 79.183594 14.820312 78.589844 16.1875 L 77.796875 16.1875 L 77.796875 11.019531 L 78.6875 11.019531 L 78.6875 14.625 C 79.675781 13.261719 80.761719 12.386719 81.355469 11.117188 L 82.148438 11.117188 L 82.148438 16.285156 L 81.257812 16.285156 Z M 67.8125 16.285156 L 67.8125 11.019531 L 68.703125 11.019531 L 68.703125 12.679688 C 70.1875 12.871094 72.261719 12.582031 71.769531 14.917969 C 71.371094 16.964844 69.296875 15.894531 67.8125 16.285156 Z M 68.800781 13.554688 L 68.800781 15.40625 C 69.59375 15.308594 70.679688 15.796875 70.78125 14.527344 C 70.78125 13.164062 69.59375 13.652344 68.800781 13.554688 Z M 74.140625 16.1875 L 73.25 16.1875 L 73.25 11.019531 L 76.613281 11.019531 L 76.613281 11.800781 L 74.140625 11.800781 Z M 74.140625 16.1875 "/>
</g>
</svg>
