<?xml version="1.0" encoding="UTF-8"?>
<svg xmlns="http://www.w3.org/2000/svg" xmlns:xlink="http://www.w3.org/1999/xlink" width="39pt" height="24pt" viewBox="0 0 39 24" version="1.1">
<g id="surface1">
<path style=" stroke:none;fill-rule:nonzero;fill:rgb(100%,100%,100%);fill-opacity:1;" d="M 23.035156 13.792969 C 22.941406 13.601562 22.84375 13.316406 22.75 13.03125 L 22.75 12.460938 C 22.75 11.890625 22.941406 11.320312 23.128906 10.75 C 23.605469 9.707031 25.410156 9.230469 26.644531 9.894531 C 26.644531 10.277344 26.546875 10.464844 26.453125 10.847656 C 25.882812 10.5625 25.027344 10.464844 24.554688 10.75 C 23.605469 11.320312 23.320312 13.414062 24.648438 13.699219 C 25.125 13.792969 25.597656 13.699219 26.074219 13.507812 C 25.980469 13.886719 25.980469 14.078125 25.789062 14.554688 C 24.839844 14.933594 23.414062 14.554688 23.035156 13.792969 Z M 37.277344 9.515625 C 36.898438 11.226562 36.613281 12.84375 36.425781 14.554688 L 35.191406 14.554688 L 35.191406 14.078125 C 34.621094 14.648438 33.671875 14.742188 33.101562 14.171875 C 32.816406 13.886719 32.625 13.601562 32.625 13.222656 C 32.4375 11.796875 33.289062 10.371094 34.714844 10.371094 C 35.191406 10.371094 35.378906 10.65625 35.761719 10.941406 C 35.855469 10.464844 35.949219 9.894531 36.042969 9.421875 Z M 34.144531 13.699219 C 35.476562 14.171875 36.042969 11.320312 34.714844 11.417969 C 33.859375 11.511719 33.289062 13.316406 34.144531 13.699219 Z M 4.328125 9.609375 C 4.328125 9.707031 4.421875 12.84375 4.421875 12.9375 C 4.519531 12.9375 4.519531 12.9375 4.519531 12.84375 C 4.992188 11.796875 5.371094 10.75 5.847656 9.609375 C 6.417969 9.515625 7.082031 9.609375 7.652344 9.609375 C 7.273438 11.226562 6.988281 12.9375 6.703125 14.648438 L 5.65625 14.648438 C 5.941406 13.414062 6.132812 11.890625 6.320312 10.5625 C 6.039062 10.847656 4.992188 13.601562 4.519531 14.648438 L 3.566406 14.648438 C 3.472656 13.222656 3.378906 11.890625 3.285156 10.5625 C 2.902344 11.890625 2.714844 13.316406 2.523438 14.648438 L 1.574219 14.648438 C 1.953125 13.03125 2.332031 11.320312 2.523438 9.609375 C 3.09375 9.515625 3.757812 9.609375 4.328125 9.609375 Z M 15.914062 10.5625 L 16.578125 10.5625 C 16.484375 10.941406 16.484375 11.132812 16.484375 11.511719 C 16.199219 11.511719 15.914062 11.417969 15.816406 11.605469 C 15.722656 11.988281 15.535156 12.84375 15.535156 13.128906 C 15.535156 13.414062 15.4375 13.601562 15.628906 13.792969 C 15.816406 13.886719 16.101562 13.886719 16.292969 13.792969 C 16.199219 14.171875 16.199219 14.363281 16.101562 14.742188 C 15.152344 14.933594 14.296875 14.839844 14.394531 13.792969 C 14.488281 12.558594 15.058594 10.847656 15.058594 9.707031 L 16.199219 9.707031 C 16.007812 9.992188 15.914062 10.464844 15.914062 10.5625 Z M 10.027344 11.988281 C 10.214844 11.035156 8.601562 11.320312 7.9375 11.511719 C 7.9375 11.226562 8.03125 11.035156 8.125 10.75 C 9.265625 10.371094 11.164062 10.277344 11.070312 11.796875 C 10.976562 12.652344 10.59375 13.699219 10.691406 14.742188 L 9.644531 14.742188 C 9.644531 14.554688 9.644531 14.457031 9.742188 14.363281 C 9.550781 14.363281 9.359375 14.648438 9.074219 14.742188 C 8.316406 15.027344 7.367188 14.742188 7.367188 13.886719 L 7.367188 13.507812 C 7.460938 12.558594 8.222656 12.175781 9.171875 12.175781 C 9.265625 11.988281 9.929688 11.988281 10.027344 11.988281 Z M 9.265625 12.746094 C 8.695312 12.652344 8.125 13.128906 8.316406 13.601562 C 8.507812 13.886719 9.074219 13.886719 9.359375 13.699219 C 9.644531 13.414062 9.742188 13.128906 9.742188 12.746094 L 9.550781 12.746094 C 9.550781 12.652344 9.359375 12.652344 9.265625 12.746094 Z M 9.265625 12.746094 "/>
<path style=" stroke:none;fill-rule:nonzero;fill:rgb(100%,100%,100%);fill-opacity:1;" d="M 16.386719 12.367188 C 16.386719 10.941406 18.003906 9.894531 19.332031 10.5625 C 19.996094 10.847656 20.1875 11.890625 19.902344 12.746094 L 17.433594 12.746094 L 17.335938 12.84375 C 17.433594 13.414062 17.71875 13.699219 18.382812 13.699219 L 18.667969 13.699219 C 19.046875 13.699219 19.425781 13.601562 19.710938 13.414062 C 19.710938 13.699219 19.617188 14.078125 19.617188 14.363281 C 18.289062 14.839844 16.386719 14.554688 16.386719 13.03125 C 16.292969 12.9375 16.386719 12.652344 16.386719 12.367188 Z M 18.953125 12.082031 C 19.046875 11.035156 17.433594 11.132812 17.527344 12.082031 Z M 11.449219 11.605469 C 11.546875 10.5625 12.78125 10.371094 14.015625 10.5625 L 14.296875 10.5625 C 14.203125 10.847656 14.203125 11.132812 14.109375 11.417969 L 12.96875 11.417969 C 12.78125 11.417969 12.589844 11.511719 12.589844 11.703125 C 12.589844 12.175781 13.632812 12.273438 13.917969 12.652344 C 14.015625 12.84375 14.109375 12.9375 14.109375 13.128906 C 14.203125 14.171875 13.632812 14.648438 12.589844 14.648438 L 11.925781 14.648438 C 11.640625 14.648438 11.355469 14.648438 11.070312 14.554688 C 11.070312 14.457031 11.070312 13.886719 11.164062 13.699219 C 11.640625 13.792969 12.113281 13.886719 12.683594 13.792969 C 12.875 13.792969 13.0625 13.601562 13.0625 13.414062 C 13.0625 12.9375 12.210938 12.9375 11.828125 12.558594 C 11.734375 12.367188 11.640625 12.273438 11.546875 12.082031 Z M 29.777344 14.554688 L 28.734375 14.554688 L 28.734375 14.171875 C 28.351562 14.554688 27.5 14.839844 26.929688 14.554688 C 26.546875 14.363281 26.359375 13.984375 26.359375 13.601562 C 26.359375 12.273438 27.6875 11.988281 29.019531 12.082031 C 29.207031 11.035156 27.6875 11.417969 27.023438 11.511719 C 27.023438 11.226562 27.117188 10.941406 27.214844 10.65625 C 28.351562 10.277344 30.0625 10.277344 30.15625 11.511719 C 30.15625 11.988281 29.96875 12.558594 29.871094 13.03125 C 29.777344 13.507812 29.683594 14.078125 29.777344 14.554688 Z M 27.402344 13.507812 C 27.402344 13.886719 27.878906 13.984375 28.351562 13.886719 C 28.734375 13.699219 28.921875 13.316406 28.921875 12.84375 C 28.257812 12.746094 27.308594 12.84375 27.402344 13.507812 Z M 20.660156 10.5625 C 20.851562 10.5625 21.421875 10.5625 21.707031 10.65625 C 21.707031 10.847656 21.609375 11.035156 21.707031 11.226562 C 21.894531 11.132812 21.992188 10.847656 22.179688 10.75 C 22.371094 10.65625 22.65625 10.65625 22.941406 10.65625 C 22.75 11.035156 22.65625 11.417969 22.558594 11.796875 C 21.992188 11.703125 21.707031 11.988281 21.515625 12.558594 C 21.421875 12.84375 21.136719 14.648438 21.136719 14.742188 L 19.902344 14.742188 C 20.28125 13.222656 20.472656 11.890625 20.660156 10.5625 Z M 31.867188 10.5625 C 31.867188 10.75 31.769531 10.941406 31.769531 11.132812 C 32.152344 10.847656 32.4375 10.464844 33.101562 10.5625 C 33.007812 10.941406 32.816406 11.320312 32.722656 11.703125 C 31.296875 11.605469 31.390625 14.171875 31.296875 14.648438 L 30.15625 14.648438 C 30.441406 13.316406 30.726562 11.988281 30.917969 10.5625 Z M 0.53125 11.132812 L 0.53125 11.511719 C 0.53125 11.320312 0.433594 11.132812 0.53125 11.132812 Z M 9.265625 12.746094 C 9.359375 12.652344 9.457031 12.652344 9.644531 12.746094 Z M 9.265625 12.746094 "/>
<path style=" stroke:none;fill-rule:nonzero;fill:rgb(100%,100%,100%);fill-opacity:1;" d="M 11.734375 23.582031 C 5.277344 23.582031 0.0546875 18.355469 0.0546875 11.890625 C 0.0546875 5.429688 5.277344 0.105469 11.828125 0.105469 C 16.863281 0.105469 21.324219 3.339844 22.941406 8.183594 L 22.085938 8.46875 C 20.1875 2.769531 14.109375 -0.273438 8.410156 1.628906 C 2.714844 3.527344 -0.324219 9.609375 1.574219 15.3125 C 3.472656 21.015625 9.550781 24.058594 15.25 22.15625 C 18.382812 21.109375 20.851562 18.734375 21.992188 15.597656 L 22.84375 15.882812 C 21.039062 20.539062 16.671875 23.582031 11.734375 23.582031 Z M 11.734375 23.582031 "/>
<path style=" stroke:none;fill-rule:nonzero;fill:rgb(100%,100%,100%);fill-opacity:1;" d="M 27.023438 23.773438 C 21.992188 23.773438 17.527344 20.636719 15.816406 15.980469 L 16.671875 15.695312 C 18.761719 21.394531 25.125 24.34375 30.820312 22.25 C 36.519531 20.160156 39.464844 13.792969 37.375 8.089844 C 35.285156 2.386719 28.921875 -0.558594 23.226562 1.53125 C 19.996094 2.671875 17.527344 5.335938 16.484375 8.660156 L 15.628906 8.375 C 16.386719 6 17.90625 3.910156 19.902344 2.386719 C 25.21875 -1.605469 32.625 -0.464844 36.613281 4.859375 C 40.601562 10.179688 39.464844 17.59375 34.144531 21.585938 C 32.152344 22.917969 29.585938 23.675781 27.023438 23.773438 Z M 27.023438 23.773438 "/>
</g>
</svg>
