<?xml version="1.0" encoding="UTF-8"?>
<svg xmlns="http://www.w3.org/2000/svg" xmlns:xlink="http://www.w3.org/1999/xlink" width="41pt" height="24pt" viewBox="0 0 41 24" version="1.1">
<g id="surface1">
<path style=" stroke:none;fill-rule:nonzero;fill:rgb(100%,100%,100%);fill-opacity:1;" d="M 2.691406 23.546875 C 21.953125 14.632812 40.675781 19.964844 40.675781 19.964844 L 40.675781 15.683594 C 40.675781 15.683594 23.296875 12.535156 2.691406 23.023438 Z M 13.355469 0.472656 L 10.308594 6.414062 C 9.679688 7.726562 9.054688 8.949219 8.515625 10.347656 C 8.425781 9.039062 8.335938 7.816406 8.15625 6.414062 L 7.890625 3.355469 L 7.621094 0.472656 L 0.542969 0.472656 L 0.542969 0.910156 L 0.722656 0.910156 C 4.035156 1.082031 4.84375 2.917969 5.113281 3.882812 L 4.664062 0.910156 L 5.113281 3.96875 L 5.113281 3.882812 L 5.203125 4.40625 L 5.203125 4.316406 L 6.367188 12.972656 L 9.679688 12.972656 L 16.578125 0.382812 L 13.355469 0.382812 Z M 21.058594 0.382812 L 18.460938 12.972656 L 15.59375 12.972656 L 18.101562 0.382812 Z M 21.238281 10.085938 C 22.042969 10.523438 23.207031 10.875 24.371094 10.875 C 25.449219 10.875 26.523438 10.347656 26.523438 9.386719 C 26.523438 8.6875 25.984375 8.25 24.730469 7.640625 C 23.296875 6.941406 21.953125 5.980469 21.953125 4.316406 C 21.953125 1.78125 24.28125 0.210938 27.238281 0.210938 C 28.851562 0.210938 29.835938 0.558594 30.375 0.820312 L 29.121094 3.09375 C 28.671875 2.832031 28.3125 2.394531 26.96875 2.394531 C 25.625 2.394531 24.910156 3.09375 24.910156 3.792969 C 24.910156 4.492188 25.714844 4.929688 26.882812 5.542969 C 28.492188 6.328125 29.570312 7.378906 29.570312 8.863281 C 29.570312 11.660156 27.058594 13.148438 24.105469 13.148438 C 22.222656 13.148438 20.699219 12.449219 20.074219 12.011719 Z M 33.6875 9.738281 L 32.078125 12.972656 L 29.03125 12.972656 L 35.570312 0.382812 L 39.242188 0.382812 L 40.855469 12.972656 L 37.808594 12.972656 L 37.542969 9.738281 Z M 37.453125 7.640625 L 37.183594 4.929688 C 37.09375 4.230469 37.003906 3.269531 37.003906 2.484375 C 36.644531 3.269531 36.289062 4.230469 35.929688 4.929688 L 34.585938 7.640625 Z M 37.453125 7.640625 "/>
</g>
</svg>
