<?xml version="1.0" encoding="UTF-8"?>
<svg xmlns="http://www.w3.org/2000/svg" xmlns:xlink="http://www.w3.org/1999/xlink" width="69pt" height="24pt" viewBox="0 0 69 24" version="1.1">
<g id="surface1">
<path style=" stroke:none;fill-rule:nonzero;fill:rgb(100%,100%,100%);fill-opacity:1;" d="M 45.789062 5.429688 L 45.789062 16.398438 C 45.789062 16.597656 45.683594 16.695312 45.472656 16.695312 L 43.042969 16.695312 C 42.828125 16.695312 42.722656 16.597656 42.722656 16.398438 L 42.722656 5.429688 C 42.722656 5.230469 42.828125 5.132812 43.042969 5.132812 L 45.472656 5.132812 C 45.683594 5.132812 45.789062 5.230469 45.789062 5.429688 Z M 64.503906 5.132812 L 61.859375 5.132812 C 61.753906 5.132812 61.648438 5.230469 61.542969 5.332031 L 59.429688 11.855469 L 57.101562 5.332031 C 57.101562 5.230469 56.890625 5.132812 56.785156 5.132812 L 54.882812 5.132812 C 54.777344 5.132812 54.671875 5.230469 54.566406 5.332031 L 52.238281 11.855469 L 50.125 5.332031 C 50.125 5.230469 49.914062 5.132812 49.808594 5.132812 L 47.164062 5.132812 C 47.058594 5.132812 46.953125 5.132812 46.953125 5.230469 C 46.847656 5.332031 46.847656 5.429688 46.953125 5.527344 L 50.863281 16.5 C 50.863281 16.597656 51.078125 16.695312 51.183594 16.695312 L 53.296875 16.695312 C 53.402344 16.695312 53.507812 16.597656 53.613281 16.5 L 55.941406 10.074219 L 58.265625 16.5 C 58.265625 16.597656 58.476562 16.695312 58.582031 16.695312 L 60.695312 16.695312 C 60.804688 16.695312 60.910156 16.597656 61.015625 16.5 L 64.925781 5.527344 L 64.925781 5.230469 C 64.714844 5.230469 64.609375 5.132812 64.503906 5.132812 Z M 68.519531 5.132812 L 66.089844 5.132812 C 65.878906 5.132812 65.773438 5.230469 65.773438 5.429688 L 65.773438 16.398438 C 65.773438 16.597656 65.878906 16.695312 66.089844 16.695312 L 68.519531 16.695312 C 68.730469 16.695312 68.839844 16.597656 68.839844 16.398438 L 68.839844 5.429688 C 68.839844 5.230469 68.730469 5.132812 68.519531 5.132812 Z M 41.347656 16.300781 C 41.457031 16.398438 41.347656 16.695312 41.136719 16.695312 L 38.179688 16.695312 C 38.070312 16.695312 37.964844 16.597656 37.859375 16.597656 L 37.332031 16.003906 C 36.273438 16.597656 35.113281 16.992188 33.84375 16.992188 C 30.25 16.992188 27.394531 14.226562 27.394531 10.964844 C 27.394531 7.703125 30.355469 4.933594 33.84375 4.933594 C 37.4375 4.933594 40.292969 7.703125 40.292969 10.964844 C 40.292969 12.148438 39.871094 13.335938 39.234375 14.226562 Z M 35.535156 13.929688 L 34.265625 12.445312 C 34.160156 12.25 34.265625 12.050781 34.476562 12.050781 L 37.121094 12.050781 C 37.226562 11.65625 37.332031 11.359375 37.332031 10.964844 C 37.332031 9.183594 35.851562 7.605469 33.949219 7.605469 C 31.941406 7.605469 30.566406 9.183594 30.566406 10.964844 C 30.566406 12.742188 32.046875 14.324219 33.949219 14.324219 C 34.476562 14.324219 35.113281 14.125 35.535156 13.929688 Z M 20.097656 16.300781 C 20.203125 16.796875 19.992188 16.992188 19.886719 16.992188 C 19.675781 16.992188 19.464844 16.796875 19.253906 16.398438 C 19.042969 16.003906 18.9375 15.609375 19.042969 15.410156 C 19.148438 15.3125 19.253906 15.214844 19.464844 15.3125 C 19.886719 15.410156 19.992188 16.003906 20.097656 16.300781 Z M 17.773438 17.289062 C 18.300781 17.683594 18.40625 18.179688 18.195312 18.476562 C 18.089844 18.671875 17.773438 18.773438 17.5625 18.773438 C 17.246094 18.773438 17.03125 18.671875 16.820312 18.476562 C 16.398438 18.078125 16.1875 17.488281 16.503906 17.191406 C 16.609375 17.089844 16.820312 16.992188 17.03125 16.992188 C 17.246094 16.992188 17.5625 17.089844 17.773438 17.289062 Z M 16.925781 21.042969 C 19.042969 21.042969 21.367188 21.738281 24.011719 23.8125 C 24.222656 24.011719 24.644531 23.714844 24.433594 23.515625 C 21.894531 20.550781 19.570312 19.957031 17.246094 19.464844 C 14.390625 18.871094 12.910156 17.386719 11.957031 15.707031 C 11.746094 15.410156 11.640625 15.410156 11.640625 15.90625 C 11.640625 16.398438 11.640625 17.089844 11.746094 17.785156 L 11.429688 17.785156 C 7.304688 17.785156 4.027344 14.71875 4.027344 10.863281 C 4.027344 7.011719 7.304688 3.945312 11.429688 3.945312 C 15.554688 3.945312 18.832031 7.011719 18.832031 10.863281 L 18.832031 11.65625 C 18.300781 11.558594 17.246094 11.558594 16.503906 11.65625 C 16.1875 11.65625 16.292969 11.753906 16.503906 11.855469 C 18.9375 12.25 20.628906 13.632812 21.050781 16.203125 C 21.050781 16.300781 21.15625 16.300781 21.15625 16.203125 C 22.109375 14.621094 22.742188 12.84375 22.742188 10.863281 C 22.425781 5.132812 17.457031 0.488281 11.324219 0.488281 C 5.085938 0.488281 0.117188 5.132812 0.117188 10.964844 C 0.117188 16.796875 5.085938 21.441406 11.324219 21.441406 C 12.910156 21.339844 14.496094 21.042969 16.925781 21.042969 Z M 16.925781 21.042969 "/>
</g>
</svg>
