<?xml version="1.0" encoding="UTF-8"?>
<svg xmlns="http://www.w3.org/2000/svg" xmlns:xlink="http://www.w3.org/1999/xlink" width="24pt" height="23pt" viewBox="0 0 24 23" version="1.1">
<g id="surface1">
<path style=" stroke:none;fill-rule:nonzero;fill:rgb(100%,100%,100%);fill-opacity:1;" d="M 16.585938 22.730469 L 7.703125 22.730469 C 5.734375 22.726562 3.851562 21.984375 2.464844 20.664062 C 1.074219 19.347656 0.296875 17.5625 0.300781 15.699219 L 0.300781 7.269531 C 0.296875 5.410156 1.074219 3.625 2.464844 2.304688 C 3.851562 0.988281 5.734375 0.242188 7.703125 0.238281 L 16.585938 0.238281 C 17.5625 0.238281 18.527344 0.421875 19.425781 0.777344 C 20.328125 1.132812 21.144531 1.648438 21.832031 2.300781 C 22.519531 2.953125 23.066406 3.730469 23.4375 4.582031 C 23.8125 5.433594 24 6.347656 24 7.269531 L 24 15.699219 C 24 16.621094 23.8125 17.535156 23.4375 18.386719 C 23.066406 19.242188 22.519531 20.015625 21.832031 20.667969 C 21.144531 21.320312 20.328125 21.839844 19.425781 22.191406 C 18.527344 22.546875 17.5625 22.730469 16.585938 22.730469 Z M 21.808594 7.269531 C 21.808594 5.960938 21.257812 4.703125 20.277344 3.777344 C 19.300781 2.851562 17.972656 2.332031 16.585938 2.332031 L 7.703125 2.332031 C 7.015625 2.332031 6.335938 2.460938 5.703125 2.707031 C 5.070312 2.957031 4.496094 3.320312 4.011719 3.777344 C 3.03125 4.703125 2.480469 5.960938 2.480469 7.269531 L 2.480469 15.699219 C 2.480469 16.347656 2.617188 16.992188 2.878906 17.589844 C 3.140625 18.1875 3.527344 18.734375 4.011719 19.191406 C 4.988281 20.117188 6.316406 20.636719 7.703125 20.636719 L 16.585938 20.636719 C 17.273438 20.636719 17.953125 20.511719 18.585938 20.261719 C 19.21875 20.015625 19.792969 19.648438 20.277344 19.191406 C 20.761719 18.734375 21.148438 18.1875 21.410156 17.589844 C 21.671875 16.992188 21.808594 16.347656 21.808594 15.699219 Z M 18.519531 6.164062 C 18.363281 6.164062 18.207031 6.117188 18.078125 6.035156 C 17.949219 5.953125 17.84375 5.835938 17.785156 5.699219 C 17.726562 5.5625 17.710938 5.410156 17.742188 5.265625 C 17.769531 5.121094 17.847656 4.988281 17.957031 4.882812 C 18.070312 4.777344 18.210938 4.707031 18.363281 4.675781 C 18.519531 4.648438 18.675781 4.664062 18.824219 4.71875 C 18.96875 4.777344 19.089844 4.871094 19.179688 4.996094 C 19.265625 5.121094 19.3125 5.265625 19.3125 5.414062 C 19.3125 5.613281 19.230469 5.800781 19.078125 5.941406 C 18.929688 6.085938 18.730469 6.164062 18.519531 6.164062 Z M 12.148438 17.082031 C 10.96875 17.09375 9.8125 16.769531 8.828125 16.15625 C 7.839844 15.542969 7.070312 14.664062 6.613281 13.636719 C 6.152344 12.605469 6.03125 11.472656 6.257812 10.378906 C 6.484375 9.28125 7.050781 8.273438 7.882812 7.484375 C 8.714844 6.691406 9.777344 6.152344 10.9375 5.9375 C 12.09375 5.71875 13.292969 5.832031 14.382812 6.257812 C 15.472656 6.6875 16.40625 7.414062 17.058594 8.34375 C 17.710938 9.277344 18.054688 10.367188 18.046875 11.484375 C 18.050781 12.96875 17.433594 14.394531 16.328125 15.449219 C 15.222656 16.503906 13.71875 17.101562 12.148438 17.113281 Z M 12.148438 7.941406 C 11.414062 7.9375 10.695312 8.144531 10.082031 8.527344 C 9.46875 8.914062 8.992188 9.460938 8.707031 10.101562 C 8.425781 10.746094 8.351562 11.453125 8.492188 12.136719 C 8.636719 12.816406 8.988281 13.445312 9.507812 13.9375 C 10.027344 14.429688 10.6875 14.765625 11.410156 14.902344 C 12.132812 15.039062 12.878906 14.96875 13.558594 14.703125 C 14.238281 14.4375 14.820312 13.988281 15.230469 13.410156 C 15.636719 12.832031 15.855469 12.152344 15.855469 11.457031 C 15.847656 10.53125 15.453125 9.644531 14.761719 8.992188 C 14.066406 8.339844 13.128906 7.972656 12.148438 7.96875 Z M 12.148438 7.941406 "/>
</g>
</svg>
